<?xml version="1.0" encoding="UTF-8"?>
<svg version="1.1" xmlns="http://www.w3.org/2000/svg" width="750" height="700">
<path d="M0 0 C247.5 0 495 0 750 0 C750 231 750 462 750 700 C502.5 700 255 700 0 700 C0 469 0 238 0 0 Z " fill="#FEFEFD" transform="translate(0,0)"/>
<path d="M0 0 C1.5724738 0.14384164 3.14459097 0.29158459 4.71655273 0.44091797 C6.02981789 0.56368607 6.02981789 0.56368607 7.36961365 0.68893433 C11.36290723 1.16117543 15.18441068 2.08236073 19.0625 3.125 C19.87686523 3.34381836 20.69123047 3.56263672 21.53027344 3.78808594 C44.73019061 10.26896168 63.092311 22.01610821 80 39 C81.83033145 40.81941061 83.6610848 42.63839685 85.4921875 44.45703125 C87.07738211 46.0348401 88.66208966 47.61313633 90.24658203 49.19165039 C91.32771017 50.26775379 92.40973467 51.34295744 93.49267578 52.41723633 C99.00566308 57.88745479 104.43091543 63.36793516 109.47949219 69.27709961 C111.88010183 71.9972509 114.50005199 74.44266734 117.1875 76.875 C117.69474609 77.34679687 118.20199219 77.81859375 118.72460938 78.3046875 C121.5896231 81.00683873 121.5896231 81.00683873 125.11645508 82.61132812 C127 84 127 84 127.66601562 87.70166016 C127.76516689 89.31306724 127.84371303 90.92581952 127.90625 92.5390625 C127.95619614 93.40397812 128.00614227 94.26889374 128.05760193 95.16001892 C128.16426045 97.01658618 128.26301679 98.87362083 128.35470581 100.73098755 C128.59685147 105.55411607 128.90742536 110.37257727 129.22265625 115.19140625 C129.2840126 116.1374321 129.34536896 117.08345795 129.40858459 118.05815125 C130.14267046 128.86262126 131.76953921 139.40318294 134 150 C134.16113281 150.80099121 134.32226562 151.60198242 134.48828125 152.42724609 C137.1976195 165.76743289 140.32820501 178.72359625 151 188 C158.78542349 193.08666507 167.42588392 194.37339445 176.54296875 192.46875 C181.0731033 191.07252763 184.54390911 189.34808805 188 186 C188.33 185.34 188.66 184.68 189 184 C189.66 184 190.32 184 191 184 C191.29132813 185.12277344 191.58265625 186.24554688 191.8828125 187.40234375 C195.45243768 200.64426318 199.81592112 210.67323425 212.125 217.8125 C219.17895325 220.44978883 227.2685399 221.21459491 234.1875 218.0625 C234.88230469 217.68222656 235.57710937 217.30195313 236.29296875 216.91015625 C238 216 238 216 240 216 C240.37125 215.2265625 240.37125 215.2265625 240.75 214.4375 C242.39581616 211.22815849 244.1976096 208.12414336 246 205 C246.515625 205.66 247.03125 206.32 247.5625 207 C248.366875 207.99 249.17125 208.98 250 210 C250.49757813 210.639375 250.99515625 211.27875 251.5078125 211.9375 C256.71582744 218.33245788 261.44636149 222.47813271 269.8515625 223.44140625 C278.89422019 223.86620777 285.2794606 222.88238668 292.33203125 217.08203125 C298.64434965 211.3203836 302.44014355 205.44512239 303.32958984 196.79443359 C303.42917366 193.27058205 303.39991321 189.77408255 303.3125 186.25 C303.29703125 185.01604492 303.2815625 183.78208984 303.265625 182.51074219 C303.13585716 174.32022838 302.85794747 166.15050096 302 158 C303.16410911 159.74616366 304.31801945 161.49937648 305.4453125 163.26953125 C310.70305826 171.22951379 316.2765325 176.07443962 325 180 C324.67 180.886875 324.34 181.77375 324 182.6875 C320.10358406 197.45286566 325.98305405 209.2162414 333.08105469 221.9375 C335.40520713 225.91272672 337.73660481 229.73660481 341 233 C341.64497803 235.81151787 342.21367869 238.60559777 342.75 241.4375 C345.27483734 253.5421137 349.93836622 263.30488756 360 271 C361.9081441 271.91787419 363.84742101 272.7738483 365.8125 273.5625 C369.72207372 275.13394201 371.59517879 276.13051017 373.375 280 C373.77525391 281.02867187 373.77525391 281.02867187 374.18359375 282.078125 C377.54520379 289.99158021 387.15611464 294.41155697 394.64453125 297.4375 C402.43506973 300.36461234 410.60342726 302.14298741 418.66503906 304.15527344 C450.53572631 312.22793653 476.03289766 322.41981655 502.92041016 341.52392578 C506.0254394 343.72784769 509.14622912 345.90911502 512.26586914 348.09228516 C513.96528404 349.28192446 515.66368823 350.47300886 517.36108398 351.66552734 C522.31198615 355.13972836 527.29293453 358.56350794 532.30419922 361.94995117 C541.44237888 368.13287236 550.23859193 374.65513052 558.95019531 381.42236328 C561.63135876 383.48592667 564.34626611 385.50194628 567.0637207 387.51733398 C573.85652932 392.55614268 580.46466974 397.77209596 586.99804688 403.14233398 C592.23844162 407.43057001 597.61346371 411.50618532 603.05273438 415.53759766 C608.43061347 419.53656736 613.67240613 423.6868971 618.88525391 427.89794922 C622.18885288 430.56387053 625.51829392 433.16966635 628.9375 435.6875 C629.948125 436.450625 630.95875 437.21375 632 438 C632 438.33 632 438.66 632 439 C574.57177338 439.06847382 517.14354263 439.13215625 459.71528625 439.16937256 C458.86532341 439.16992479 458.01536056 439.17047702 457.13964126 439.17104598 C438.66763714 439.18301762 420.19563258 439.19409835 401.72362737 439.20426132 C392.66495396 439.20925066 383.60628066 439.21443688 374.54760742 439.21972656 C373.19543747 439.22051112 373.19543747 439.22051112 371.81595095 439.22131152 C342.59772906 439.23835675 313.37953813 439.26840188 284.16133499 439.30518888 C254.13571214 439.3429238 224.11010642 439.36754283 194.08446025 439.37565996 C189.84350073 439.37681258 185.60254126 439.37811513 181.3615818 439.37950897 C180.52690057 439.37977866 179.69221933 439.38004836 178.83224472 439.38032622 C165.39644389 439.385053 151.96069602 439.40360499 138.52491678 439.42732814 C125.01725405 439.45088313 111.50964381 439.45987041 98.00196125 439.45400551 C89.97688952 439.45096334 81.95200993 439.45907278 73.9269729 439.48319017 C67.93353262 439.49997127 61.94029829 439.49583686 55.94683907 439.48359558 C53.52269724 439.48190406 51.09853924 439.48699088 48.67442926 439.49953273 C45.37810821 439.51559597 42.08272486 439.50692656 38.78641796 439.49219131 C37.84629046 439.50269937 36.90616297 439.51320742 35.93754676 439.5240339 C25.87694861 439.42247744 16.24551013 436.16606374 9 429 C0.36559845 418.4228581 -0.43580821 408.57639594 -0.36076355 395.39685059 C-0.36207251 393.69052693 -0.3647006 391.98420386 -0.36853105 390.27788401 C-0.37523012 385.59843282 -0.36325126 380.91918814 -0.34819686 376.23976326 C-0.33523246 371.19009542 -0.33962625 366.14043908 -0.34190369 361.09075928 C-0.34347616 352.34495793 -0.33406961 343.59922378 -0.31719017 334.85343933 C-0.2928013 322.20853846 -0.28499501 309.56367004 -0.2812262 296.9187482 C-0.27466154 276.40284497 -0.25469998 255.88697754 -0.22631836 235.37109375 C-0.19877817 215.44271015 -0.17754438 195.51433629 -0.16479492 175.5859375 C-0.16400675 174.35739711 -0.16321858 173.12885672 -0.16240653 171.86308783 C-0.15849139 165.69981561 -0.15470027 159.53654332 -0.15097082 153.37327099 C-0.11987447 102.24882258 -0.06703826 51.12441304 0 0 Z " fill="#F4D399" transform="translate(20,234)"/>
<path d="M0 0 C6.91868994 4.04062834 10.50075882 9.81745701 12.6875 17.4375 C13.07791218 20.40897407 13.08648106 23.3303737 13.05664349 26.32427216 C13.06010502 27.18781999 13.06356655 28.05136783 13.06713298 28.94108379 C13.07506483 31.83064976 13.06162247 34.71971281 13.04826355 37.60925293 C13.04957203 39.70330755 13.05219922 41.79736169 13.05603105 43.89141321 C13.06273965 49.64259771 13.05073804 55.39361463 13.03569686 61.14477777 C13.02274626 67.34783071 13.02712527 73.55087412 13.02940369 79.75393677 C13.03097704 90.50014502 13.02166611 101.24628592 13.00469017 111.99247742 C12.98693341 123.26185871 12.97539118 134.53121822 12.97213173 145.8006134 C12.97192551 146.50155496 12.97171929 147.20249651 12.97150682 147.92467872 C12.97049181 151.48446975 12.96958766 155.04426081 12.9687262 158.60405189 C12.96242653 183.81189577 12.94221884 209.0197112 12.91381836 234.22753906 C12.88626115 258.71516773 12.86501222 283.20278862 12.85229492 307.69042969 C12.85170305 308.82283981 12.85170305 308.82283981 12.85109923 309.97812691 C12.84714364 317.55961025 12.8433162 325.14109366 12.83958265 332.72257712 C12.8319742 348.16665502 12.82351045 363.61073241 12.81452942 379.05480957 C12.81411755 379.76488865 12.81370568 380.47496772 12.81328133 381.20656434 C12.7856837 428.61688832 12.73808617 476.02719556 12.6875 523.4375 C11.09649218 522.96660062 9.50598779 522.49400009 7.91569519 522.02069092 C7.02992892 521.75769573 6.14416265 521.49470055 5.23155499 521.22373581 C1.9815628 520.21933132 -1.16525401 519.025998 -4.32421875 517.765625 C-4.93607025 517.52211304 -5.54792175 517.27860107 -6.17831421 517.02770996 C-8.1208125 516.25237657 -10.06047415 515.4702356 -12 514.6875 C-12.66280975 514.42215454 -13.32561951 514.15680908 -14.0085144 513.88342285 C-22.69169159 510.40673883 -31.25730522 506.79287189 -39.59765625 502.546875 C-42.40557343 501.39946712 -44.3129062 501.19533096 -47.3125 501.4375 C-47.3125 500.4475 -47.3125 499.4575 -47.3125 498.4375 C-48.5190625 498.0971875 -48.5190625 498.0971875 -49.75 497.75 C-53.4860233 496.37357036 -56.66408017 494.6024153 -60.06640625 492.55859375 C-62.29306834 491.31556708 -62.29306834 491.31556708 -64.90234375 490.97265625 C-67.3125 490.4375 -67.3125 490.4375 -68.59106445 489.11645508 C-70.89863842 486.86582592 -73.43347964 485.57530746 -76.265625 484.0390625 C-76.84407166 483.72222504 -77.42251831 483.40538757 -78.01849365 483.07894897 C-79.86384603 482.06851716 -81.71272226 481.0648046 -83.5625 480.0625 C-90.73692749 476.1715417 -97.74795801 472.3130219 -104.3125 467.4375 C-106.67742247 466.10326016 -109.06910323 464.8723004 -111.4921875 463.6484375 C-113.3125 462.4375 -113.3125 462.4375 -114.3125 459.4375 C-115.39144531 459.29054688 -115.39144531 459.29054688 -116.4921875 459.140625 C-119.73293521 458.33268236 -121.6951136 457.09038036 -124.4375 455.1875 C-125.4790625 454.47078125 -126.520625 453.7540625 -127.59375 453.015625 C-128.46773437 452.40750977 -128.46773437 452.40750977 -129.359375 451.78710938 C-131.55090498 450.27276216 -133.75867099 448.7840142 -135.96875 447.296875 C-164.9490764 427.74346918 -164.9490764 427.74346918 -167.3125 418.3125 C-167.79396484 416.47171875 -167.79396484 416.47171875 -168.28515625 414.59375 C-168.62907089 413.2086967 -168.97143421 411.82325757 -169.3125 410.4375 C-174.66429317 389.01223167 -183.06531747 371.74431772 -195.1706543 353.33422852 C-199.27389273 347.08400852 -203.22214498 340.75184888 -207.125 334.375 C-215.25270387 319.26999791 -215.25270387 319.26999791 -228.3125 309.4375 C-233.83409548 308.66809735 -239.34949474 308.29927904 -244.25 311.3125 C-249.3203047 315.78629826 -251.90004451 321.23554287 -252.7578125 327.89453125 C-253.19796411 341.9060242 -248.52281952 354.39394014 -243.59936523 367.26855469 C-243.30360596 368.04231445 -243.00784668 368.81607422 -242.703125 369.61328125 C-242.3014209 370.64835815 -242.3014209 370.64835815 -241.89160156 371.7043457 C-241.3125 373.4375 -241.3125 373.4375 -241.3125 375.4375 C-263.20302905 376.63152886 -282.56513926 367.81097182 -300.58203125 356.359375 C-313.13226348 348.40735361 -323.28066085 343.20388402 -338.3125 344.4375 C-338.37195801 343.85186279 -338.43141602 343.26622559 -338.49267578 342.6628418 C-341.95666112 309.65929089 -349.28226749 278.6097383 -367.3125 250.4375 C-367.3125 249.7775 -367.3125 249.1175 -367.3125 248.4375 C-366.06855469 248.12296875 -364.82460938 247.8084375 -363.54296875 247.484375 C-345.321951 243.62119442 -345.321951 243.62119442 -330.3125 233.4375 C-328.56949383 229.95148766 -328.87968111 226.24889025 -329.3125 222.4375 C-332.07003844 216.17036719 -337.73819775 213.03313771 -343.3125 209.4375 C-339.7009942 205.55291248 -335.93036674 202.72779905 -331.375 200 C-329.94463027 199.12481195 -328.51498312 198.2484422 -327.0859375 197.37109375 C-326.31862305 196.90171387 -325.55130859 196.43233398 -324.76074219 195.94873047 C-320.31003187 193.20143321 -315.90786263 190.37783209 -311.5 187.5625 C-305.3496862 183.6402384 -299.19389247 179.72746804 -293.01977539 175.84277344 C-268.56155562 160.45045508 -244.55857071 144.3929709 -220.765625 127.99414062 C-209.94736676 120.53914148 -199.07897744 113.16007126 -188.1875 105.8125 C-187.26495422 105.18998352 -186.34240845 104.56746704 -185.39190674 103.92608643 C-171.87501814 94.81000484 -158.31201238 85.76693705 -144.6875 76.8125 C-143.92596619 76.31192078 -143.16443237 75.81134155 -142.37982178 75.29559326 C-110.45345791 54.32315363 -78.32401691 33.66953941 -45.3125 14.4375 C-43.89396729 13.60992187 -43.89396729 13.60992187 -42.44677734 12.765625 C-39.63482817 11.12902565 -36.81842589 9.50041614 -34 7.875 C-32.73833008 7.14204712 -32.73833008 7.14204712 -31.45117188 6.39428711 C-11.4716377 -5.05715326 -11.4716377 -5.05715326 0 0 Z " fill="#AAD2C7" transform="translate(720.3125,43.5625)"/>
<path d="M0 0 C0.62477234 0.26276733 1.24954468 0.52553467 1.89324951 0.79626465 C40.57353154 17.09745837 76.49019025 38.80845641 110.8125 62.875 C112.42299123 63.99896427 114.03367818 65.12264812 115.64453125 66.24609375 C125.69917367 73.26546376 135.72295759 80.32846163 145.73583984 87.40722656 C147.8402857 88.8946388 149.94540317 90.38109514 152.05078125 91.8671875 C152.75283691 92.36275146 153.45489258 92.85831543 154.17822266 93.36889648 C155.60608464 94.37650122 157.03414598 95.38382351 158.46240234 96.39086914 C161.87239057 98.7958859 165.27895743 101.20532484 168.67578125 103.62890625 C175.31729385 108.35684703 181.99830839 113.01652613 188.7578125 117.57421875 C189.3721666 117.98889908 189.98652069 118.40357941 190.61949158 118.83082581 C193.68927423 120.9019242 196.7623579 122.96782564 199.84106445 125.02563477 C211.57941552 132.90550607 222.69947419 141.14998792 231.375 152.4375 C240.11344433 163.58417702 250.71414628 173.14645391 261.8125 181.875 C263.10941502 182.9460249 264.40348111 184.02050511 265.6953125 185.09765625 C266.38568604 185.66983887 267.07605957 186.24202148 267.78735352 186.83154297 C269.12996052 187.94475588 270.46927769 189.06195495 271.80444336 190.18408203 C280.84925717 197.62300107 289.99123113 201.95542321 301.125 205.5 C303.4158901 206.23247017 305.70380091 206.97433941 307.98828125 207.7265625 C308.98770752 208.04447754 309.98713379 208.36239258 311.0168457 208.68994141 C314.73707454 210.26692078 317.96715742 212.18431483 319.8125 215.875 C320.32394471 219.71083535 320.177071 221.35244824 317.9375 224.5625 C309.45087679 230.84260117 298.96428896 230.83081759 288.8125 229.875 C284.96120319 228.87426933 281.40503893 227.57993373 277.8125 225.875 C277.4825 226.205 277.1525 226.535 276.8125 226.875 C277.41553955 227.99636353 277.41553955 227.99636353 278.03076172 229.14038086 C289.84519674 251.22713849 299.55654867 273.4672597 307.3125 297.3125 C307.52677643 297.96957947 307.74105286 298.62665894 307.96182251 299.3036499 C317.32995243 328.21540991 317.32995243 328.21540991 312.75 340.9375 C310.26096602 344.71119668 307.73202167 347.57035372 303.8125 349.875 C299.62433024 350.71263395 296.69475692 350.11746829 292.9375 348.25 C278.82177477 338.42328359 271.46782842 314.67254396 265.75 299.25 C258.65426505 280.16327027 249.64864617 257.61003364 232.8125 244.875 C232.1525 244.875 231.4925 244.875 230.8125 244.875 C231.14459473 245.85557373 231.47668945 246.83614746 231.81884766 247.84643555 C245.65648486 288.76432907 257.72220393 329.96432048 258.3125 373.5625 C258.33094971 374.32675293 258.34939941 375.09100586 258.3684082 375.87841797 C258.28931077 382.72152024 255.67610256 386.78954 251.1875 391.8125 C246.61222796 394.60849958 243.04305074 394.88350488 237.8125 393.875 C230.15642161 389.75249625 227.00755203 380.97895473 224.5703125 372.9921875 C222.49742762 365.65671325 220.87327404 358.22092574 219.296875 350.765625 C218.74036903 348.13524658 218.18336651 345.50498317 217.625 342.875 C217.48233704 342.20159576 217.33967407 341.52819153 217.19268799 340.8343811 C214.33446894 327.43665268 210.66708191 314.33183365 206.80726624 301.19296265 C206.59887619 300.48346466 206.39048615 299.77396667 206.17578125 299.04296875 C205.97033188 298.34434723 205.76488251 297.64572571 205.5532074 296.92593384 C203.42330742 289.63374119 201.53983365 282.27869838 199.78881836 274.88647461 C198.48388415 269.60809475 196.73264421 265.47267386 193.8125 260.875 C193.43140534 270.53007852 194.47103361 279.8727177 195.66445923 289.42873955 C196.00808952 292.18600344 196.3416218 294.94433145 196.67260742 297.70314026 C197.61440422 305.53941372 198.5726618 313.37363266 199.54003906 321.20678711 C200.13424722 326.02400379 200.71593375 330.84261224 201.29067993 335.66218758 C201.5091911 337.47357508 201.73228486 339.28441722 201.96054077 341.09460258 C203.18588997 350.81691301 204.04583668 360.47399622 204.19921875 370.27758789 C204.23714287 371.58626029 204.23714287 371.58626029 204.27583313 372.92137051 C204.28507797 378.41294073 203.47104633 381.5243717 199.8125 385.875 C196.35832486 388.91796381 194.17980597 390.74352827 189.5625 391.1875 C185.03511858 390.81021821 183.34946063 389.68443574 179.8125 386.875 C166.02941569 367.65843941 165.84898649 339.95130487 162.69497681 317.20661926 C161.75303761 310.42326975 160.78283802 303.64519365 159.75 296.875 C159.61198975 295.91013672 159.47397949 294.94527344 159.33178711 293.95117188 C157.89481665 284.70358483 155.67579442 275.56231251 148.8125 268.875 C147.8225 268.545 146.8325 268.215 145.8125 267.875 C145.3532935 295.9049929 145.3532935 295.9049929 146.8125 323.875 C146.94881836 325.32664551 146.94881836 325.32664551 147.08789062 326.80761719 C147.2184082 328.1964209 147.2184082 328.1964209 147.3515625 329.61328125 C147.83014402 334.76323457 148.1025168 339.89127228 148.1875 345.0625 C148.22617187 346.13274414 148.22617187 346.13274414 148.265625 347.22460938 C148.28515265 352.23833293 146.93245515 355.01327693 143.8125 358.875 C140.50121286 361.74478219 138.77641116 362.83994869 134.375 363 C127.30660456 360.76787512 124.05815127 356.76655583 120.62084961 350.36743164 C120.27159424 349.6893042 119.92233887 349.01117676 119.5625 348.3125 C119.2332251 347.6827124 118.9039502 347.0529248 118.56469727 346.40405273 C113.3895421 335.7297166 112.21759414 323.70029703 110.8125 312.0625 C110.64271853 310.70531463 110.47221579 309.34821931 110.30102539 307.99121094 C109.50271187 301.63436935 108.73895552 295.27372929 107.99609375 288.91015625 C107.86912109 287.84321533 107.74214844 286.77627441 107.61132812 285.67700195 C107.37956822 283.71941374 107.15496648 281.76095703 106.93945312 279.80151367 C105.81137427 270.09984221 105.81137427 270.09984221 102.8125 260.875 C100.91611845 259.6352919 100.91611845 259.6352919 98.8125 258.875 C96.0625 256.875 96.0625 256.875 93.8125 254.875 C93.8125 254.215 93.8125 253.555 93.8125 252.875 C93.1525 252.875 92.4925 252.875 91.8125 252.875 C77.88484834 238.44677735 69.25848167 220.41904378 63 201.625 C60.40655777 193.86770339 57.44807624 186.54901167 53.625 179.3125 C53.22112061 178.54583008 52.81724121 177.77916016 52.40112305 176.98925781 C46.79092505 166.74385022 42.05233929 163.62446683 31.0625 159.625 C29.80364872 159.15253084 28.54551923 158.67813445 27.28808594 158.2019043 C25.35708456 157.47102976 23.42564055 156.74166315 21.49151611 156.01908875 C16.32942665 154.08903062 11.22540231 152.03236124 6.12597656 149.94213867 C-6.16362858 144.9089636 -18.60822618 140.57179119 -31.26757812 136.56420898 C-33.1875 135.875 -33.1875 135.875 -34.1875 134.875 C-34.29002212 133.27362713 -34.32269931 131.66773785 -34.32794189 130.06309509 C-34.33365204 129.02151245 -34.33936218 127.97992981 -34.34524536 126.90678406 C-34.34636322 125.75410538 -34.34748108 124.6014267 -34.34863281 123.41381836 C-34.35608017 121.60408035 -34.35608017 121.60408035 -34.36367798 119.75778198 C-34.37581501 116.43714583 -34.38325315 113.1165729 -34.38768864 109.79592204 C-34.39061739 107.72023861 -34.394722 105.64456073 -34.39919281 103.56888008 C-34.41288009 97.0719343 -34.42253849 90.57500118 -34.4263947 84.07804197 C-34.43086685 76.5843952 -34.44837013 69.09093161 -34.4773953 61.59734052 C-34.49905438 55.80360892 -34.50910137 50.00992866 -34.51043582 44.21615702 C-34.51148161 40.75728832 -34.51733994 37.29859152 -34.53525543 33.83976555 C-34.55488784 29.97376567 -34.55043031 26.10799177 -34.54394531 22.24194336 C-34.5531601 21.1034343 -34.56237488 19.96492523 -34.5718689 18.79191589 C-34.52286636 9.45343171 -32.8394157 2.68915755 -26.1875 -4.125 C-18.01051639 -9.11063504 -7.84943648 -3.33508174 0 0 Z " fill="#191919" transform="translate(53.1875,50.125)"/>
<path d="M0 0 C3.95901161 1.32815171 4.64979233 2.71278325 6.6640625 6.33203125 C7.34298165 7.5199707 8.02272455 8.7074396 8.703125 9.89453125 C9.25468262 10.87873047 9.25468262 10.87873047 9.81738281 11.8828125 C11.14650403 14.20744656 12.53445529 16.48878277 13.9375 18.76953125 C19.39210439 27.65145695 24.50524607 36.57020101 29.03515625 45.95703125 C30.47161107 48.91903469 31.99601302 51.81807234 33.57421875 54.70703125 C40.27639623 66.98262442 44.93332934 78.63455793 47.84960938 92.34570312 C50.50320378 107.62498739 50.50320378 107.62498739 60.03125 119.03515625 C61.91833757 120.11616999 63.82550281 121.13264083 65.76171875 122.12304688 C72.985222 125.82429323 79.64176648 130.2884173 86.3515625 134.83203125 C88.70710861 136.41979167 91.06428873 138.0051146 93.421875 139.58984375 C93.99472229 139.97522308 94.56756958 140.36060242 95.15777588 140.75765991 C102.19796436 145.48437558 109.36661494 149.99794013 116.56494141 154.47851562 C119.31333843 156.19036505 122.05724407 157.90927939 124.80078125 159.62890625 C129.89382123 162.8196919 134.99145699 166.00302638 140.09179688 169.18212891 C141.99468122 170.36843669 143.89706179 171.5555531 145.79882812 172.74365234 C158.21598185 180.49867957 170.72400615 188.08062809 183.36865234 195.45947266 C185.08718363 196.46344184 186.80381654 197.47067136 188.51806641 198.48193359 C205.94272303 208.75638748 223.95071239 217.97535619 242.0390625 227.01953125 C242.10895607 234.27863586 242.16207157 241.53766643 242.19449902 248.79704094 C242.21007239 252.16885241 242.23115532 255.54043156 242.26538086 258.91210938 C242.30198702 262.79954027 242.31884036 266.68664625 242.33203125 270.57421875 C242.34751511 271.76941132 242.36299896 272.96460388 242.37895203 274.1960144 C242.38081011 283.54764388 241.36623527 292.6933312 235.0390625 300.01953125 C226.01618994 307.27705918 216.01571584 310.55900504 204.46484375 310.41796875 C197.83790248 309.64721845 191.99519 306.8644236 186.0390625 304.01953125 C185.3884082 303.71402344 184.73775391 303.40851563 184.06738281 303.09375 C163.85955592 293.45113452 146.0713634 279.5119081 128.44628906 265.87255859 C124.83705856 263.09425641 121.18994531 260.36772709 117.5390625 257.64453125 C112.90447022 254.18220807 108.29954214 250.68787145 103.7265625 247.14453125 C96.09111219 241.23668831 88.29506819 235.54759721 80.51074219 229.83837891 C78.08952498 228.05666534 75.6763458 226.26463279 73.265625 224.46875 C64.5674759 217.99921551 55.77844018 211.71212062 46.8059082 205.62817383 C42.78894773 202.90408552 38.79260289 200.16192027 34.85791016 197.32006836 C33.7658705 196.53315262 32.66911481 195.7527425 31.56787109 194.97875977 C28.03947571 192.49609244 24.62437523 189.91143212 21.234375 187.2421875 C9.22936668 178.07754055 -0.61572006 174.33984614 -15.47265625 172.2421875 C-24.18523112 170.96428049 -32.52332218 168.6087647 -40.9609375 166.14453125 C-41.71295441 165.92546112 -42.46497131 165.70639099 -43.23977661 165.48068237 C-81.86515113 154.1632108 -81.86515113 154.1632108 -87.9609375 145.01953125 C-88.33984375 142.35546875 -88.33984375 142.35546875 -88.5234375 139.39453125 C-88.46368879 135.89447815 -88.46368879 135.89447815 -89.9609375 133.01953125 C-91.31347579 132.91298556 -92.66827119 132.83461642 -94.0234375 132.76953125 C-100.04635107 132.12798084 -104.42152738 129.86894728 -108.46484375 125.33203125 C-113.058083 118.75067353 -114.89005448 110.57840985 -115.1484375 102.64453125 C-116.19993403 97.95323903 -117.9816738 97.19121926 -121.83203125 94.62890625 C-128.55588347 89.54592072 -131.80405968 80.91174329 -133.9609375 73.01953125 C-134.3831278 69.14945351 -134.41120792 66.16987893 -131.9609375 63.01953125 C-129.7734375 62.01953125 -129.7734375 62.01953125 -126.9609375 62.01953125 C-122.16718348 64.17182898 -118.30673569 67.26367149 -114.1484375 70.45703125 C-99.75324947 81.29326135 -81.11802733 87.62918536 -62.9609375 87.01953125 C-62.6309375 86.68953125 -62.3009375 86.35953125 -61.9609375 86.01953125 C-62.68692139 85.89280029 -63.41290527 85.76606934 -64.16088867 85.63549805 C-68.76286843 84.62313472 -72.95062658 82.67518371 -77.2734375 80.83203125 C-78.18544922 80.45755859 -79.09746094 80.08308594 -80.03710938 79.69726562 C-93.04601488 74.16731511 -102.30661184 65.66647144 -108.1484375 52.6953125 C-109.07610207 49.6402633 -109.21648055 47.19619575 -108.9609375 44.01953125 C-107.3359375 41.64453125 -107.3359375 41.64453125 -104.9609375 40.01953125 C-99.82515324 39.42167698 -97.3337525 40.69125667 -93.1484375 43.58203125 C-85.5196622 48.56930988 -77.48189473 51.85907602 -68.9609375 55.01953125 C-68.17219238 55.31746582 -67.38344727 55.61540039 -66.57080078 55.92236328 C-47.50022491 63.03439188 -22.49561655 70.80515552 -1.9609375 69.01953125 C-0.9709375 68.35953125 0.0190625 67.69953125 1.0390625 67.01953125 C1.37960701 64.47618535 1.51338927 62.25131904 1.4765625 59.70703125 C1.46971436 58.9893457 1.46286621 58.27166016 1.45581055 57.53222656 C1.14862624 47.1454853 -2.78593237 37.98850581 -6.91015625 28.578125 C-10.153074 20.68180112 -9.64883649 12.91388228 -6.91015625 4.9296875 C-5.11526472 1.31774528 -4.19908399 0.02769844 0 0 Z " fill="#191919" transform="translate(490.9609375,362.98046875)"/>
<path d="M0 0 C2.91616587 1.35744869 5.34662063 2.91744175 7.87109375 4.90625 C8.97155029 5.76827026 8.97155029 5.76827026 10.09423828 6.64770508 C10.86751465 7.2589624 11.64079102 7.87021973 12.4375 8.5 C14.04786204 9.76472416 15.65854177 11.02904392 17.26953125 12.29296875 C18.06568848 12.91864746 18.8618457 13.54432617 19.68212891 14.18896484 C21.80197532 15.84527627 23.9331949 17.48448444 26.07421875 19.11328125 C26.67886963 19.57347656 27.28352051 20.03367187 27.90649414 20.5078125 C29.53279427 21.74249753 31.16087555 22.97483545 32.7890625 24.20703125 C33.51867187 24.79871094 34.24828125 25.39039063 35 26 C35 26.33 35 26.66 35 27 C-22.498807 27.03422797 -79.99761503 27.06607034 -137.49642944 27.08468628 C-138.77240914 27.08510045 -138.77240914 27.08510045 -140.07416621 27.08552299 C-158.56001044 27.09150845 -177.04585478 27.09704886 -195.53169928 27.10213066 C-204.59681647 27.10462539 -213.66193363 27.10721849 -222.72705078 27.10986328 C-223.62915121 27.1101248 -224.53125165 27.11038632 -225.46068846 27.11065576 C-254.7138468 27.11918235 -283.96699744 27.13420788 -313.22015111 27.15259444 C-343.27513846 27.17145073 -373.33012153 27.18376882 -403.3851147 27.18782998 C-407.62767795 27.18840631 -411.87024118 27.18905759 -416.11280441 27.18975449 C-416.94782277 27.18988933 -417.78284112 27.19002418 -418.64316306 27.19016311 C-432.09852936 27.1925289 -445.55388247 27.20181137 -459.00924339 27.21366407 C-472.52801353 27.22542561 -486.04677056 27.22993921 -499.56554563 27.22700275 C-507.60272086 27.22547865 -515.63984821 27.22956336 -523.67701482 27.24159509 C-529.67057735 27.24995654 -535.66408818 27.2479342 -541.6576554 27.24179779 C-544.08843379 27.24094897 -546.51921615 27.24351862 -548.94998665 27.24976636 C-552.24301209 27.25774137 -555.53579973 27.2534973 -558.82882118 27.24609566 C-559.78208375 27.25134968 -560.73534631 27.25660371 -561.71749562 27.26201695 C-566.55049918 27.2373119 -570.46237436 26.8897052 -575 25 C-575 24.34 -575 23.68 -575 23 C-574.29757675 23.07114517 -573.5951535 23.14229034 -572.8714447 23.21559143 C-564.85329399 23.96350025 -556.9281096 24.13158732 -548.87890625 24.08984375 C-547.43217541 24.08574898 -545.98544376 24.08193112 -544.53871155 24.07835388 C-539.35907592 24.06238541 -534.17955927 24.03180213 -529 24 C-527.97087242 23.9938694 -526.94174484 23.9877388 -525.88143158 23.98142242 C-510.13356176 23.88654622 -494.38599129 23.76369564 -478.63842773 23.62768555 C-472.13547461 23.57177823 -465.63248835 23.52193769 -459.1294775 23.47328281 C-454.09140557 23.4345204 -449.05337782 23.39140809 -444.01535225 23.34705925 C-441.61306659 23.3266781 -439.21076625 23.3079581 -436.80845451 23.29092598 C-433.49065206 23.26701136 -430.17296103 23.2369662 -426.85522461 23.20532227 C-425.8649527 23.1995668 -424.87468079 23.19381134 -423.85440063 23.18788147 C-422.95977615 23.17809265 -422.06515167 23.16830383 -421.14341736 23.15821838 C-420.36257247 23.15176583 -419.58172758 23.14531328 -418.77722073 23.1386652 C-416.97509595 23.19174941 -416.97509595 23.19174941 -416 22 C-413.46950598 21.92686433 -410.96695163 21.90752473 -408.4375 21.9375 C-407.37112305 21.94426758 -407.37112305 21.94426758 -406.28320312 21.95117188 C-404.52209987 21.96299136 -402.76103964 21.98092737 -401 22 C-401 22.66 -401 23.32 -401 24 C-398.35375716 23.85978195 -395.70815422 23.71310224 -393.0625 23.5625 C-392.30775391 23.52318359 -391.55300781 23.48386719 -390.77539062 23.44335938 C-387.08055813 23.55961976 -387.08055813 23.55961976 -384 22 C-382.14712498 21.92773498 -380.29166122 21.9161878 -378.4375 21.9375 C-377.42558594 21.94652344 -376.41367187 21.95554687 -375.37109375 21.96484375 C-374.58863281 21.97644531 -373.80617188 21.98804688 -373 22 C-373 22.66 -373 23.32 -373 24 C-369.6871348 23.86179731 -366.37482011 23.71316222 -363.0625 23.5625 C-362.11697266 23.52318359 -361.17144531 23.48386719 -360.19726562 23.44335938 C-359.29814453 23.40146484 -358.39902344 23.35957031 -357.47265625 23.31640625 C-356.64000244 23.27974854 -355.80734863 23.24309082 -354.94946289 23.20532227 C-352.99661142 23.20632897 -352.99661142 23.20632897 -352 22 C-349.46950598 21.92686433 -346.96695163 21.90752473 -344.4375 21.9375 C-343.37112305 21.94426758 -343.37112305 21.94426758 -342.28320312 21.95117188 C-340.52209987 21.96299136 -338.76103964 21.98092737 -337 22 C-337 22.66 -337 23.32 -337 24 C-218.86 24 -100.72 24 21 24 C21 23.34 21 22.68 21 22 C21.66 21.34 22.32 20.68 23 20 C20.94766315 17.7522025 19.99332739 16.9977758 17 16 C17 15.34 17 14.68 17 14 C16.34 14 15.68 14 15 14 C15 13.34 15 12.68 15 12 C14.01 12 13.02 12 12 12 C10.28641357 10.38161281 8.6292274 8.70328319 7 7 C5.14014149 5.38374042 3.25395451 3.8049773 1.35546875 2.234375 C0.90816406 1.82703125 0.46085938 1.4196875 0 1 C0 0.67 0 0.34 0 0 Z " fill="#EFA95C" transform="translate(617,646)"/>
<path d="M0 0 C2.91616587 1.35744869 5.34662063 2.91744175 7.87109375 4.90625 C8.97155029 5.76839111 8.97155029 5.76839111 10.09423828 6.64794922 C10.86751465 7.25912598 11.64079102 7.87030273 12.4375 8.5 C14.04794418 9.76331779 15.65862322 11.02633624 17.26953125 12.2890625 C18.46376709 13.22733887 18.46376709 13.22733887 19.68212891 14.18457031 C22.98093141 16.7682964 26.30044113 19.32454995 29.625 21.875 C30.66914062 22.67679688 31.71328125 23.47859375 32.7890625 24.3046875 C33.51867187 24.86414063 34.24828125 25.42359375 35 26 C32.53086219 26.85470155 31.03719604 27.00673757 28.43845689 26.53601032 C24.13274231 25.8648059 19.96016054 25.85623874 15.60968971 25.8613348 C14.66740763 25.85849258 13.72512554 25.85565036 12.75428945 25.85272202 C9.58501432 25.84437531 6.41577575 25.84310682 3.24649048 25.84178162 C0.95617186 25.83721625 -1.33414592 25.83221627 -3.62446272 25.82681805 C-9.92737669 25.81322463 -16.23028525 25.80581509 -22.53321004 25.79939139 C-28.62926232 25.79269833 -34.72530459 25.78039101 -40.82134885 25.76867336 C-53.29186821 25.74486369 -65.76239071 25.72565914 -78.2329216 25.70907402 C-90.58131718 25.69263631 -102.92970691 25.67415494 -115.27809525 25.65294075 C-116.04571892 25.65162314 -116.8133426 25.65030554 -117.6042276 25.648948 C-121.50255878 25.64224597 -125.4008899 25.63550739 -129.29922099 25.62875474 C-156.91513254 25.5809845 -184.53104955 25.53780154 -212.14697266 25.49731445 C-238.97640378 25.45796994 -265.80583038 25.41654871 -292.63525391 25.37231445 C-293.46217172 25.37095192 -294.28908954 25.36958939 -295.14106548 25.36818558 C-303.44527138 25.35450027 -311.74947721 25.34077272 -320.05368299 25.32701423 C-336.97049082 25.29898726 -353.8872991 25.27124221 -370.80410767 25.2436676 C-371.58192479 25.2423994 -372.35974191 25.2411312 -373.16112925 25.23982458 C-425.10741217 25.15516061 -477.05370536 25.07708899 -529 25 C-529 24.67 -529 24.34 -529 24 C-528.42370378 23.99576806 -527.84740755 23.99153612 -527.2536478 23.98717594 C-513.25000216 23.88400271 -499.24640867 23.77532204 -485.24285221 23.66066074 C-478.47091991 23.60531369 -471.69898235 23.55182932 -464.92700195 23.50268555 C-458.39771567 23.45529782 -451.8684826 23.4027781 -445.33926201 23.34705925 C-442.84207951 23.32660115 -440.34488207 23.30789394 -437.84767342 23.29092598 C-434.3633188 23.26695819 -430.8790682 23.23689357 -427.39477539 23.20532227 C-426.35108795 23.1995668 -425.30740051 23.19381134 -424.23208618 23.18788147 C-423.28832626 23.17809265 -422.34456635 23.16830383 -421.37220764 23.15821838 C-420.54720292 23.15176583 -419.7221982 23.14531328 -418.87219334 23.1386652 C-416.98618605 23.20383471 -416.98618605 23.20383471 -416 22 C-413.46950598 21.92686433 -410.96695163 21.90752473 -408.4375 21.9375 C-407.37112305 21.94426758 -407.37112305 21.94426758 -406.28320312 21.95117188 C-404.52209987 21.96299136 -402.76103964 21.98092737 -401 22 C-401 22.66 -401 23.32 -401 24 C-398.35375716 23.85978195 -395.70815422 23.71310224 -393.0625 23.5625 C-392.30775391 23.52318359 -391.55300781 23.48386719 -390.77539062 23.44335938 C-387.08055813 23.55961976 -387.08055813 23.55961976 -384 22 C-382.14712498 21.92773498 -380.29166122 21.9161878 -378.4375 21.9375 C-377.42558594 21.94652344 -376.41367187 21.95554687 -375.37109375 21.96484375 C-374.58863281 21.97644531 -373.80617188 21.98804688 -373 22 C-373 22.66 -373 23.32 -373 24 C-369.6871348 23.86179731 -366.37482011 23.71316222 -363.0625 23.5625 C-362.11697266 23.52318359 -361.17144531 23.48386719 -360.19726562 23.44335938 C-359.29814453 23.40146484 -358.39902344 23.35957031 -357.47265625 23.31640625 C-356.64000244 23.27974854 -355.80734863 23.24309082 -354.94946289 23.20532227 C-352.99661142 23.20632897 -352.99661142 23.20632897 -352 22 C-349.46950598 21.92686433 -346.96695163 21.90752473 -344.4375 21.9375 C-343.37112305 21.94426758 -343.37112305 21.94426758 -342.28320312 21.95117188 C-340.52209987 21.96299136 -338.76103964 21.98092737 -337 22 C-337 22.66 -337 23.32 -337 24 C-218.86 24 -100.72 24 21 24 C21 23.34 21 22.68 21 22 C21.66 21.34 22.32 20.68 23 20 C20.94766315 17.7522025 19.99332739 16.9977758 17 16 C17 15.34 17 14.68 17 14 C16.34 14 15.68 14 15 14 C15 13.34 15 12.68 15 12 C14.01 12 13.02 12 12 12 C10.28641357 10.38161281 8.6292274 8.70328319 7 7 C5.14014149 5.38374042 3.25395451 3.8049773 1.35546875 2.234375 C0.90816406 1.82703125 0.46085938 1.4196875 0 1 C0 0.67 0 0.34 0 0 Z " fill="#F9A34A" transform="translate(617,646)"/>
<path d="M0 0 C3.15566941 2.58191133 3.97548105 5.09609081 5 9 C5.27666932 12.19107781 5.26148536 15.36570803 5.24050903 18.56710815 C5.24221788 19.5237024 5.24392673 20.48029665 5.24568737 21.46587861 C5.24897836 24.66727031 5.23798488 27.86845186 5.22705078 31.06982422 C5.22648658 33.36624649 5.22680339 35.66266912 5.22793579 37.95909119 C5.22850997 44.19203976 5.21674504 50.42491146 5.20278788 56.65784216 C5.19029142 63.17212885 5.18911087 69.68641728 5.18673706 76.20071411 C5.18122571 87.13414888 5.16873046 98.06755524 5.15087891 109.00097656 C5.13251314 120.26106628 5.11836004 131.52114833 5.10986328 142.78125 C5.10933783 143.47564363 5.10881239 144.17003726 5.10827102 144.88547312 C5.10566089 148.36913786 5.10313349 151.85280267 5.10064721 155.3364675 C5.0799231 184.22433033 5.04455593 213.11216449 5 242 C4.67 242 4.34 242 4 242 C3.20935802 227.77457238 2.70291263 213.56102601 2.43359375 199.31640625 C2.41229338 198.21721926 2.390993 197.11803226 2.36904716 195.98553658 C1.95776163 173.93665515 1.93723821 151.89167503 1.97265625 129.83984375 C1.97394264 128.99004582 1.97522902 128.14024789 1.97655439 127.26469851 C2.00085433 111.43345023 2.03846181 95.60223295 2.08749622 79.77104241 C2.1149218 70.91068711 2.13672055 62.05035979 2.14750665 53.18996722 C2.15400528 48.21423106 2.16945066 43.23863202 2.19182408 38.26294315 C2.20352792 35.20246008 2.20691927 32.14201025 2.20792198 29.08150673 C2.21007037 27.66569434 2.21566518 26.24988237 2.2249527 24.83409882 C2.23712543 22.9050146 2.23580639 20.97585923 2.23377991 19.04673767 C2.23692231 17.96886458 2.24006472 16.8909915 2.24330235 15.78045559 C1.99761721 12.97276951 1.36470378 11.42071762 0 9 C-0.1953125 6.640625 -0.1953125 6.640625 -0.125 4.25 C-0.10695313 3.45078125 -0.08890625 2.6515625 -0.0703125 1.828125 C-0.04710937 1.22484375 -0.02390625 0.6215625 0 0 Z " fill="#58AFC2" transform="translate(728,52)"/>
<path d="M0 0 C2.47018118 2.47018118 2.26508213 3.19745638 2.31785583 6.60241699 C2.33752096 7.58249725 2.35718609 8.56257751 2.37744713 9.57235718 C2.39448409 11.20619858 2.39448409 11.20619858 2.41186523 12.87304688 C2.43110865 14.03136017 2.45035206 15.18967346 2.4701786 16.38308716 C2.52077129 19.6352226 2.5616385 22.88730304 2.5973618 26.13963127 C2.62126209 28.23349819 2.64874592 30.32728897 2.67733574 32.4210968 C3.21387071 72.01918783 3.11611036 111.62312069 3.07202852 151.22386837 C3.06056514 161.70385712 3.05528191 172.18384678 3.05032361 182.66384029 C3.04004872 204.10923387 3.02262246 225.55461611 3 247 C1.39887714 246.52559366 -0.20178293 246.0496252 -1.80224609 245.57299805 C-3.13937149 245.17566719 -3.13937149 245.17566719 -4.50350952 244.77030945 C-7.27261666 243.91588224 -9.94804699 242.92152339 -12.625 241.8125 C-13.88183594 241.29623047 -13.88183594 241.29623047 -15.1640625 240.76953125 C-15.76992188 240.51558594 -16.37578125 240.26164063 -17 240 C-14.3260876 239.10869587 -11.76276177 238.52268466 -9 238 C-9.33 238.99 -9.66 239.98 -10 241 C-7.03 241.33 -4.06 241.66 -1 242 C-0.67 242.99 -0.34 243.98 0 245 C0.66 245 1.32 245 2 245 C1.91620323 225.99843388 1.82110834 206.99695658 1.71247292 187.99551582 C1.66229929 179.17329781 1.61585703 170.35108931 1.578125 161.52880859 C1.54523768 153.84148417 1.50542473 146.15423258 1.45720994 138.46698844 C1.43191237 134.39468363 1.41014085 130.32242734 1.39665604 126.25006485 C1.38386506 122.42023282 1.36184317 118.59056691 1.33261681 114.76082611 C1.32351772 113.35230932 1.31784539 111.94376577 1.31578636 110.5352211 C1.31248038 108.61785446 1.29585705 106.70052433 1.2784729 104.78323364 C1.27294214 103.70842302 1.26741138 102.6336124 1.26171303 101.52623177 C1.25073598 98.83041764 1.25073598 98.83041764 -1 97 C-0.34 96.01 0.32 95.02 1 94 C0.9825187 91.40694107 0.86147094 88.94783924 0.625 86.375 C0.50931916 84.93117984 0.39602231 83.4871666 0.28515625 82.04296875 C0.23117676 81.3473584 0.17719727 80.65174805 0.12158203 79.93505859 C-0.03062309 77.51261329 -0.00565297 75.11294386 0.0625 72.6875 C0.33077475 68.91059877 0.33077475 68.91059877 -2 66 C-2.23046875 63.22265625 -2.23046875 63.22265625 -2.1875 60.0625 C-2.17783203 58.50208984 -2.17783203 58.50208984 -2.16796875 56.91015625 C-2.02535748 54.43933308 -1.71031012 52.35822959 -1 50 C-1.33 50 -1.66 50 -2 50 C-1.85785272 46.99978513 -1.71138304 43.99988211 -1.5625 41 C-1.52318359 40.16082031 -1.48386719 39.32164062 -1.44335938 38.45703125 C-1.24782768 34.57647913 -0.99813223 30.75956582 -0.43359375 26.9140625 C0.04265548 22.61494785 -0.13715493 18.66738003 -0.5 14.375 C-0.91890306 9.36598895 -1.06625812 4.97064447 0 0 Z " fill="#CFD7C2" transform="translate(730,320)"/>
<path d="M0 0 C3.82789874 1.79299346 6.99435177 3.89723659 9.6640625 7.234375 C9.6640625 7.894375 9.6640625 8.554375 9.6640625 9.234375 C8.3440625 9.234375 7.0240625 9.234375 5.6640625 9.234375 C5.1690625 7.749375 5.1690625 7.749375 4.6640625 6.234375 C3.6740625 5.904375 2.6840625 5.574375 1.6640625 5.234375 C1.6640625 4.574375 1.6640625 3.914375 1.6640625 3.234375 C-0.3159375 3.234375 -2.2959375 3.234375 -4.3359375 3.234375 C-4.3359375 2.574375 -4.3359375 1.914375 -4.3359375 1.234375 C-6.3159375 1.234375 -8.2959375 1.234375 -10.3359375 1.234375 C-10.3359375 1.894375 -10.3359375 2.554375 -10.3359375 3.234375 C-12.6459375 3.234375 -14.9559375 3.234375 -17.3359375 3.234375 C-17.3359375 4.224375 -17.3359375 5.214375 -17.3359375 6.234375 C-18.604375 6.04875 -18.604375 6.04875 -19.8984375 5.859375 C-24.20411903 6.32908571 -25.70020213 7.88514268 -28.72265625 10.82421875 C-30.3359375 12.234375 -30.3359375 12.234375 -33.3359375 13.234375 C-33.9959375 13.894375 -34.6559375 14.554375 -35.3359375 15.234375 C-38.72594516 18.25789535 -40.92535728 19.4218997 -45.3359375 20.234375 C-47.12979742 21.6922936 -47.12979742 21.6922936 -48.3359375 23.234375 C-48.6659375 22.904375 -48.9959375 22.574375 -49.3359375 22.234375 C-49.7896875 22.729375 -50.2434375 23.224375 -50.7109375 23.734375 C-52.3359375 25.234375 -52.3359375 25.234375 -54.3359375 25.234375 C-54.6659375 25.894375 -54.9959375 26.554375 -55.3359375 27.234375 C-59.07446894 31.29799613 -61.90461253 31.40887431 -67.2421875 31.66015625 C-69.53129044 32.03413049 -69.53129044 32.03413049 -70.6171875 34.27734375 C-70.854375 34.92316406 -71.0915625 35.56898437 -71.3359375 36.234375 C-72.3259375 35.904375 -73.3159375 35.574375 -74.3359375 35.234375 C-74.42875 36.1625 -74.42875 36.1625 -74.5234375 37.109375 C-75.3359375 39.234375 -75.3359375 39.234375 -77.7734375 40.359375 C-78.6190625 40.648125 -79.4646875 40.936875 -80.3359375 41.234375 C-80.9959375 41.894375 -81.6559375 42.554375 -82.3359375 43.234375 C-83.3259375 43.564375 -84.3159375 43.894375 -85.3359375 44.234375 C-85.9959375 44.894375 -86.6559375 45.554375 -87.3359375 46.234375 C-91.8359375 49.234375 -91.8359375 49.234375 -95.3359375 49.234375 C-95.5421875 49.8325 -95.7484375 50.430625 -95.9609375 51.046875 C-97.85587605 54.06154997 -100.14446152 54.73250395 -103.3359375 56.234375 C-105.03453417 57.52678551 -106.71203273 58.84927975 -108.3359375 60.234375 C-108.9959375 59.904375 -109.6559375 59.574375 -110.3359375 59.234375 C-110.6659375 59.894375 -110.9959375 60.554375 -111.3359375 61.234375 C-112.3259375 61.894375 -113.3159375 62.554375 -114.3359375 63.234375 C-115.3259375 62.574375 -116.3159375 61.914375 -117.3359375 61.234375 C-93.04996599 45.25045047 -68.44181233 29.89565739 -43.3359375 15.234375 C-42.3164502 14.63866699 -41.29696289 14.04295898 -40.24658203 13.42919922 C-37.40540106 11.77382935 -34.55957194 10.12687949 -31.7109375 8.484375 C-30.47790894 7.76858276 -30.47790894 7.76858276 -29.2199707 7.03833008 C-10.75837382 -3.52615597 -10.75837382 -3.52615597 0 0 Z " fill="#51B2CF" transform="translate(718.3359375,42.765625)"/>
<path d="M0 0 C6.69432613 0.66943261 12.6604688 1.40378922 19.0625 3.125 C19.87686523 3.34381836 20.69123047 3.56263672 21.53027344 3.78808594 C42.06964934 9.5257419 59.54341744 19.30019374 75 34 C75.33 34.66 75.66 35.32 76 36 C75.01 36 74.02 36 73 36 C73 35.34 73 34.68 73 34 C71.515 33.505 71.515 33.505 70 33 C70 32.34 70 31.68 70 31 C68.515 31.495 68.515 31.495 67 32 C65 31 65 31 63 28 C62.34 27.67 61.68 27.34 61 27 C59.30282954 25.37997365 57.73700447 23.70072923 56.1875 21.9375 C53.59703547 19.64308856 51.2686821 19.04319642 48 18 C47.505 17.484375 47.01 16.96875 46.5 16.4375 C44.27674907 14.30688452 41.98041933 14.3311577 39 14 C39 13.34 39 12.68 39 12 C38.01 12 37.02 12 36 12 C36 11.34 36 10.68 36 10 C34.9275 10.04125 33.855 10.0825 32.75 10.125 C29.26941832 10.00898061 27.88110092 9.70731907 25 8 C24.34 8 23.68 8 23 8 C23 7.34 23 6.68 23 6 C22.071875 6.04125 21.14375 6.0825 20.1875 6.125 C17 6 17 6 14 4 C10.04 4 6.08 4 2 4 C2.33 21.16 2.66 38.32 3 56 C2.34 56 1.68 56 1 56 C1 74.48 1 92.96 1 112 C0.67 112 0.34 112 0 112 C0 75.04 0 38.08 0 0 Z " fill="#82B5B2" transform="translate(20,234)"/>
<path d="M0 0 C0.33 0 0.66 0 1 0 C2.0083016 20.81720915 2.1223011 41.58573366 2.06846237 62.42155743 C2.0583009 66.89580004 2.05493802 71.37004763 2.05102539 75.84429932 C2.0400575 87.14621117 2.02044681 98.44810195 2 109.75 C1.97788397 122.02903326 1.95739489 134.30805871 1.94658184 146.5871079 C1.94162134 151.88977619 1.931799 157.19240579 1.91815186 162.49505854 C1.91068294 165.78294907 1.9073753 169.07083435 1.9051857 172.35873222 C1.90331824 173.87807215 1.89972638 175.39741111 1.89425278 176.91674232 C1.88700112 178.99511744 1.88600049 181.07340874 1.88647461 183.15179443 C1.884254 184.31229183 1.88203339 185.47278923 1.87974548 186.66845322 C2.00619191 190.17154158 2.47858558 193.53624648 3 197 C2.86400685 199.73302354 2.42810423 202.28867319 2 205 C1.67 205 1.34 205 1 205 C-0.09016737 200.59962779 -0.13743448 196.30982347 -0.12025452 191.80595398 C-0.12110894 190.98497138 -0.12196337 190.16398879 -0.12284368 189.31812793 C-0.12448958 186.56972904 -0.11899167 183.82139131 -0.11352539 181.07299805 C-0.1132433 179.10184226 -0.11340168 177.13068637 -0.1139679 175.15953064 C-0.11425502 169.80874851 -0.10837196 164.45798876 -0.10139394 159.10721183 C-0.09514631 153.51514534 -0.09455548 147.92307835 -0.09336853 142.33100891 C-0.09025938 131.74179625 -0.08205158 121.1525939 -0.07201904 110.56338578 C-0.060845 98.50787786 -0.05534419 86.45236944 -0.05032361 74.39685762 C-0.03986864 49.59789936 -0.02227723 24.79895026 0 0 Z " fill="#E8D5A6" transform="translate(20,346)"/>
<path d="M0 0 C0.99 0.495 0.99 0.495 2 1 C1.05581482 3.36046295 0.45659048 4.72278435 -1.75 6.0625 C-2.4925 6.371875 -3.235 6.68125 -4 7 C-4.99 7.495 -5.98 7.99 -7 8.5 C-8.72572449 9.36286224 -10.46899819 10.19541591 -12.25 10.9375 C-14.45659048 12.27721565 -15.05581482 13.63953705 -16 16 C-16.66 16 -17.32 16 -18 16 C-19.67987227 17.31665664 -21.34466005 18.65263027 -23 20 C-24.65261839 21.02304948 -26.31791365 22.02616054 -28 23 C-28.99 23.66 -29.98 24.32 -31 25 C-31.99 25.33 -32.98 25.66 -34 26 C-34.9590625 26.99 -34.9590625 26.99 -35.9375 28 C-38.10647481 30.1032483 -39.14308327 30.40891378 -42 31 C-42.33 31.66 -42.66 32.32 -43 33 C-44.97888961 33.72693904 -46.97954558 34.39816251 -49 35 C-49 35.66 -49 36.32 -49 37 C-50.0625 38.5625 -50.0625 38.5625 -52 40 C-55.6875 40.6875 -55.6875 40.6875 -59 41 C-59.33 41.99 -59.66 42.98 -60 44 C-60.99 44 -61.98 44 -63 44 C-63.04125 44.598125 -63.0825 45.19625 -63.125 45.8125 C-64.44976366 49.12440916 -66.83210661 49.60612691 -70 51 C-70.99 51.66 -71.98 52.32 -73 53 C-73.94875 53.268125 -74.8975 53.53625 -75.875 53.8125 C-79.19597699 54.82382547 -79.19597699 54.82382547 -81.625 57.6875 C-82.40875 58.450625 -83.1925 59.21375 -84 60 C-86.1484375 59.64453125 -86.1484375 59.64453125 -88 59 C-78.60382681 51.88960547 -68.75388699 45.48342447 -58.90338135 39.02780151 C-53.9919924 35.80900343 -49.08622478 32.58165544 -44.1796875 29.35546875 C-43.21441132 28.72111404 -42.24913513 28.08675934 -41.25460815 27.43318176 C-33.19090919 22.13188307 -25.14941612 16.79803977 -17.125 11.4375 C-16.05894531 10.7254541 -14.99289062 10.0134082 -13.89453125 9.27978516 C-12.03519656 8.03704771 -10.1761122 6.79393558 -8.31738281 5.55029297 C-5.54705292 3.69698547 -2.77401935 1.84777899 0 0 Z " fill="#54B1C9" transform="translate(599,105)"/>
<path d="M0 0 C2.91616587 1.35744869 5.34662063 2.91744175 7.87109375 4.90625 C8.60473145 5.48101074 9.33836914 6.05577148 10.09423828 6.64794922 C10.86751465 7.25912598 11.64079102 7.87030273 12.4375 8.5 C14.04794418 9.76331779 15.65862322 11.02633624 17.26953125 12.2890625 C18.06568848 12.91458008 18.8618457 13.54009766 19.68212891 14.18457031 C22.98093141 16.7682964 26.30044113 19.32454995 29.625 21.875 C30.66914062 22.67679688 31.71328125 23.47859375 32.7890625 24.3046875 C33.51867187 24.86414063 34.24828125 25.42359375 35 26 C32.60627563 26.8285969 31.1212385 27.02333833 28.61129761 26.54017639 C23.35893023 25.75452947 18.14838988 25.82128684 12.84423828 25.79467773 C11.6241658 25.78477814 10.40409332 25.77487854 9.14704895 25.76467896 C5.81487121 25.73856974 2.48271642 25.71667555 -0.84950018 25.69667697 C-4.33687708 25.67474331 -7.82421144 25.64739088 -11.31155396 25.62062073 C-17.90932552 25.57079329 -24.50712082 25.52581774 -31.10493863 25.48259836 C-38.61886855 25.43314072 -46.13275578 25.37825433 -53.64664435 25.32291877 C-69.0977234 25.20925155 -84.54884178 25.10237955 -100 25 C-100 24.67 -100 24.34 -100 24 C-60.07 24 -20.14 24 21 24 C21 23.34 21 22.68 21 22 C21.66 21.34 22.32 20.68 23 20 C20.94766315 17.7522025 19.99332739 16.9977758 17 16 C17 15.34 17 14.68 17 14 C16.34 14 15.68 14 15 14 C15 13.34 15 12.68 15 12 C14.01 12 13.02 12 12 12 C10.28641357 10.38161281 8.6292274 8.70328319 7 7 C5.14014149 5.38374042 3.25395451 3.8049773 1.35546875 2.234375 C0.90816406 1.82703125 0.46085938 1.4196875 0 1 C0 0.67 0 0.34 0 0 Z " fill="#F09F46" transform="translate(617,646)"/>
<path d="M0 0 C2 1 2 1 3 3 C2.0409375 3.433125 2.0409375 3.433125 1.0625 3.875 C-1.15206079 4.82823451 -1.15206079 4.82823451 -2 7 C-4.71452896 8.24092752 -7.3652363 9.09833285 -10.25 9.875 C-11.1575 10.24625 -12.065 10.6175 -13 11 C-13.3721042 12.32303717 -13.70630173 13.65737935 -14 15 C-16.5 16.125 -16.5 16.125 -19 17 C-19.33 17.66 -19.66 18.32 -20 19 C-21.99508067 19.68124706 -23.99638693 20.34427209 -26 21 C-31.34735262 23.03221809 -31.34735262 23.03221809 -35 27 C-38.0625 27.625 -38.0625 27.625 -41 28 C-41 28.99 -41 29.98 -41 31 C-42.65 31 -44.3 31 -46 31 C-42.45401937 26.97685575 -38.25210191 24.56787996 -33.6875 21.875 C-25.27963257 16.82993883 -17.11671146 11.49748897 -9 6 C-7.18861547 4.78999513 -5.3763029 3.5813767 -3.5625 2.375 C-2.86253906 1.90835938 -2.16257812 1.44171875 -1.44140625 0.9609375 C-0.72791016 0.48527344 -0.72791016 0.48527344 0 0 Z " fill="#66B9C4" transform="translate(471,191)"/>
<path d="M0 0 C0.33 0 0.66 0 1 0 C1 30.69 1 61.38 1 93 C-10.25 89.625 -10.25 89.625 -14.625 87.8125 C-15.88183594 87.29623047 -15.88183594 87.29623047 -17.1640625 86.76953125 C-17.76992188 86.51558594 -18.37578125 86.26164063 -19 86 C-16.3260876 85.10869587 -13.76276177 84.52268466 -11 84 C-11.33 84.99 -11.66 85.98 -12 87 C-9.03 87.33 -6.06 87.66 -3 88 C-2.67 88.99 -2.34 89.98 -2 91 C-1.34 91 -0.68 91 0 91 C0 60.97 0 30.94 0 0 Z " fill="#F0DAAA" transform="translate(732,474)"/>
<path d="M0 0 C0.66 0 1.32 0 2 0 C3.01271717 17.26528638 3.12534891 34.50019341 3.06866455 51.78790283 C3.05822567 55.32213724 3.05382404 58.85637945 3.04882812 62.390625 C3.03827062 69.26043493 3.02132512 76.13021523 3 83 C2.67 83 2.34 83 2 83 C1.15492031 68.46877697 0.74440518 53.94941623 0.49731445 39.39648438 C0.43699021 35.84498689 0.37219976 32.29359188 0.30664062 28.7421875 C0.26537059 26.4505254 0.22434603 24.15885886 0.18359375 21.8671875 C0.16485703 20.82223114 0.1461203 19.77727478 0.1268158 18.70065308 C0.02168106 12.46639947 -0.02273314 6.23511446 0 0 Z " fill="#7CB9B9" transform="translate(730,211)"/>
<path d="M0 0 C0.66 0 1.32 0 2 0 C2.06993164 1.05574219 2.13986328 2.11148437 2.21191406 3.19921875 C3.72816108 25.76813996 5.42306529 48.00855513 10.6184082 70.08813477 C11.0836776 72.41924457 11.1528621 74.63063748 11 77 C9.68 76.34 8.36 75.68 7 75 C7.20625 74.195625 7.4125 73.39125 7.625 72.5625 C8.10287 68.02273504 7.14029296 64.37383801 6 60 C5.03146678 55.93216049 4.91796625 52.18372149 5 48 C4.34 47.67 3.68 47.34 3 47 C2.67 38.42 2.34 29.84 2 21 C1.34 21 0.68 21 0 21 C0 14.07 0 7.14 0 0 Z " fill="#B8C3B3" transform="translate(145,321)"/>
<path d="M0 0 C0.33 0 0.66 0 1 0 C1 29.04 1 58.08 1 88 C0.67 88 0.34 88 0 88 C-0.00808685 87.31539703 -0.01617371 86.63079407 -0.02450562 85.92544556 C-0.11035007 78.82054594 -0.20984415 71.71593183 -0.31738281 64.61132812 C-0.35574181 61.95740542 -0.39058226 59.30342949 -0.421875 56.64941406 C-0.46737536 52.8416029 -0.52539449 49.03416042 -0.5859375 45.2265625 C-0.60326431 43.43745956 -0.60326431 43.43745956 -0.62094116 41.61221313 C-0.64081085 40.51122284 -0.66068054 39.41023254 -0.68115234 38.27587891 C-0.69447601 37.30325104 -0.70779968 36.33062317 -0.7215271 35.32852173 C-0.77960304 32.80830518 -0.77960304 32.80830518 -3 31 C-2.01 29.515 -2.01 29.515 -1 28 C-0.63072954 24.9957293 -0.63072954 24.9957293 -0.5859375 21.58203125 C-0.54726563 20.32841797 -0.50859375 19.07480469 -0.46875 17.78320312 C-0.4378125 16.47287109 -0.406875 15.16253906 -0.375 13.8125 C-0.33680662 12.4771884 -0.29775409 11.14190108 -0.2578125 9.80664062 C-0.16340847 6.53790112 -0.07782983 3.26916936 0 0 Z " fill="#DDD1B1" transform="translate(732,386)"/>
<path d="M0 0 C2 1 2 1 2.62594604 2.80477905 C4.10880785 10.12613618 4.25852684 17.21087625 4.1953125 24.6640625 C4.19106766 26.5738942 4.19106766 26.5738942 4.18673706 28.52230835 C4.17749985 31.87274023 4.15959792 35.22288837 4.1373291 38.57324219 C4.1167025 42.00583472 4.10769976 45.43845682 4.09765625 48.87109375 C4.07570089 55.58080611 4.04230259 62.29038671 4 69 C3.67 69 3.34 69 3 69 C2.99191315 68.30731018 2.98382629 67.61462036 2.97549438 66.90093994 C2.88950935 59.69842002 2.79000808 52.49617723 2.68261719 45.29394531 C2.64321989 42.6051811 2.60863212 39.9164185 2.578125 37.22753906 C2.53251623 33.36504669 2.47451385 29.50291003 2.4140625 25.640625 C2.40251129 24.4363385 2.39096008 23.232052 2.37905884 21.99127197 C2.3492543 20.30998199 2.3492543 20.30998199 2.31884766 18.59472656 C2.29886215 17.11579926 2.29886215 17.11579926 2.2784729 15.60699463 C1.99193589 12.92450575 1.28900537 11.3353931 0 9 C-0.1953125 6.640625 -0.1953125 6.640625 -0.125 4.25 C-0.10695313 3.45078125 -0.08890625 2.6515625 -0.0703125 1.828125 C-0.04710937 1.22484375 -0.02390625 0.6215625 0 0 Z " fill="#55B5D1" transform="translate(728,52)"/>
<path d="M0 0 C2.38672669 2.96283313 4.7353371 5.94270509 7 9 C4.5625 8.625 4.5625 8.625 2 8 C1.67 7.34 1.34 6.68 1 6 C0.42378906 7.13695312 0.42378906 7.13695312 -0.1640625 8.296875 C-3.46803481 13.16144699 -8.58677533 15.05742566 -14 17 C-19.34691384 17.89991774 -24.59245821 18 -30 18 C-30 17.34 -30 16.68 -30 16 C-26.77668283 15.37106006 -23.97909926 15.00118306 -20.6875 15.1875 C-16.43752698 14.97139968 -13.68442682 13.74202225 -9.91796875 11.875 C-8 11 -8 11 -6 11 C-5.7525 10.484375 -5.505 9.96875 -5.25 9.4375 C-3.60418384 6.22815849 -1.8023904 3.12414336 0 0 Z " fill="#ECD8AF" transform="translate(266,439)"/>
<path d="M0 0 C0.33 0 0.66 0 1 0 C1.95788619 9.96439215 2.12238132 19.81683927 2.0625 29.8125 C2.05746824 31.29492034 2.05290834 32.77734236 2.04882812 34.25976562 C2.0379707 37.8398795 2.02080135 41.41992843 2 45 C1.67 45 1.34 45 1 45 C0.36374366 38.92147963 -0.12075847 32.98770425 0.16015625 26.875 C0.12283222 24.66221757 0.12283222 24.66221757 -2 22 C-2.1953125 19.08203125 -2.1953125 19.08203125 -2.125 15.8125 C-2.10695313 14.72582031 -2.08890625 13.63914062 -2.0703125 12.51953125 C-2.04710937 11.68808594 -2.02390625 10.85664063 -2 10 C-1.67 10 -1.34 10 -1 10 C-0.67 6.7 -0.34 3.4 0 0 Z " fill="#DADAC1" transform="translate(730,364)"/>
<path d="M0 0 C9.642412 8.00115038 18.55270013 16.89932084 26 27 C24.68 26.67 23.36 26.34 22 26 C21.67 26.66 21.34 27.32 21 28 C20.34 26.68 19.68 25.36 19 24 C18.01 24 17.02 24 16 24 C15.896875 23.38125 15.79375 22.7625 15.6875 22.125 C15.12474627 19.63473516 15.12474627 19.63473516 12 18 C12 16.33333333 12 14.66666667 12 13 C11.34 13 10.68 13 10 13 C8.14000715 11.0324413 6.46609802 8.94444402 4.75390625 6.84765625 C3.03994919 4.75201831 3.03994919 4.75201831 0 4 C0 2.68 0 1.36 0 0 Z " fill="#A8C8BE" transform="translate(108,282)"/>
<path d="M0 0 C0.99 1.485 0.99 1.485 2 3 C3.80895766 5.57766023 5.62464787 8.15048898 7.44140625 10.72265625 C9 13 9 13 10 15 C7.69 14.67 5.38 14.34 3 14 C3 23.24 3 32.48 3 42 C2.67 42 2.34 42 2 42 C1.97494385 41.2251123 1.9498877 40.45022461 1.92407227 39.65185547 C1.32786157 19.80613608 1.32786157 19.80613608 0 0 Z " fill="#CFC6A8" transform="translate(322,392)"/>
<path d="M0 0 C0.33 0.66 0.66 1.32 1 2 C0.67 2.99 0.34 3.98 0 5 C-1.15224555 19.73363157 2.8496246 32.56971012 8.14453125 46.171875 C9 49 9 49 8 52 C8 51.34 8 50.68 8 50 C7.01 49.67 6.02 49.34 5 49 C4.95101563 48.28972656 4.90203125 47.57945312 4.8515625 46.84765625 C4.77679688 45.92855469 4.70203125 45.00945312 4.625 44.0625 C4.55539062 43.14597656 4.48578125 42.22945313 4.4140625 41.28515625 C4.27742188 40.53105469 4.14078125 39.77695312 4 39 C3.34 38.67 2.68 38.34 2 38 C1.61531544 36.34443162 1.28990944 34.67476608 1 33 C0.75121094 32.25363281 0.50242187 31.50726563 0.24609375 30.73828125 C-1.78788336 24.63634992 -2.29649251 18.94180575 -2.3125 12.5625 C-2.31773682 11.78108643 -2.32297363 10.99967285 -2.32836914 10.19458008 C-2.28118806 6.34117983 -2.1828924 3.26129342 0 0 Z " fill="#CCCCB0" transform="translate(468,363)"/>
<path d="M0 0 C1.9375 0.5625 1.9375 0.5625 4 2 C4.75 5.625 4.75 5.625 5 9 C6.32 9.33 7.64 9.66 9 10 C9 11.32 9 12.64 9 14 C9.36843085 18.24694981 9.36843085 18.24694981 11.53125 21.765625 C13.5560354 24.84588364 13.29689398 27.10353413 13.1875 30.75 C13.16042969 31.92046875 13.13335938 33.0909375 13.10546875 34.296875 C13.07066406 35.18890625 13.03585937 36.0809375 13 37 C11.00281469 33.48073074 10.14623622 29.91653945 9.1875 26 C7.66020143 19.97973888 5.68097371 14.36970212 3.1484375 8.68359375 C1.92850341 5.83293144 0.94497286 2.95195649 0 0 Z " fill="#E6D4AF" transform="translate(539,417)"/>
<path d="M0 0 C6.01667507 3.00833754 10.87643531 7.10949524 15.9765625 11.453125 C19.38644591 14.32553325 22.89320959 17.04009588 26.453125 19.72265625 C26.96359375 20.14417969 27.4740625 20.56570313 28 21 C28 21.33 28 21.66 28 22 C25.69 22.33 23.38 22.66 21 23 C21.33 21.68 21.66 20.36 22 19 C20.5459375 18.3503125 20.5459375 18.3503125 19.0625 17.6875 C16 16 16 16 15 13 C14.01 13.33 13.02 13.66 12 14 C11.4225 13.05125 10.845 12.1025 10.25 11.125 C8.0444942 8.0617975 7.26246821 7.42732984 4 6 C1.75 4 1.75 4 0 2 C0 1.34 0 0.68 0 0 Z " fill="#EBAE64" transform="translate(589,624)"/>
<path d="M0 0 C0 1.32 0 2.64 0 4 C-0.99 4 -1.98 4 -3 4 C-3.33 4.99 -3.66 5.98 -4 7 C-7.37867647 9.46552067 -8.70558202 10 -13 10 C-13 10.66 -13 11.32 -13 12 C-15.30368736 13.06652192 -17.64018187 14.06421005 -20 15 C-20.66 14.67 -21.32 14.34 -22 14 C-2.98984772 0 -2.98984772 0 0 0 Z " fill="#64BFCC" transform="translate(495,176)"/>
<path d="M0 0 C5.28890036 -0.46713341 7.8869904 0.75248026 12.25 3.6875 C12.83483154 4.0781665 13.41966309 4.46883301 14.0222168 4.87133789 C16.02996591 6.22678363 18.0164985 7.6093162 20 9 C20.78777832 9.55107422 21.57555664 10.10214844 22.38720703 10.66992188 C24.86981717 12.41548432 27.34348842 14.17276144 29.8125 15.9375 C31.00504395 16.7886438 31.00504395 16.7886438 32.22167969 17.65698242 C32.9593457 18.19170166 33.69701172 18.7264209 34.45703125 19.27734375 C35.11678955 19.75421631 35.77654785 20.23108887 36.45629883 20.72241211 C38 22 38 22 39 24 C35.43906248 22.69897876 32.53673031 21.1515604 29.453125 18.953125 C28.6075 18.355 27.761875 17.756875 26.890625 17.140625 C26.01921875 16.51671875 25.1478125 15.8928125 24.25 15.25 C20.83895382 12.82528042 17.42263967 10.40832753 14 8 C12.77700195 7.13084961 12.77700195 7.13084961 11.52929688 6.24414062 C10.75134766 5.70466797 9.97339844 5.16519531 9.171875 4.609375 C8.48706055 4.12952148 7.80224609 3.64966797 7.09667969 3.15527344 C4.73896996 1.85617208 2.64927279 1.39860406 0 1 C0 0.67 0 0.34 0 0 Z " fill="#0A0A0A" transform="translate(490,537)"/>
<path d="M0 0 C1.65 0 3.3 0 5 0 C5 0.66 5 1.32 5 2 C6.299375 1.938125 6.299375 1.938125 7.625 1.875 C11.14991551 2.00555243 13.71715027 2.75981233 17 4 C20.71530327 5.23843442 23.84323358 4.98226015 27.72265625 4.83984375 C30 5 30 5 32 7 C34.26274788 6.64644564 35.95088852 6.02455574 38 5 C38.495 6.98 38.495 6.98 39 9 C25.40195571 9.74171151 12.36115552 6.43890843 0 1 C0 0.67 0 0.34 0 0 Z " fill="#D9CFB0" transform="translate(440,410)"/>
<path d="M0 0 C2.97 0.495 2.97 0.495 6 1 C6 1.66 6 2.32 6 3 C4.35 3 2.7 3 1 3 C1.33 20.16 1.66 37.32 2 55 C1.34 55 0.68 55 0 55 C0 36.85 0 18.7 0 0 Z " fill="#9ED7D3" transform="translate(21,235)"/>
<path d="M0 0 C10.01776145 1.15167695 18.87714661 11.39876971 26 18 C25.01 18.33 24.02 18.66 23 19 C23 18.34 23 17.68 23 17 C22.01 16.67 21.02 16.34 20 16 C20 15.34 20 14.68 20 14 C19.01 14.33 18.02 14.66 17 15 C15 14 15 14 13 11 C12.34 10.67 11.68 10.34 11 10 C9.27618775 8.35454285 7.66852338 6.63644499 6.0625 4.875 C3.95217459 2.95652235 2.77687133 2.3966959 0 2 C0 1.34 0 0.68 0 0 Z " fill="#86BBB5" transform="translate(70,251)"/>
<path d="M0 0 C0.66 0 1.32 0 2 0 C2 0.66 2 1.32 2 2 C3.56159059 2.48212214 5.12431928 2.96055873 6.6875 3.4375 C7.55761719 3.70433594 8.42773438 3.97117187 9.32421875 4.24609375 C11.99180249 5.04168425 11.99180249 5.04168425 14.7421875 5.5078125 C17.45219079 6.09857446 18.07585359 7.07585359 20 9 C22.99615946 10.3045656 22.99615946 10.3045656 26 11 C26.66 10.67 27.32 10.34 28 10 C28 10.66 28 11.32 28 12 C28.66 12 29.32 12 30 12 C30.33 12.99 30.66 13.98 31 15 C26.26903917 14.32414845 22.25551664 12.50580538 17.9375 10.5625 C17.23044922 10.24990234 16.52339844 9.93730469 15.79492188 9.61523438 C13.05112171 8.39662641 10.33712981 7.17621407 7.67578125 5.78515625 C5.40682121 4.72207707 3.46956951 4.86280169 1 5 C1 4.01 1 3.02 1 2 C0.34 1.67 -0.32 1.34 -1 1 C-0.67 0.67 -0.34 0.34 0 0 Z " fill="#F3D7A2" transform="translate(672,540)"/>
<path d="M0 0 C0.66 0 1.32 0 2 0 C2.625 2.8125 2.625 2.8125 3 6 C2.01 7.485 2.01 7.485 1 9 C0.34 8.34 -0.32 7.68 -1 7 C-1.63164062 7.28875 -2.26328125 7.5775 -2.9140625 7.875 C-10.74462762 11.12457169 -17.5892742 11.44202355 -26 11 C-26 10.67 -26 10.34 -26 10 C-24.94941406 9.92523438 -23.89882812 9.85046875 -22.81640625 9.7734375 C-14.33819818 9.03049654 -7.43714566 8.15290806 -1 2 C-0.67 1.34 -0.34 0.68 0 0 Z " fill="#DBCFAB" transform="translate(209,418)"/>
<path d="M0 0 C0.66 0.33 1.32 0.66 2 1 C2.26953125 3.28125 2.26953125 3.28125 2 6 C0.13671875 7.84375 0.13671875 7.84375 -2.3125 9.5 C-5.80747512 12.01132647 -8.17684252 13.98905354 -10 18 C-11.32 17.67 -12.64 17.34 -14 17 C-13.39671875 16.33613281 -12.7934375 15.67226563 -12.171875 14.98828125 C-11.37265625 14.10527344 -10.5734375 13.22226562 -9.75 12.3125 C-8.96109375 11.44238281 -8.1721875 10.57226562 -7.359375 9.67578125 C-3.24798337 5.14081974 -3.24798337 5.14081974 0 0 Z " fill="#EFDAAF" transform="translate(321,440)"/>
<path d="M0 0 C6.86779738 4.21264461 13.55974843 8.67110353 20.1875 13.25 C20.95441162 13.76916992 21.72132324 14.28833984 22.51147461 14.82324219 C23.22311768 15.31985352 23.93476074 15.81646484 24.66796875 16.328125 C25.31016357 16.7705957 25.9523584 17.21306641 26.61401367 17.66894531 C27.07138916 18.10819336 27.52876465 18.54744141 28 19 C28 19.99 28 20.98 28 22 C23.05722364 18.52429748 18.1205081 15.04016464 13.18945312 11.54785156 C11.27028824 10.19108245 9.34670279 8.84089902 7.421875 7.4921875 C6.43703125 6.79351562 5.4521875 6.09484375 4.4375 5.375 C3.56996094 4.76398438 2.70242187 4.15296875 1.80859375 3.5234375 C1.21175781 3.02070313 0.61492187 2.51796875 0 2 C0 1.34 0 0.68 0 0 Z " fill="#080808" transform="translate(207,144)"/>
<path d="M0 0 C0.33 0 0.66 0 1 0 C1 5.61 1 11.22 1 17 C-5.85759508 15.04068712 -12.42321498 12.75665244 -19 10 C-16.3260876 9.10869587 -13.76276177 8.52268466 -11 8 C-11.33 8.99 -11.66 9.98 -12 11 C-9.03 11.33 -6.06 11.66 -3 12 C-2.67 12.99 -2.34 13.98 -2 15 C-1.34 15 -0.68 15 0 15 C0 10.05 0 5.1 0 0 Z " fill="#EFD298" transform="translate(732,550)"/>
<path d="M0 0 C2 2 2 2 2.22705078 4.98095703 C2.21657715 6.22731934 2.20610352 7.47368164 2.1953125 8.7578125 C2.1924826 9.42086395 2.18965271 10.08391541 2.18673706 10.76705933 C2.17553435 12.88655583 2.15043051 15.00563104 2.125 17.125 C2.11497028 18.56119182 2.10584441 19.99739025 2.09765625 21.43359375 C2.075595 24.95586628 2.04106494 28.47789203 2 32 C1.67 32 1.34 32 1 32 C0.25109328 26.11573288 -0.23823278 20.22997481 -0.625 14.3125 C-0.67712646 13.58812744 -0.72925293 12.86375488 -0.78295898 12.11743164 C-1.04197288 7.9109881 -0.87032266 4.12429021 0 0 Z " fill="#C4D3C6" transform="translate(730,320)"/>
<path d="M0 0 C3.51997625 1.61918908 5.55759766 3.56805032 8.125 6.4375 C6.54090006 6.32262252 4.95771037 6.19515492 3.375 6.0625 C2.49328125 5.99289062 1.6115625 5.92328125 0.703125 5.8515625 C-1.86566382 5.43899945 -3.63341015 4.72589043 -5.875 3.4375 C-5.875 2.7775 -5.875 2.1175 -5.875 1.4375 C-2.875 -0.5625 -2.875 -0.5625 0 0 Z " fill="#F09C48" transform="translate(643.875,666.5625)"/>
<path d="M0 0 C1.98 0.99 1.98 0.99 4 2 C4 2.66 4 3.32 4 4 C4.66 4 5.32 4 6 4 C6 4.66 6 5.32 6 6 C6.66 6 7.32 6 8 6 C8.33 6.99 8.66 7.98 9 9 C9.99 9.33 10.98 9.66 12 10 C13.02019573 10.9793879 14.02149805 11.97895449 15 13 C15.66 13.33 16.32 13.66 17 14 C17 14.66 17 15.32 17 16 C9.20788553 13.40262851 4.28256416 8.87805759 0 2 C0 1.34 0 0.68 0 0 Z " fill="#F8BF78" transform="translate(24,654)"/>
<path d="M0 0 C0.66 0.33 1.32 0.66 2 1 C2 1.66 2 2.32 2 3 C1.34 3 0.68 3 0 3 C0.34786708 4.97536745 0.34786708 4.97536745 1 7 C1.66 7.33 2.32 7.66 3 8 C2.67 9.32 2.34 10.64 2 12 C-0.97 10.02 -3.94 8.04 -7 6 C-2.25 1.125 -2.25 1.125 0 0 Z " fill="#7BB8BA" transform="translate(384,247)"/>
<path d="M0 0 C2.01530728 2.01530728 2.7246619 3.347519 3.83984375 5.921875 C4.18080078 6.70046875 4.52175781 7.4790625 4.87304688 8.28125 C5.22431641 9.0959375 5.57558594 9.910625 5.9375 10.75 C8.17598109 15.89975242 10.42942464 21.00389742 13 26 C9.32975239 24.77658413 8.6393158 23.16485941 6.8515625 19.85546875 C5.81881281 17.60521141 5.29747995 15.45420959 5 13 C4.01 12.67 3.02 12.34 2 12 C1.33333333 8 0.66666667 4 0 0 Z " fill="#E5D4AC" transform="translate(342,434)"/>
<path d="M0 0 C3.7910119 1.44950455 7.3874638 3.15172566 11 5 C10.690625 5.886875 10.38125 6.77375 10.0625 7.6875 C8.42489586 13.30877947 8.33225589 19.18552198 8 25 C7.67 25 7.34 25 7 25 C6.97301578 22.56242587 6.95316901 20.12515085 6.9375 17.6875 C6.92912109 16.99720703 6.92074219 16.30691406 6.91210938 15.59570312 C6.89692094 12.4516975 6.99806673 10.00579981 8 7 C7.34 7 6.68 7 6 7 C1.34090909 2.68181818 1.34090909 2.68181818 0 0 Z " fill="#DCD1AE" transform="translate(334,409)"/>
<path d="M0 0 C0.70125 0.721875 1.4025 1.44375 2.125 2.1875 C7.7160639 7.71609391 12.68912275 11.09189549 20 14 C18.125 15.0625 18.125 15.0625 16 16 C15.34 15.67 14.68 15.34 14 15 C14 14.34 14 13.68 14 13 C13.13375 12.79375 12.2675 12.5875 11.375 12.375 C7.69148224 10.87430758 5.9810915 9.25417747 3.39453125 6.33984375 C1.925718 4.73677311 1.925718 4.73677311 -1 4 C-0.67 2.68 -0.34 1.36 0 0 Z " fill="#DDD0AF" transform="translate(162,413)"/>
<path d="M0 0 C0.66 0.33 1.32 0.66 2 1 C-0.36292656 3.52588702 -1.66462511 4.88820837 -5 6 C-5.33 6.66 -5.66 7.32 -6 8 C-9.0625 8.625 -9.0625 8.625 -12 9 C-12 9.99 -12 10.98 -12 12 C-13.65 12 -15.3 12 -17 12 C-13.84679051 8.55942906 -10.33207412 6.10325842 -6.375 3.6875 C-5.49714844 3.1296582 -5.49714844 3.1296582 -4.6015625 2.56054688 C-3.10691202 1.64010271 -1.55636473 0.81174279 0 0 Z " fill="#65B1B8" transform="translate(442,210)"/>
<path d="M0 0 C0.33 1.32 0.66 2.64 1 4 C2.12019531 4.04898437 3.24039062 4.09796875 4.39453125 4.1484375 C5.86721203 4.22347856 7.33986707 4.29902582 8.8125 4.375 C9.55048828 4.4059375 10.28847656 4.436875 11.04882812 4.46875 C14.81893115 4.67346148 16.79650741 4.86433827 20 7 C20 7.66 20 8.32 20 9 C19.0925 8.690625 18.185 8.38125 17.25 8.0625 C12.72605794 6.74068977 8.1620075 6.5309409 3.4765625 6.24609375 C1 6 1 6 0 5 C-0.04063832 3.33382885 -0.042721 1.66611905 0 0 Z " fill="#D6DAC3" transform="translate(383,381)"/>
<path d="M0 0 C0.99 0.495 0.99 0.495 2 1 C4.00086026 7.2248986 4.20894383 13.52274137 4 20 C3.34 19.67 2.68 19.34 2 19 C2.04125 18.0925 2.0825 17.185 2.125 16.25 C2.23802828 13.12152051 2.23802828 13.12152051 1 11.09375 C-0.17640102 8.63066037 -0.20474158 6.96121363 -0.125 4.25 C-0.10695313 3.45078125 -0.08890625 2.6515625 -0.0703125 1.828125 C-0.04710937 1.22484375 -0.02390625 0.6215625 0 0 Z " fill="#58BED8" transform="translate(728,52)"/>
<path d="M0 0 C0.33 0 0.66 0 1 0 C1.10957031 0.78503906 1.21914063 1.57007813 1.33203125 2.37890625 C2.2380192 8.38199715 3.28076713 13.56153426 6 19 C3 18 3 18 1.83203125 15.70703125 C-1.63862585 5.85355649 -1.63862585 5.85355649 -1 1 C-0.67 0.67 -0.34 0.34 0 0 Z " fill="#070707" transform="translate(358,429)"/>
<path d="M0 0 C3.1702477 0.59314871 4.98966826 1.54730355 7.41796875 3.65234375 C8.33932617 4.44608398 8.33932617 4.44608398 9.27929688 5.25585938 C10.22385742 6.08827148 10.22385742 6.08827148 11.1875 6.9375 C11.82880859 7.48857422 12.47011719 8.03964844 13.13085938 8.60742188 C17.85763889 12.71527778 17.85763889 12.71527778 19 15 C15.35752143 13.40212025 12.55600321 11.15207958 9.5 8.625 C8.5615625 7.85414063 7.623125 7.08328125 6.65625 6.2890625 C4.32414804 4.27933934 2.14005986 2.21072222 0 0 Z " fill="#0D0D0D" transform="translate(304,225)"/>
<path d="M0 0 C5.0530055 1.15798043 8.74547038 2.91088009 13.06640625 5.7578125 C15.60833368 7.3908083 18.27352651 8.70492509 21 10 C18 11 18 11 16.11474609 10.3190918 C15.42461426 9.94953369 14.73448242 9.57997559 14.0234375 9.19921875 C13.270625 8.79896484 12.5178125 8.39871094 11.7421875 7.98632812 C10.96101562 7.55771484 10.17984375 7.12910156 9.375 6.6875 C8.58609375 6.27048828 7.7971875 5.85347656 6.984375 5.42382812 C1.13705633 2.27411265 1.13705633 2.27411265 0 0 Z " fill="#050505" transform="translate(661,657)"/>
<path d="M0 0 C0.33 0 0.66 0 1 0 C1.50643553 2.22771342 2.0048962 4.45724076 2.5 6.6875 C2.7784375 7.92886719 3.056875 9.17023438 3.34375 10.44921875 C3.89354126 13.42398218 4.13795705 15.99368602 4 19 C2.68 18.34 1.36 17.68 0 17 C0.20625 16.21625 0.4125 15.4325 0.625 14.625 C1.05955718 10.42428062 0.34933727 7.14816647 -0.625 3.07421875 C-0.74875 2.38972656 -0.8725 1.70523437 -1 1 C-0.67 0.67 -0.34 0.34 0 0 Z " fill="#D1CFB8" transform="translate(152,379)"/>
<path d="M0 0 C4.20626034 1.50223584 5.73900021 4.28550034 8 8 C5.69 7.67 3.38 7.34 1 7 C0.67 4.69 0.34 2.38 0 0 Z " fill="#DED5B7" transform="translate(324,399)"/>
<path d="M0 0 C0.66 0.33 1.32 0.66 2 1 C-1.14774806 5.65866713 -3.79778526 7.26592842 -9 9 C-9.66 8.67 -10.32 8.34 -11 8 C-7.37 5.36 -3.74 2.72 0 0 Z " fill="#5DB0BE" transform="translate(484,182)"/>
<path d="M0 0 C0.680625 0.70125 1.36125 1.4025 2.0625 2.125 C5.20780513 5.27934337 8.5888386 8.13934304 12 11 C10 12 10 12 8.125 11.9375 C4.91428917 10.52100993 3.84048267 7.90915003 2 5 C1.01 4.34 0.02 3.68 -1 3 C-0.67 2.01 -0.34 1.02 0 0 Z " fill="#E8D7B1" transform="translate(217,439)"/>
<path d="M0 0 C0.66 0 1.32 0 2 0 C2.625 2.8125 2.625 2.8125 3 6 C2.01 7.485 2.01 7.485 1 9 C0.34 8.34 -0.32 7.68 -1 7 C-3.10820797 7.3185177 -3.10820797 7.3185177 -5 8 C-4.67 7.34 -4.34 6.68 -4 6 C-3.34 6 -2.68 6 -2 6 C-1.7834375 5.071875 -1.7834375 5.071875 -1.5625 4.125 C-1 2 -1 2 0 0 Z " fill="#E5D7B3" transform="translate(209,418)"/>
<path d="M0 0 C0.33 0.66 0.66 1.32 1 2 C0.34 2 -0.32 2 -1 2 C-1.37318359 2.90298828 -1.37318359 2.90298828 -1.75390625 3.82421875 C-3.19326404 6.33745477 -4.48828539 7.30283513 -6.9375 8.8125 C-7.62714844 9.25207031 -8.31679687 9.69164062 -9.02734375 10.14453125 C-11 11 -11 11 -14 10 C-13.24074219 9.52949219 -12.48148438 9.05898438 -11.69921875 8.57421875 C-10.70535156 7.95160156 -9.71148437 7.32898438 -8.6875 6.6875 C-7.20830078 5.76517578 -7.20830078 5.76517578 -5.69921875 4.82421875 C-3.49827965 3.33675339 -1.76671012 1.9596614 0 0 Z " fill="#FDF8EA" transform="translate(210,416)"/>
<path d="M0 0 C0.66 0 1.32 0 2 0 C2 0.66 2 1.32 2 2 C2.99 2.33 3.98 2.66 5 3 C6.7529462 6.57331341 8.21769326 10.08846628 9 14 C5.15237434 10.5798883 2.39365978 6.53225744 0 2 C0 1.34 0 0.68 0 0 Z " fill="#C9CCB3" transform="translate(518,384)"/>
<path d="M0 0 C0 0.66 0 1.32 0 2 C-1.97946592 3.36363208 -3.9819245 4.69418644 -6 6 C-6.53625 6.598125 -7.0725 7.19625 -7.625 7.8125 C-8.07875 8.204375 -8.5325 8.59625 -9 9 C-11.0859375 8.57421875 -11.0859375 8.57421875 -13 8 C-11.2126038 6.66094733 -9.41995047 5.32890934 -7.625 4 C-6.62726562 3.2575 -5.62953125 2.515 -4.6015625 1.75 C-2 0 -2 0 0 0 Z " fill="#55ABBF" transform="translate(524,156)"/>
<path d="M0 0 C-1.78809697 1.17213045 -3.58059125 2.33755526 -5.375 3.5 C-6.37273438 4.1496875 -7.37046875 4.799375 -8.3984375 5.46875 C-11 7 -11 7 -13 7 C-12.67 6.01 -12.34 5.02 -12 4 C-11.01 4 -10.02 4 -9 4 C-8.731875 3.360625 -8.46375 2.72125 -8.1875 2.0625 C-6.08556352 -1.58823178 -3.58713791 -1.1132497 0 0 Z " fill="#DDFBFC" transform="translate(637,82)"/>
<path d="M0 0 C4.83540096 2.61111652 8.87103901 5.37457083 13 9 C10 9 10 9 7.9375 7.9375 C6.9784375 7.4734375 6.9784375 7.4734375 6 7 C5.01 7.495 5.01 7.495 4 8 C3.71125 7.195625 3.4225 6.39125 3.125 5.5625 C2.26737432 2.8673532 2.26737432 2.8673532 0 2 C0 1.34 0 0.68 0 0 Z " fill="#EAB877" transform="translate(576,614)"/>
<path d="M0 0 C4.36109605 0.50710419 7.45075299 1.36341651 11 4 C11.33 4.99 11.66 5.98 12 7 C7.39104317 5.68315519 3.85859765 3.84801255 0 1 C0 0.67 0 0.34 0 0 Z " fill="#D5D1B6" transform="translate(422,400)"/>
<path d="M0 0 C4.52615993 3.67832017 8.39424999 7.41086363 12 12 C8.16867684 10.43909056 5.8924866 7.8924866 3 5 C2.01 4.67 1.02 4.34 0 4 C0 2.68 0 1.36 0 0 Z " fill="#99B9B1" transform="translate(108,282)"/>
<path d="M0 0 C0 2 0 2 -1.125 3.5625 C-3.63946978 5.49026016 -5.89545967 5.65505107 -9 6 C-6.97377245 1.32409027 -5.29661848 0 0 0 Z " fill="#5CB8D1" transform="translate(550,140)"/>
<path d="M0 0 C-0.33 0.99 -0.66 1.98 -1 3 C-1.66 3 -2.32 3 -3 3 C-3.99 4.485 -3.99 4.485 -5 6 C-5.99 6.66 -6.98 7.32 -8 8 C-8.99 7.34 -9.98 6.68 -11 6 C-9.54550599 4.9944239 -8.08627557 3.99569565 -6.625 3 C-5.40683594 2.1646875 -5.40683594 2.1646875 -4.1640625 1.3125 C-2 0 -2 0 0 0 Z " fill="#4EADC2" transform="translate(612,98)"/>
<path d="M0 0 C5.75 3.625 5.75 3.625 8 7 C7.01 7 6.02 7 5 7 C5 6.34 5 5.68 5 5 C4.01 5.33 3.02 5.66 2 6 C2 5.01 2 4.02 2 3 C1.01 3.33 0.02 3.66 -1 4 C-1.33 3.01 -1.66 2.02 -2 1 C-1.34 0.67 -0.68 0.34 0 0 Z " fill="#ADC6BC" transform="translate(135,310)"/>
<path d="M0 0 C3.87990465 1.12086134 6.28003781 2.03276853 9 5 C11.09989652 6.17574711 11.09989652 6.17574711 13 7 C12.01 7.33 11.02 7.66 10 8 C7.51953125 6.6015625 7.51953125 6.6015625 4.8125 4.625 C3.91144531 3.97789062 3.01039063 3.33078125 2.08203125 2.6640625 C1.39496094 2.11492187 0.70789063 1.56578125 0 1 C0 0.67 0 0.34 0 0 Z " fill="#F0D9A7" transform="translate(576,484)"/>
<path d="M0 0 C1.12894876 0.93274109 2.25300876 1.87140122 3.375 2.8125 C4.00148438 3.33457031 4.62796875 3.85664063 5.2734375 4.39453125 C7 6 7 6 9 9 C6.75 8.875 6.75 8.875 4 8 C0 2.91891892 0 2.91891892 0 0 Z " fill="#8CBEB0" transform="translate(98,272)"/>
<path d="M0 0 C3.3 0.33 6.6 0.66 10 1 C10 1.99 10 2.98 10 4 C6.53058454 3.54177532 3.32604951 3.10868317 0 2 C0 1.34 0 0.68 0 0 Z " fill="#F4B266" transform="translate(42,669)"/>
<path d="M0 0 C3 1 3 1 4 3 C4.99 3.33 5.98 3.66 7 4 C7 4.66 7 5.32 7 6 C8.32 6.66 9.64 7.32 11 8 C7.36804504 8 6.25286089 7.04546845 3.3125 5 C2.50425781 4.443125 1.69601562 3.88625 0.86328125 3.3125 C0.24839844 2.879375 -0.36648438 2.44625 -1 2 C-0.67 1.34 -0.34 0.68 0 0 Z " fill="#FEFAE9" transform="translate(513,567)"/>
<path d="M0 0 C2.97526665 2.55022856 4.50122302 5.40293526 6 9 C5.67 9.99 5.34 10.98 5 12 C4.15885829 10.56705502 3.32734313 9.12845595 2.5 7.6875 C1.80390625 6.48673828 1.80390625 6.48673828 1.09375 5.26171875 C0 3 0 3 0 0 Z " fill="#101010" transform="translate(108,229)"/>
<path d="M0 0 C4.43458973 1.3937282 6.87378374 3.60582235 10 7 C9.01 7 8.02 7 7 7 C7 6.34 7 5.68 7 5 C4.69 5 2.38 5 0 5 C0.66 4.67 1.32 4.34 2 4 C1.34 2.68 0.68 1.36 0 0 Z " fill="#F0C183" transform="translate(563,605)"/>
<path d="M0 0 C1.91635217 -0.05423638 3.83314925 -0.09289963 5.75 -0.125 C7.35101563 -0.15980469 7.35101563 -0.15980469 8.984375 -0.1953125 C11.92470106 -0.00487687 13.52361878 0.47329896 16 2 C15.67 2.66 15.34 3.32 15 4 C10.05 3.01 5.1 2.02 0 1 C0 0.67 0 0.34 0 0 Z " fill="#DFF8F9" transform="translate(24,234)"/>
<path d="M0 0 C2.25 0.25 2.25 0.25 4 1 C2.25 3.0625 2.25 3.0625 0 5 C-2.25 4.75 -2.25 4.75 -4 4 C-2.25 1.9375 -2.25 1.9375 0 0 Z " fill="#58B4CC" transform="translate(561,130)"/>
<path d="M0 0 C1.65 0 3.3 0 5 0 C5.33 0.99 5.66 1.98 6 3 C8.00016466 4.20882096 8.00016466 4.20882096 10 5 C10 5.66 10 6.32 10 7 C5.56541027 5.6062718 3.12621626 3.39417765 0 0 Z " fill="#F4B66C" transform="translate(31,663)"/>
<path d="M0 0 C0.99 0.66 1.98 1.32 3 2 C3.680625 2.309375 4.36125 2.61875 5.0625 2.9375 C7 4 7 4 9 7 C4.49197399 5.74194623 1.5087188 4.09592835 -2 1 C-1.34 0.67 -0.68 0.34 0 0 Z " fill="#F4DAA9" transform="translate(643,524)"/>
<path d="M0 0 C0 0.66 0 1.32 0 2 C4.62 2 9.24 2 14 2 C14 2.33 14 2.66 14 3 C11.37472811 3.05382106 8.75055287 3.09358313 6.125 3.125 C5.37863281 3.14175781 4.63226563 3.15851563 3.86328125 3.17578125 C1.90805539 3.1933959 -0.04742021 3.10320189 -2 3 C-2.66 2.34 -3.32 1.68 -4 1 C-2 0 -2 0 0 0 Z " fill="#FEFDED" transform="translate(288,455)"/>
<path d="M0 0 C1.921875 0.6796875 1.921875 0.6796875 4 2 C4.828125 4.3828125 4.828125 4.3828125 5.25 7.125 C5.39953125 8.03507812 5.5490625 8.94515625 5.703125 9.8828125 C5.80109375 10.58148438 5.8990625 11.28015625 6 12 C0 4.23529412 0 4.23529412 0 0 Z " fill="#D7D2AF" transform="translate(539,417)"/>
<path d="M0 0 C2.31 0.33 4.62 0.66 7 1 C7 2.32 7 3.64 7 5 C7.66 5 8.32 5 9 5 C8.67 5.66 8.34 6.32 8 7 C6.66382648 6.02471263 5.3311249 5.04466681 4 4.0625 C3.2575 3.51722656 2.515 2.97195313 1.75 2.41015625 C1.1725 1.94480469 0.595 1.47945312 0 1 C0 0.67 0 0.34 0 0 Z " fill="#FDF7E0" transform="translate(593,626)"/>
<path d="M0 0 C1.65 0 3.3 0 5 0 C5 0.66 5 1.32 5 2 C5.66 2 6.32 2 7 2 C8.625 4.5 8.625 4.5 10 7 C5.56541027 5.6062718 3.12621626 3.39417765 0 0 Z " fill="#FDF7E2" transform="translate(561,602)"/>
<path d="M0 0 C3.3 0.99 6.6 1.98 10 3 C9.67 3.99 9.34 4.98 9 6 C8.1646875 5.566875 8.1646875 5.566875 7.3125 5.125 C4.91505355 3.9586747 2.48403061 2.9660119 0 2 C0 1.34 0 0.68 0 0 Z " fill="#F5DAA6" transform="translate(413,531)"/>
<path d="M0 0 C2.18975773 3.28463659 2.99806563 6.20696275 4 10 C2.35 9.67 0.7 9.34 -1 9 C-0.67 6.03 -0.34 3.06 0 0 Z " fill="#D8D5B4" transform="translate(157,401)"/>
<path d="M0 0 C0.8125 1.6875 0.8125 1.6875 1 4 C-1.1613627 6.51185394 -3.01962439 8.50981219 -6 10 C-6.66 9.34 -7.32 8.68 -8 8 C-7.50628906 7.59007812 -7.01257813 7.18015625 -6.50390625 6.7578125 C-5.86324219 6.21898437 -5.22257812 5.68015625 -4.5625 5.125 C-3.92441406 4.59132813 -3.28632813 4.05765625 -2.62890625 3.5078125 C-0.89194996 2.0777243 -0.89194996 2.0777243 0 0 Z " fill="#8EBAB3" transform="translate(391,275)"/>
<path d="M0 0 C0.66 0.33 1.32 0.66 2 1 C1.4375 2.9375 1.4375 2.9375 0 5 C-3.625 5.75 -3.625 5.75 -7 6 C-4.74259377 3.66475218 -2.7194239 1.81294927 0 0 Z " fill="#75B5BD" transform="translate(393,241)"/>
<path d="M0 0 C0.66 0.33 1.32 0.66 2 1 C1.34 1.66 0.68 2.32 0 3 C0.66 3.33 1.32 3.66 2 4 C0.02 4.66 -1.96 5.32 -4 6 C-4.66 5.34 -5.32 4.68 -6 4 C-4.02 2.68 -2.04 1.36 0 0 Z " fill="#79B6C1" transform="translate(401,236)"/>
<path d="M0 0 C0.66 0.33 1.32 0.66 2 1 C1.4375 2.9375 1.4375 2.9375 0 5 C-3.625 5.75 -3.625 5.75 -7 6 C-4.74259377 3.66475218 -2.7194239 1.81294927 0 0 Z " fill="#57ABBD" transform="translate(509,165)"/>
<path d="M0 0 C0.66 0.33 1.32 0.66 2 1 C2 2.65 2 4.3 2 6 C1.34 6 0.68 6 0 6 C-0.33 7.32 -0.66 8.64 -1 10 C-1.02689216 8.52093108 -1.04634621 7.04172517 -1.0625 5.5625 C-1.07410156 4.73878906 -1.08570313 3.91507812 -1.09765625 3.06640625 C-1 1 -1 1 0 0 Z " fill="#252525" transform="translate(309,411)"/>
<path d="M0 0 C0 1.32 0 2.64 0 4 C-0.99 4 -1.98 4 -3 4 C-3.33 4.99 -3.66 5.98 -4 7 C-4.66 5.68 -5.32 4.36 -6 3 C-2.25 0 -2.25 0 0 0 Z " fill="#5EB5C2" transform="translate(495,176)"/>
<path d="M0 0 C1.98 0.495 1.98 0.495 4 1 C2 3 2 3 -1 5 C-0.67 3.35 -0.34 1.7 0 0 Z M-4 4 C-3.01 4.33 -2.02 4.66 -1 5 C-1.66 5.66 -2.32 6.32 -3 7 C-3.66 6.34 -4.32 5.68 -5 5 C-4.67 4.67 -4.34 4.34 -4 4 Z " fill="#5BBBD7" transform="translate(613,96)"/>
<path d="M0 0 C6.52307692 1.47692308 6.52307692 1.47692308 8.9375 4.125 C9.288125 4.74375 9.63875 5.3625 10 6 C6.00452264 5.38531118 3.22493358 3.34540624 0 1 C0 0.67 0 0.34 0 0 Z " fill="#F1DBAB" transform="translate(606,504)"/>
<path d="M0 0 C2.11635213 2.57642867 3.67339287 4.62505968 4 8 C3.01 9.485 3.01 9.485 2 11 C0.57741188 7.17679443 -0.24042276 4.08718695 0 0 Z " fill="#ECD9AD" transform="translate(552,454)"/>
<path d="M0 0 C-0.99 1.485 -0.99 1.485 -2 3 C-2.33 2.67 -2.66 2.34 -3 2 C-4.84891946 1.76636119 -6.70488031 1.58696365 -8.5625 1.4375 C-9.57441406 1.35371094 -10.58632813 1.26992188 -11.62890625 1.18359375 C-12.80259766 1.09271484 -12.80259766 1.09271484 -14 1 C-14 0.67 -14 0.34 -14 0 C-12.2300132 -0.19532961 -10.45895721 -0.38098882 -8.6875 -0.5625 C-7.70136719 -0.66691406 -6.71523438 -0.77132813 -5.69921875 -0.87890625 C-3 -1 -3 -1 0 0 Z " fill="#F0DEB9" transform="translate(305,458)"/>
<path d="M0 0 C1.258125 -0.04125 2.51625 -0.0825 3.8125 -0.125 C4.52019531 -0.14820313 5.22789062 -0.17140625 5.95703125 -0.1953125 C8 0 8 0 11 2 C11 2.66 11 3.32 11 4 C7.37 3.01 3.74 2.02 0 1 C0 0.67 0 0.34 0 0 Z " fill="#CDCFB6" transform="translate(392,386)"/>
<path d="M0 0 C1.11375 0.433125 2.2275 0.86625 3.375 1.3125 C3.705 2.3025 4.035 3.2925 4.375 4.3125 C0.745 3.3225 -2.885 2.3325 -6.625 1.3125 C-3.625 -0.6875 -3.625 -0.6875 0 0 Z " fill="#E6FCFD" transform="translate(49.625,237.6875)"/>
<path d="M0 0 C-3.63 1.98 -7.26 3.96 -11 6 C-8.56528347 1.13056693 -5.58424025 -1.86141342 0 0 Z " fill="#E0FAFB" transform="translate(411,231)"/>
<path d="M0 0 C1.9375 0.6875 1.9375 0.6875 4 2 C4.75 4.625 4.75 4.625 5 7 C4.34 7 3.68 7 3 7 C0 2.61538462 0 2.61538462 0 0 Z " fill="#CAD0BC" transform="translate(507,366)"/>
<path d="M0 0 C2.97 0.495 2.97 0.495 6 1 C6 1.66 6 2.32 6 3 C4.35 3 2.7 3 1 3 C0.67 4.32 0.34 5.64 0 7 C0 4.69 0 2.38 0 0 Z " fill="#8DCFD2" transform="translate(21,235)"/>
<path d="M0 0 C-1.98 1.32 -3.96 2.64 -6 4 C-6.66 3.67 -7.32 3.34 -8 3 C-7.67 2.01 -7.34 1.02 -7 0 C-4.05610218 -1.17755913 -3.10046087 -1.03348696 0 0 Z " fill="#5DBDD0" transform="translate(532,154)"/>
<path d="M0 0 C0.66 0.33 1.32 0.66 2 1 C0.875 2.9375 0.875 2.9375 -1 5 C-4.1875 5.75 -4.1875 5.75 -7 6 C-4.74259377 3.66475218 -2.7194239 1.81294927 0 0 Z " fill="#4CA6B3" transform="translate(534,148)"/>
<path d="M0 0 C0.66 0.33 1.32 0.66 2 1 C0.02 3.97 0.02 3.97 -2 7 C-2.33 6.01 -2.66 5.02 -3 4 C-3.66 3.67 -4.32 3.34 -5 3 C-2.625 1.4375 -2.625 1.4375 0 0 Z " fill="#4FAECB" transform="translate(673,59)"/>
<path d="M0 0 C0.66 0.33 1.32 0.66 2 1 C1.2884375 1.680625 1.2884375 1.680625 0.5625 2.375 C-1.09027808 3.93258204 -1.09027808 3.93258204 -2 6 C-3.32 5.34 -4.64 4.68 -6 4 C-4.02 2.68 -2.04 1.36 0 0 Z " fill="#70B2BB" transform="translate(409,231)"/>
<path d="M0 0 C0.66 0.33 1.32 0.66 2 1 C0.8125 3 0.8125 3 -1 5 C-3.6875 5.25 -3.6875 5.25 -6 5 C-2.25 1.125 -2.25 1.125 0 0 Z " fill="#4EA6C4" transform="translate(632,84)"/>
<path d="M0 0 C0.99 0.33 1.98 0.66 3 1 C3 1.99 3 2.98 3 4 C0.36 4 -2.28 4 -5 4 C-2.6875 1.9375 -2.6875 1.9375 0 0 Z " fill="#5AC4E4" transform="translate(657,70)"/>
</svg>
