<svg id="svg" version="1.1" xmlns="http://www.w3.org/2000/svg" xmlns:xlink="http://www.w3.org/1999/xlink" width="400" height="374.9287749287749" viewBox="0, 0, 400,374.9287749287749"><g id="svgg"><path id="path0" d="M187.805 72.672 C 186.115 73.377,184.324 74.539,179.835 77.839 C 178.135 79.090,175.636 80.872,174.282 81.801 C 172.928 82.730,171.507 83.743,171.123 84.053 C 170.740 84.362,170.115 84.828,169.735 85.088 C 168.490 85.940,163.805 89.272,163.161 89.763 C 162.816 90.028,162.169 90.497,161.725 90.807 C 161.281 91.116,159.854 92.129,158.555 93.058 C 157.256 93.987,155.815 95.000,155.353 95.310 C 154.891 95.619,153.139 96.900,151.459 98.156 C 149.779 99.412,148.221 100.509,147.995 100.595 C 147.769 100.680,145.912 101.978,143.867 103.479 C 138.760 107.227,132.730 111.570,128.901 114.259 C 127.137 115.497,123.947 117.777,121.812 119.325 C 119.677 120.872,116.025 123.490,113.696 125.141 C 111.368 126.792,107.710 129.409,105.569 130.957 C 103.428 132.505,100.573 134.531,99.225 135.460 C 97.877 136.388,96.460 137.402,96.076 137.711 C 95.693 138.021,95.068 138.487,94.688 138.747 C 94.307 139.007,92.814 140.061,91.370 141.088 C 89.925 142.116,88.432 143.169,88.051 143.430 C 87.671 143.690,87.046 144.156,86.663 144.465 C 86.279 144.775,84.854 145.788,83.495 146.717 C 82.135 147.645,79.214 149.710,77.003 151.306 C 74.792 152.901,71.154 155.518,68.918 157.122 C 57.836 165.070,55.739 166.761,54.833 168.480 C 52.612 172.698,54.302 177.106,59.402 180.394 C 60.268 180.952,62.289 182.384,63.895 183.575 C 65.500 184.766,66.900 185.741,67.006 185.741 C 67.112 185.741,67.403 185.915,67.652 186.127 C 67.901 186.339,69.371 187.432,70.919 188.555 C 72.467 189.679,73.907 190.743,74.119 190.920 C 74.330 191.097,75.006 191.561,75.620 191.951 C 76.233 192.341,77.772 193.425,79.038 194.360 C 80.305 195.295,81.719 196.313,82.180 196.623 C 82.641 196.932,83.239 197.397,83.509 197.655 C 83.778 197.913,84.103 198.124,84.230 198.124 C 84.357 198.124,85.532 198.926,86.841 199.906 C 88.150 200.886,89.598 201.942,90.060 202.251 C 90.521 202.561,91.119 203.025,91.389 203.283 C 91.658 203.541,92.007 203.752,92.163 203.752 C 92.319 203.752,92.796 204.065,93.222 204.448 C 93.648 204.830,95.178 205.958,96.622 206.953 C 98.066 207.948,99.445 208.944,99.687 209.166 C 99.928 209.387,101.234 210.328,102.590 211.257 C 103.945 212.186,106.815 214.212,108.968 215.760 C 111.121 217.308,114.773 219.925,117.085 221.576 C 119.396 223.227,123.035 225.844,125.170 227.392 C 127.306 228.940,130.162 230.966,131.517 231.895 C 132.872 232.824,134.271 233.800,134.626 234.065 C 135.453 234.682,141.547 239.059,142.459 239.693 C 146.121 242.233,149.690 244.800,150.407 245.409 C 150.889 245.819,151.366 246.154,151.468 246.154 C 151.569 246.154,152.610 246.876,153.781 247.760 C 154.952 248.643,156.542 249.783,157.315 250.293 C 158.087 250.802,158.720 251.346,158.722 251.501 C 158.723 251.656,158.901 251.782,159.116 251.782 C 159.332 251.782,160.579 252.584,161.888 253.565 C 163.197 254.545,164.645 255.600,165.107 255.910 C 165.568 256.220,166.166 256.684,166.436 256.942 C 166.705 257.200,167.030 257.411,167.157 257.411 C 167.284 257.411,168.472 258.213,169.797 259.193 C 171.121 260.174,173.980 262.242,176.148 263.790 C 178.317 265.338,181.503 267.626,183.228 268.874 C 189.368 273.318,193.937 272.895,197.504 267.553 C 198.064 266.714,198.124 264.307,198.124 242.581 C 198.124 224.380,198.233 218.427,198.574 218.086 C 199.235 217.426,208.533 217.509,211.820 218.205 C 213.264 218.511,215.195 218.762,216.111 218.762 C 217.027 218.762,218.800 219.004,220.051 219.300 C 221.303 219.596,223.295 219.946,224.478 220.077 C 225.662 220.208,226.727 220.472,226.845 220.664 C 226.964 220.856,227.732 221.013,228.552 221.013 C 229.372 221.013,230.649 221.266,231.390 221.576 C 232.131 221.886,233.155 222.139,233.666 222.139 C 234.178 222.139,235.128 222.367,235.778 222.646 C 236.883 223.120,238.165 223.498,241.824 224.427 C 242.641 224.635,243.486 224.932,243.700 225.088 C 243.915 225.243,245.316 225.761,246.815 226.238 C 248.314 226.714,249.633 227.254,249.746 227.436 C 249.858 227.618,250.210 227.767,250.528 227.767 C 250.846 227.767,251.723 228.044,252.476 228.381 C 258.178 230.936,264.259 233.839,264.540 234.141 C 264.644 234.251,265.657 234.815,266.792 235.393 C 269.285 236.664,270.162 237.187,270.836 237.805 C 271.118 238.063,271.575 238.274,271.853 238.274 C 272.131 238.274,272.414 238.408,272.483 238.571 C 272.552 238.735,273.283 239.278,274.109 239.778 C 280.997 243.949,295.336 256.327,299.481 261.680 C 299.941 262.274,300.809 263.287,301.409 263.932 C 302.452 265.052,308.391 272.852,309.568 274.650 C 309.878 275.122,310.427 275.896,310.788 276.369 C 311.149 276.842,311.445 277.317,311.445 277.425 C 311.445 277.532,312.123 278.641,312.951 279.888 C 313.780 281.136,314.631 282.541,314.844 283.011 C 315.056 283.481,315.810 284.878,316.519 286.116 C 317.228 287.355,317.914 288.621,318.043 288.931 C 318.173 289.240,318.794 290.591,319.423 291.932 C 320.053 293.274,320.820 294.962,321.127 295.685 C 321.435 296.407,321.851 297.324,322.052 297.723 C 322.253 298.122,322.554 298.881,322.719 299.411 C 322.885 299.942,323.386 301.304,323.832 302.439 C 324.278 303.574,324.782 305.009,324.953 305.629 C 325.123 306.248,325.432 307.261,325.638 307.880 C 326.000 308.963,326.637 311.252,327.570 314.822 C 327.812 315.750,328.148 317.477,328.316 318.657 C 329.552 327.352,339.840 330.064,343.797 322.739 L 344.865 320.761 344.725 311.319 C 344.569 300.856,343.943 289.377,343.370 286.492 C 343.166 285.460,342.831 283.011,342.627 281.051 C 342.062 275.631,341.300 270.725,339.507 260.976 C 339.242 259.531,338.915 258.180,338.780 257.974 C 338.646 257.767,338.415 256.625,338.268 255.436 C 338.120 254.247,337.865 253.191,337.702 253.090 C 337.539 252.990,337.287 252.021,337.141 250.938 C 336.996 249.854,336.746 248.799,336.587 248.593 C 336.427 248.386,336.117 247.458,335.898 246.529 C 335.158 243.398,334.601 241.469,334.091 240.281 C 333.812 239.631,333.583 238.848,333.583 238.542 C 333.583 238.235,333.331 237.501,333.023 236.910 C 332.715 236.319,332.456 235.497,332.448 235.084 C 332.440 234.672,332.186 234.006,331.883 233.606 C 331.580 233.205,331.332 232.577,331.332 232.211 C 331.332 231.553,330.594 229.640,329.596 227.709 C 329.313 227.162,329.081 226.458,329.081 226.145 C 329.081 225.833,328.842 225.099,328.550 224.514 C 328.259 223.930,327.765 222.861,327.453 222.139 C 326.247 219.344,324.498 215.547,324.168 215.009 C 323.978 214.700,323.727 214.193,323.610 213.884 C 323.494 213.574,323.240 213.068,323.047 212.758 C 322.855 212.448,322.614 211.984,322.512 211.726 C 322.045 210.544,321.889 210.227,321.078 208.818 C 320.603 207.992,319.567 206.135,318.775 204.690 C 317.501 202.364,314.416 197.395,312.602 194.747 C 310.722 192.003,308.304 188.558,308.012 188.206 C 306.523 186.415,306.191 185.973,306.190 185.777 C 306.189 185.654,305.640 184.948,304.970 184.209 C 304.300 183.469,303.077 182.046,302.251 181.045 C 299.516 177.730,298.533 176.663,294.559 172.694 C 290.823 168.962,284.431 163.243,281.252 160.788 C 280.451 160.169,279.275 159.229,278.640 158.699 C 278.005 158.170,276.726 157.230,275.797 156.611 C 274.869 155.991,273.011 154.731,271.670 153.809 C 266.701 150.394,260.280 146.716,253.659 143.492 C 249.492 141.464,248.316 140.917,245.690 139.792 C 245.017 139.504,243.849 139.002,243.095 138.677 C 242.342 138.352,241.497 138.081,241.219 138.074 C 240.941 138.068,240.385 137.815,239.985 137.512 C 239.584 137.209,238.948 136.961,238.572 136.961 C 238.196 136.961,237.595 136.793,237.237 136.588 C 236.557 136.199,234.014 135.269,232.083 134.703 C 231.463 134.521,229.775 134.016,228.330 133.580 C 226.886 133.143,225.113 132.649,224.390 132.481 C 220.609 131.600,219.168 131.232,217.586 130.743 C 216.629 130.448,215.391 130.206,214.833 130.206 C 214.275 130.206,212.778 129.963,211.506 129.664 C 208.507 128.962,204.105 128.249,201.501 128.043 C 198.243 127.787,198.502 129.844,198.472 103.988 C 198.457 91.269,198.318 79.978,198.164 78.895 C 197.513 74.323,191.910 70.957,187.805 72.672 " stroke="none" fill="#389bfc" fill-rule="evenodd"></path><path id="path1" d="M186.492 72.707 C 185.356 73.277,182.957 74.838,181.159 76.177 C 179.362 77.516,176.445 79.625,174.677 80.863 C 172.909 82.101,171.172 83.331,170.816 83.596 C 169.880 84.293,163.820 88.642,162.861 89.306 C 160.896 90.665,155.995 94.159,152.630 96.599 C 150.620 98.057,147.192 100.516,145.013 102.064 C 142.834 103.612,139.288 106.144,137.134 107.692 C 134.980 109.240,131.437 111.773,129.262 113.321 C 127.087 114.869,123.548 117.402,121.398 118.949 C 119.247 120.497,115.712 123.030,113.541 124.578 C 111.370 126.126,108.424 128.236,106.993 129.268 C 105.562 130.300,104.013 131.398,103.550 131.707 C 103.088 132.017,101.311 133.283,99.603 134.522 C 97.895 135.760,96.132 137.026,95.687 137.336 C 95.241 137.645,93.471 138.912,91.752 140.150 C 90.034 141.388,88.261 142.655,87.812 142.964 C 87.364 143.274,85.532 144.573,83.742 145.851 C 74.880 152.179,74.106 152.734,62.391 161.163 C 60.383 162.608,58.129 164.191,57.382 164.681 C 53.679 167.110,52.303 172.133,54.285 175.985 C 55.402 178.156,55.832 178.517,65.459 185.366 C 67.634 186.914,71.231 189.486,73.450 191.081 C 80.481 196.136,83.790 198.498,86.492 200.389 C 87.936 201.401,89.401 202.445,89.747 202.709 C 90.092 202.973,90.683 203.402,91.060 203.662 C 91.437 203.923,92.927 204.976,94.371 206.004 C 95.816 207.031,97.309 208.085,97.690 208.345 C 98.070 208.605,98.691 209.071,99.069 209.381 C 99.447 209.690,101.222 210.957,103.012 212.195 C 104.802 213.433,107.776 215.544,109.619 216.886 C 111.462 218.227,114.751 220.591,116.927 222.139 C 119.103 223.687,122.644 226.220,124.796 227.767 C 126.948 229.315,130.485 231.848,132.654 233.396 C 134.824 234.944,138.361 237.477,140.514 239.024 C 142.667 240.572,146.211 243.105,148.391 244.653 C 150.570 246.201,153.576 248.347,155.070 249.422 C 156.564 250.497,158.293 251.728,158.912 252.158 C 159.531 252.587,161.245 253.818,162.720 254.893 C 164.196 255.968,165.774 257.101,166.227 257.411 C 166.681 257.720,168.513 259.020,170.299 260.299 C 172.085 261.577,175.278 263.857,177.395 265.364 C 179.512 266.872,182.130 268.753,183.211 269.544 C 188.728 273.582,192.798 273.579,196.709 269.536 C 199.260 266.899,199.241 267.110,199.245 241.141 L 199.250 217.930 203.471 218.117 C 210.097 218.411,218.408 219.476,224.819 220.853 C 226.190 221.147,227.611 221.388,227.976 221.388 C 228.341 221.388,229.583 221.654,230.736 221.978 C 231.889 222.302,233.720 222.809,234.803 223.104 C 240.146 224.558,244.043 225.785,247.280 227.032 C 248.415 227.469,249.886 227.989,250.549 228.186 C 251.213 228.384,251.856 228.708,251.979 228.907 C 252.101 229.106,252.442 229.268,252.735 229.268 C 253.464 229.268,260.282 232.452,264.916 234.957 C 266.297 235.703,270.349 238.116,274.464 240.640 C 275.323 241.168,274.925 240.880,280.113 244.726 C 289.961 252.026,298.481 260.537,305.723 270.307 C 307.425 272.604,308.955 274.653,309.122 274.860 C 309.288 275.067,310.175 276.472,311.091 277.983 C 312.008 279.493,313.042 281.181,313.388 281.734 C 315.720 285.452,319.873 293.882,321.740 298.687 C 322.100 299.615,322.607 300.882,322.865 301.501 C 324.487 305.387,326.939 314.140,327.962 319.700 C 329.557 328.368,339.541 330.303,344.416 322.889 L 345.403 321.388 345.362 311.820 C 345.308 299.365,344.355 287.358,342.353 273.921 C 341.480 268.065,339.779 259.193,339.001 256.440 C 338.704 255.390,338.462 254.230,338.462 253.864 C 338.462 253.497,338.216 252.414,337.916 251.457 C 337.616 250.501,337.089 248.621,336.743 247.280 C 336.398 245.938,335.901 244.165,335.640 243.340 C 335.378 242.514,334.869 240.826,334.509 239.587 C 334.148 238.349,333.713 236.998,333.541 236.585 C 332.983 235.246,332.038 232.486,331.742 231.329 C 331.582 230.709,331.277 229.864,331.063 229.453 C 330.372 228.126,329.456 225.876,329.456 225.504 C 329.456 225.305,328.940 224.002,328.310 222.609 C 327.680 221.215,326.938 219.568,326.660 218.949 C 321.017 206.366,311.768 191.274,304.469 182.739 C 296.263 173.143,286.223 163.460,279.929 159.074 C 279.209 158.572,278.449 157.973,278.241 157.743 C 277.567 157.000,269.742 151.824,264.916 148.929 C 259.116 145.451,249.794 140.814,243.527 138.289 C 242.598 137.915,241.307 137.379,240.656 137.097 C 240.006 136.816,239.238 136.585,238.949 136.585 C 238.660 136.585,238.264 136.441,238.068 136.264 C 237.871 136.087,236.445 135.562,234.897 135.097 C 233.349 134.632,231.793 134.103,231.439 133.922 C 231.084 133.741,230.156 133.430,229.375 133.230 C 228.594 133.030,226.942 132.590,225.704 132.251 C 223.640 131.687,222.654 131.444,217.636 130.263 C 212.128 128.966,204.024 127.574,202.001 127.577 C 198.988 127.582,199.250 129.846,199.245 103.806 C 199.241 84.723,199.143 80.119,198.701 78.460 C 197.223 72.907,191.485 70.204,186.492 72.707 M193.820 73.233 C 198.524 75.579,198.437 75.003,198.472 103.988 C 198.502 129.844,198.243 127.787,201.501 128.043 C 204.105 128.249,208.507 128.962,211.506 129.664 C 212.778 129.963,214.275 130.206,214.833 130.206 C 215.391 130.206,216.629 130.448,217.586 130.743 C 219.168 131.232,220.609 131.600,224.390 132.481 C 225.113 132.649,226.886 133.143,228.330 133.580 C 229.775 134.016,231.463 134.521,232.083 134.703 C 234.014 135.269,236.557 136.199,237.237 136.588 C 237.595 136.793,238.196 136.961,238.572 136.961 C 238.948 136.961,239.584 137.209,239.985 137.512 C 240.385 137.815,240.941 138.068,241.219 138.074 C 241.497 138.081,242.342 138.352,243.095 138.677 C 243.849 139.002,245.017 139.504,245.690 139.792 C 254.760 143.679,264.855 149.125,271.670 153.809 C 273.011 154.731,274.869 155.991,275.797 156.611 C 276.726 157.230,278.005 158.170,278.640 158.699 C 279.275 159.229,280.451 160.169,281.252 160.788 C 284.431 163.243,290.823 168.962,294.559 172.694 C 298.533 176.663,299.516 177.730,302.251 181.045 C 303.077 182.046,304.300 183.469,304.970 184.209 C 305.640 184.948,306.189 185.654,306.190 185.777 C 306.191 185.973,306.523 186.415,308.012 188.206 C 308.304 188.558,310.722 192.003,312.602 194.747 C 314.416 197.395,317.501 202.364,318.775 204.690 C 319.567 206.135,320.603 207.992,321.078 208.818 C 321.889 210.227,322.045 210.544,322.512 211.726 C 322.614 211.984,322.855 212.448,323.047 212.758 C 323.240 213.068,323.494 213.574,323.610 213.884 C 323.727 214.193,323.978 214.700,324.168 215.009 C 324.498 215.547,326.247 219.344,327.453 222.139 C 327.765 222.861,328.259 223.930,328.550 224.514 C 328.842 225.099,329.081 225.833,329.081 226.145 C 329.081 226.458,329.313 227.162,329.596 227.709 C 330.594 229.640,331.332 231.553,331.332 232.211 C 331.332 232.577,331.580 233.205,331.883 233.606 C 332.186 234.006,332.440 234.672,332.448 235.084 C 332.456 235.497,332.715 236.319,333.023 236.910 C 333.331 237.501,333.583 238.235,333.583 238.542 C 333.583 238.848,333.812 239.631,334.091 240.281 C 334.601 241.469,335.158 243.398,335.898 246.529 C 336.117 247.458,336.427 248.386,336.587 248.593 C 336.746 248.799,336.996 249.854,337.141 250.938 C 337.287 252.021,337.539 252.990,337.702 253.090 C 337.865 253.191,338.120 254.247,338.268 255.436 C 338.415 256.625,338.646 257.767,338.780 257.974 C 339.359 258.864,341.909 274.165,342.627 281.051 C 342.831 283.011,343.166 285.460,343.370 286.492 C 343.943 289.377,344.569 300.856,344.725 311.319 L 344.865 320.761 343.797 322.739 C 339.840 330.064,329.552 327.352,328.316 318.657 C 328.148 317.477,327.812 315.750,327.570 314.822 C 326.637 311.252,326.000 308.963,325.638 307.880 C 325.432 307.261,325.123 306.248,324.953 305.629 C 324.782 305.009,324.278 303.574,323.832 302.439 C 323.386 301.304,322.885 299.942,322.719 299.411 C 322.554 298.881,322.253 298.122,322.052 297.723 C 321.851 297.324,321.435 296.407,321.127 295.685 C 320.820 294.962,320.053 293.274,319.423 291.932 C 318.794 290.591,318.173 289.240,318.043 288.931 C 317.914 288.621,317.228 287.355,316.519 286.116 C 315.810 284.878,315.056 283.481,314.844 283.011 C 314.631 282.541,313.780 281.136,312.951 279.888 C 312.123 278.641,311.445 277.532,311.445 277.425 C 311.445 277.317,311.149 276.842,310.788 276.369 C 310.427 275.896,309.878 275.122,309.568 274.650 C 308.391 272.852,302.452 265.052,301.409 263.932 C 300.809 263.287,299.941 262.274,299.481 261.680 C 295.336 256.327,280.997 243.949,274.109 239.778 C 273.283 239.278,272.552 238.735,272.483 238.571 C 272.414 238.408,272.131 238.274,271.853 238.274 C 271.575 238.274,271.118 238.063,270.836 237.805 C 270.162 237.187,269.285 236.664,266.792 235.393 C 265.657 234.815,264.644 234.251,264.540 234.141 C 264.259 233.839,258.178 230.936,252.476 228.381 C 251.723 228.044,250.846 227.767,250.528 227.767 C 250.210 227.767,249.858 227.618,249.746 227.436 C 249.633 227.254,248.314 226.714,246.815 226.238 C 245.316 225.761,243.915 225.243,243.700 225.088 C 243.486 224.932,242.641 224.635,241.824 224.427 C 238.165 223.498,236.883 223.120,235.778 222.646 C 235.128 222.367,234.178 222.139,233.666 222.139 C 233.155 222.139,232.131 221.886,231.390 221.576 C 230.649 221.266,229.372 221.013,228.552 221.013 C 227.732 221.013,226.964 220.856,226.845 220.664 C 226.727 220.472,225.662 220.208,224.478 220.077 C 223.295 219.946,221.303 219.596,220.051 219.300 C 218.800 219.004,217.027 218.762,216.111 218.762 C 215.195 218.762,213.264 218.511,211.820 218.205 C 208.533 217.509,199.235 217.426,198.574 218.086 C 198.233 218.427,198.124 224.380,198.124 242.581 C 198.124 264.307,198.064 266.714,197.504 267.553 C 193.937 272.895,189.368 273.318,183.228 268.874 C 181.503 267.626,178.317 265.338,176.148 263.790 C 173.980 262.242,171.121 260.174,169.797 259.193 C 168.472 258.213,167.284 257.411,167.157 257.411 C 167.030 257.411,166.705 257.200,166.436 256.942 C 166.166 256.684,165.568 256.220,165.107 255.910 C 164.645 255.600,163.197 254.545,161.888 253.565 C 160.579 252.584,159.332 251.782,159.116 251.782 C 158.901 251.782,158.723 251.656,158.722 251.501 C 158.720 251.346,158.087 250.802,157.315 250.293 C 156.542 249.783,154.952 248.643,153.781 247.760 C 152.610 246.876,151.569 246.154,151.468 246.154 C 151.366 246.154,150.889 245.819,150.407 245.409 C 149.690 244.800,146.121 242.233,142.459 239.693 C 141.547 239.059,135.453 234.682,134.626 234.065 C 134.271 233.800,132.872 232.824,131.517 231.895 C 130.162 230.966,127.306 228.940,125.170 227.392 C 123.035 225.844,119.396 223.227,117.085 221.576 C 114.773 219.925,111.121 217.308,108.968 215.760 C 106.815 214.212,103.945 212.186,102.590 211.257 C 101.234 210.328,99.928 209.387,99.687 209.166 C 99.445 208.944,98.066 207.948,96.622 206.953 C 95.178 205.958,93.648 204.830,93.222 204.448 C 92.796 204.065,92.319 203.752,92.163 203.752 C 92.007 203.752,91.658 203.541,91.389 203.283 C 91.119 203.025,90.521 202.561,90.060 202.251 C 89.598 201.942,88.150 200.886,86.841 199.906 C 85.532 198.926,84.357 198.124,84.230 198.124 C 84.103 198.124,83.778 197.913,83.509 197.655 C 83.239 197.397,82.641 196.932,82.180 196.623 C 81.719 196.313,80.305 195.295,79.038 194.360 C 77.772 193.425,76.233 192.341,75.620 191.951 C 75.006 191.561,74.330 191.097,74.119 190.920 C 73.907 190.743,72.467 189.679,70.919 188.555 C 69.371 187.432,67.901 186.339,67.652 186.127 C 67.403 185.915,67.112 185.741,67.006 185.741 C 66.900 185.741,65.500 184.766,63.895 183.575 C 62.289 182.384,60.268 180.952,59.402 180.394 C 54.302 177.106,52.612 172.698,54.833 168.480 C 55.739 166.761,57.836 165.070,68.918 157.122 C 71.154 155.518,74.792 152.901,77.003 151.306 C 79.214 149.710,82.135 147.645,83.495 146.717 C 84.854 145.788,86.279 144.775,86.663 144.465 C 87.046 144.156,87.671 143.690,88.051 143.430 C 88.432 143.169,89.925 142.116,91.370 141.088 C 92.814 140.061,94.307 139.007,94.688 138.747 C 95.068 138.487,95.693 138.021,96.076 137.711 C 96.460 137.402,97.877 136.388,99.225 135.460 C 100.573 134.531,103.428 132.505,105.569 130.957 C 107.710 129.409,111.368 126.792,113.696 125.141 C 116.025 123.490,119.677 120.872,121.812 119.325 C 123.947 117.777,127.137 115.497,128.901 114.259 C 132.730 111.570,138.760 107.227,143.867 103.479 C 145.912 101.978,147.769 100.680,147.995 100.595 C 148.221 100.509,149.779 99.412,151.459 98.156 C 153.139 96.900,154.891 95.619,155.353 95.310 C 155.815 95.000,157.256 93.987,158.555 93.058 C 159.854 92.129,161.281 91.116,161.725 90.807 C 162.169 90.497,162.816 90.028,163.161 89.763 C 163.805 89.272,168.490 85.940,169.735 85.088 C 170.115 84.828,170.740 84.362,171.123 84.053 C 171.507 83.743,172.928 82.730,174.282 81.801 C 175.636 80.872,178.135 79.090,179.835 77.839 C 188.183 71.701,189.728 71.192,193.820 73.233 " stroke="none" fill="#9fcdfc" fill-rule="evenodd"></path><path id="path2" d="M53.313 174.506 C 53.297 174.828,53.546 175.419,53.867 175.819 C 54.441 176.536,54.445 176.536,54.105 175.797 C 53.915 175.385,53.666 174.794,53.551 174.484 C 53.371 173.998,53.339 174.001,53.313 174.506 M297.561 174.977 C 297.561 175.041,298.110 175.590,298.780 176.196 L 300.000 177.298 298.898 176.079 C 297.871 174.942,297.561 174.687,297.561 174.977 M300.938 178.729 C 300.938 178.794,301.487 179.342,302.158 179.949 L 303.377 181.051 302.275 179.831 C 301.248 178.694,300.938 178.439,300.938 178.729 M85.929 200.137 C 85.929 200.240,86.435 200.685,87.054 201.126 C 87.674 201.567,88.180 201.843,88.180 201.740 C 88.180 201.636,87.674 201.191,87.054 200.750 C 86.435 200.310,85.929 200.033,85.929 200.137 M93.939 205.910 C 94.242 206.401,97.174 208.396,97.328 208.217 C 97.399 208.135,96.618 207.505,95.592 206.817 C 94.566 206.129,93.822 205.721,93.939 205.910 M199.426 241.088 C 199.426 253.884,199.473 259.173,199.531 252.841 C 199.588 246.510,199.588 236.041,199.531 229.577 C 199.473 223.113,199.426 228.293,199.426 241.088 M210.417 219.027 C 210.884 219.117,211.559 219.113,211.918 219.020 C 212.277 218.926,211.895 218.852,211.069 218.856 C 210.244 218.861,209.950 218.937,210.417 219.027 M113.321 219.649 C 113.321 219.752,113.827 220.197,114.447 220.638 C 115.066 221.079,115.572 221.355,115.572 221.252 C 115.572 221.149,115.066 220.704,114.447 220.263 C 113.827 219.822,113.321 219.546,113.321 219.649 M217.824 219.870 C 218.544 220.196,220.554 220.409,220.231 220.125 C 220.145 220.049,219.400 219.884,218.574 219.758 C 217.528 219.599,217.301 219.633,217.824 219.870 M229.268 221.951 C 229.991 222.229,230.835 222.457,231.144 222.457 C 231.454 222.457,231.116 222.229,230.394 221.951 C 229.672 221.673,228.827 221.445,228.518 221.445 C 228.208 221.445,228.546 221.673,229.268 221.951 M121.201 225.277 C 121.201 225.380,121.707 225.826,122.326 226.266 C 122.946 226.707,123.452 226.984,123.452 226.880 C 123.452 226.777,122.946 226.332,122.326 225.891 C 121.707 225.450,121.201 225.174,121.201 225.277 M131.880 233.104 C 132.507 233.666,133.170 234.131,133.353 234.136 C 133.535 234.142,133.198 233.778,132.602 233.329 C 130.939 232.073,130.617 231.973,131.880 233.104 M151.626 247.393 C 151.712 247.456,152.289 247.803,152.908 248.166 L 154.034 248.825 153.148 248.052 C 152.661 247.627,152.084 247.280,151.866 247.280 C 151.648 247.280,151.540 247.331,151.626 247.393 M286.679 250.024 C 286.679 250.088,287.228 250.637,287.899 251.243 L 289.118 252.345 288.016 251.126 C 286.989 249.989,286.679 249.734,286.679 250.024 M291.166 254.128 C 292.086 255.108,292.888 255.910,292.949 255.910 C 293.230 255.910,292.933 255.573,291.276 254.018 L 289.493 252.345 291.166 254.128 M159.506 253.022 C 159.592 253.084,160.169 253.432,160.788 253.794 L 161.914 254.454 161.028 253.681 C 160.541 253.256,159.964 252.908,159.746 252.908 C 159.528 252.908,159.420 252.959,159.506 253.022 M296.248 259.287 C 297.264 260.319,298.180 261.163,298.283 261.163 C 298.386 261.163,297.639 260.319,296.623 259.287 C 295.607 258.255,294.691 257.411,294.587 257.411 C 294.484 257.411,295.231 258.255,296.248 259.287 M340.800 264.540 C 340.800 265.263,340.877 265.558,340.972 265.197 C 341.066 264.836,341.066 264.245,340.972 263.884 C 340.877 263.523,340.800 263.818,340.800 264.540 M341.317 267.730 C 341.626 269.110,341.841 269.409,341.833 268.449 C 341.830 268.053,341.656 267.477,341.446 267.167 C 341.168 266.756,341.133 266.908,341.317 267.730 M304.689 269.325 C 305.180 269.995,305.641 270.544,305.712 270.544 C 305.997 270.544,305.067 269.137,304.452 268.637 C 304.046 268.308,304.137 268.570,304.689 269.325 M195.981 270.178 C 195.112 270.999,194.529 271.670,194.685 271.670 C 194.842 271.670,195.629 270.994,196.435 270.169 C 198.321 268.238,198.030 268.244,195.981 270.178 M341.926 270.919 C 341.926 271.642,342.003 271.937,342.097 271.576 C 342.192 271.215,342.192 270.624,342.097 270.263 C 342.003 269.902,341.926 270.197,341.926 270.919 M342.456 274.672 C 342.753 276.290,342.966 276.595,342.959 275.391 C 342.955 274.892,342.787 274.231,342.584 273.921 C 342.324 273.525,342.286 273.748,342.456 274.672 M343.067 278.424 C 343.067 279.353,343.140 279.733,343.229 279.268 C 343.319 278.804,343.319 278.044,343.229 277.580 C 343.140 277.115,343.067 277.495,343.067 278.424 M343.596 283.302 C 343.719 284.231,343.880 285.061,343.955 285.147 C 344.237 285.473,344.022 283.081,343.705 282.364 C 343.483 281.863,343.447 282.175,343.596 283.302 M344.197 287.992 C 344.200 289.024,344.273 289.402,344.359 288.832 C 344.446 288.261,344.443 287.417,344.354 286.955 C 344.265 286.494,344.195 286.961,344.197 287.992 M344.756 296.060 C 344.858 297.814,345.003 299.320,345.079 299.406 C 345.338 299.702,345.141 294.746,344.856 293.809 C 344.699 293.293,344.654 294.306,344.756 296.060 M345.347 303.189 C 345.347 304.944,345.412 305.661,345.491 304.784 C 345.570 303.907,345.570 302.472,345.491 301.595 C 345.412 300.718,345.347 301.435,345.347 303.189 M325.865 312.008 C 326.012 312.627,326.293 313.298,326.491 313.500 C 326.688 313.702,326.651 313.279,326.409 312.562 C 325.840 310.882,325.521 310.555,325.865 312.008 M327.257 317.448 C 327.257 317.758,327.402 318.349,327.580 318.762 C 327.783 319.235,327.902 319.304,327.902 318.949 C 327.902 318.640,327.757 318.049,327.580 317.636 C 327.376 317.163,327.257 317.094,327.257 317.448 M327.969 321.201 C 327.975 321.510,328.227 322.091,328.530 322.492 C 329.238 323.429,329.234 323.081,328.520 321.713 C 328.212 321.122,327.964 320.891,327.969 321.201 M342.727 324.858 C 341.874 325.736,341.291 326.454,341.431 326.454 C 341.769 326.454,344.651 323.495,344.441 323.364 C 344.351 323.309,343.580 323.981,342.727 324.858 " stroke="none" fill="#c4dcfc" fill-rule="evenodd"></path><path id="path3" d="M187.148 71.553 C 186.787 71.648,186.492 71.881,186.492 72.073 C 186.492 72.264,186.257 72.420,185.970 72.420 C 185.327 72.420,183.503 73.891,184.124 73.909 C 184.370 73.916,184.665 73.770,184.779 73.585 C 186.069 71.498,191.591 71.051,194.619 72.787 C 199.310 75.478,199.237 75.009,199.249 102.439 C 199.259 124.884,199.335 127.205,200.057 127.205 C 200.251 127.205,200.232 126.888,200.013 126.479 C 199.757 126.001,199.625 117.770,199.624 102.370 C 199.624 80.488,199.579 78.869,198.927 77.150 C 197.242 72.715,192.084 70.263,187.148 71.553 M182.083 74.737 C 181.412 75.152,180.863 75.671,180.863 75.890 C 180.863 76.109,181.172 76.009,181.549 75.668 C 181.927 75.326,182.415 75.047,182.635 75.047 C 182.854 75.047,183.131 74.794,183.250 74.484 C 183.369 74.174,183.429 73.935,183.384 73.952 C 183.339 73.969,182.753 74.323,182.083 74.737 M179.550 76.581 C 179.343 76.786,178.113 77.727,176.815 78.674 C 175.517 79.621,174.535 80.476,174.632 80.573 C 174.730 80.671,175.080 80.523,175.410 80.244 C 176.674 79.178,176.969 78.956,178.534 77.893 C 180.158 76.790,180.788 76.157,180.229 76.191 C 180.062 76.202,179.756 76.377,179.550 76.581 M168.856 84.288 C 167.927 85.015,167.098 85.806,167.013 86.044 C 166.928 86.283,167.118 86.228,167.436 85.922 C 167.753 85.616,168.393 85.113,168.856 84.803 C 170.347 83.808,171.305 82.952,170.919 82.959 C 170.713 82.962,169.784 83.561,168.856 84.288 M165.275 86.704 C 164.878 87.348,165.234 87.411,166.020 86.836 C 166.628 86.391,166.647 86.304,166.135 86.304 C 165.798 86.304,165.411 86.484,165.275 86.704 M160.976 89.916 C 160.047 90.644,159.218 91.434,159.133 91.673 C 159.048 91.911,159.239 91.856,159.556 91.551 C 159.873 91.245,160.513 90.741,160.977 90.432 C 162.467 89.437,163.425 88.580,163.039 88.587 C 162.833 88.591,161.904 89.189,160.976 89.916 M157.464 92.495 C 157.155 92.805,156.715 93.058,156.488 93.058 C 156.260 93.058,155.977 93.311,155.858 93.621 C 155.739 93.931,155.478 94.184,155.278 94.184 C 155.078 94.184,153.957 94.907,152.786 95.790 C 151.615 96.673,150.025 97.813,149.252 98.323 C 148.480 98.832,147.846 99.376,147.845 99.531 C 147.844 99.686,147.667 99.812,147.452 99.812 C 147.055 99.812,145.108 101.097,144.141 101.996 C 143.849 102.268,143.169 102.768,142.630 103.107 C 142.092 103.445,140.693 104.447,139.522 105.332 C 138.351 106.217,137.229 106.942,137.029 106.942 C 136.829 106.942,136.568 107.196,136.449 107.506 C 136.171 108.231,136.973 107.728,142.119 103.949 C 144.234 102.396,147.757 99.859,149.949 98.311 C 157.493 92.982,158.895 91.932,158.462 91.932 C 158.223 91.932,157.774 92.186,157.464 92.495 M135.022 108.349 C 134.953 108.504,134.179 109.118,133.302 109.713 C 132.425 110.309,131.710 110.984,131.713 111.214 C 131.717 111.484,131.817 111.499,131.994 111.256 C 132.146 111.049,132.995 110.388,133.881 109.786 C 135.583 108.632,136.119 108.068,135.513 108.068 C 135.312 108.068,135.091 108.194,135.022 108.349 M130.206 112.008 C 129.949 112.317,129.525 112.570,129.262 112.570 C 129.000 112.570,128.689 112.824,128.570 113.133 C 128.451 113.443,128.113 113.696,127.819 113.696 C 127.525 113.696,127.189 113.946,127.071 114.252 C 126.954 114.558,127.865 114.121,129.095 113.281 C 130.325 112.441,131.332 111.684,131.332 111.599 C 131.332 111.237,130.637 111.489,130.206 112.008 M124.859 115.694 C 124.292 116.158,123.827 116.665,123.827 116.821 C 123.827 116.976,124.038 116.927,124.296 116.713 C 124.554 116.498,125.188 115.990,125.704 115.585 C 126.220 115.179,126.473 114.847,126.266 114.848 C 126.060 114.848,125.427 115.229,124.859 115.694 M122.326 117.636 C 122.070 117.946,121.621 118.199,121.331 118.199 C 121.040 118.199,120.705 118.452,120.586 118.762 C 120.467 119.071,120.153 119.325,119.887 119.325 C 119.622 119.325,119.308 119.578,119.189 119.887 C 119.070 120.197,118.792 120.450,118.571 120.450 C 118.032 120.450,115.947 122.009,115.947 122.412 C 115.947 122.588,116.159 122.554,116.417 122.338 C 116.674 122.121,118.068 121.107,119.512 120.084 C 123.083 117.555,123.673 117.073,123.199 117.073 C 122.976 117.073,122.583 117.326,122.326 117.636 M114.212 123.371 C 113.773 123.725,113.035 124.268,112.571 124.578 C 112.107 124.887,111.507 125.352,111.238 125.610 C 110.968 125.868,110.644 126.079,110.517 126.079 C 110.390 126.079,109.215 126.881,107.906 127.861 C 106.597 128.841,105.148 129.897,104.687 130.206 C 104.226 130.516,103.658 130.938,103.425 131.144 C 103.192 131.351,102.277 132.012,101.391 132.614 C 100.505 133.216,99.676 133.875,99.550 134.079 C 99.277 134.521,101.846 132.788,106.093 129.665 C 107.794 128.415,110.293 126.632,111.647 125.704 C 114.578 123.693,115.811 122.697,115.348 122.714 C 115.162 122.721,114.651 123.017,114.212 123.371 M203.784 127.574 C 205.555 127.717,207.198 127.953,207.434 128.099 C 207.671 128.245,209.092 128.520,210.593 128.709 C 212.093 128.899,214.081 129.240,215.009 129.467 C 219.328 130.525,220.149 130.699,221.201 130.774 C 222.027 130.834,222.077 130.810,221.388 130.685 C 220.872 130.592,220.270 130.366,220.050 130.185 C 219.830 130.003,218.648 129.741,217.424 129.604 C 216.199 129.466,215.013 129.210,214.788 129.034 C 214.564 128.858,213.128 128.554,211.599 128.359 C 210.069 128.164,208.058 127.832,207.129 127.621 C 206.201 127.410,204.343 127.255,203.002 127.276 C 200.620 127.314,200.638 127.321,203.784 127.574 M223.640 131.520 C 224.156 131.815,225.084 132.039,225.704 132.018 C 226.712 131.984,226.731 131.963,225.891 131.812 C 225.375 131.720,224.793 131.489,224.597 131.300 C 224.401 131.111,223.894 130.963,223.471 130.970 C 222.771 130.982,222.786 131.031,223.640 131.520 M227.883 132.684 C 228.462 132.998,229.222 133.180,229.571 133.088 C 230.035 132.965,229.985 132.908,229.384 132.877 C 228.932 132.853,228.458 132.664,228.330 132.458 C 228.203 132.251,227.813 132.089,227.464 132.098 C 227.040 132.108,227.179 132.302,227.883 132.684 M231.520 133.771 C 232.036 134.066,232.711 134.312,233.021 134.318 C 233.330 134.324,233.100 134.077,232.509 133.769 C 231.139 133.054,230.269 133.056,231.520 133.771 M97.655 135.128 C 96.984 135.557,96.435 136.069,96.435 136.266 C 96.435 136.463,97.026 136.173,97.749 135.622 C 98.890 134.751,99.302 134.318,98.968 134.340 C 98.917 134.344,98.326 134.698,97.655 135.128 M234.897 134.897 C 236.125 135.599,236.790 135.590,235.857 134.885 C 235.456 134.582,234.865 134.340,234.544 134.347 C 234.169 134.356,234.296 134.553,234.897 134.897 M238.108 136.011 C 238.509 136.314,239.080 136.567,239.378 136.573 C 239.759 136.582,239.703 136.423,239.190 136.034 C 238.789 135.731,238.218 135.478,237.921 135.472 C 237.540 135.463,237.595 135.622,238.108 136.011 M95.310 136.935 C 95.310 137.128,95.014 137.386,94.653 137.510 C 94.292 137.633,93.490 138.165,92.871 138.691 L 91.745 139.648 92.871 139.075 C 94.381 138.305,96.365 136.616,95.779 136.599 C 95.521 136.591,95.310 136.743,95.310 136.935 M241.110 137.136 C 241.511 137.439,242.082 137.693,242.379 137.699 C 242.761 137.708,242.705 137.548,242.192 137.160 C 241.791 136.857,241.220 136.604,240.923 136.597 C 240.541 136.589,240.597 136.748,241.110 137.136 M243.902 138.274 C 245.130 138.976,245.795 138.968,244.863 138.262 C 244.462 137.959,243.871 137.717,243.549 137.724 C 243.174 137.733,243.301 137.930,243.902 138.274 M246.529 139.342 C 247.559 139.885,247.862 139.851,247.483 139.237 C 247.347 139.017,246.865 138.839,246.413 138.842 C 245.625 138.848,245.629 138.868,246.529 139.342 M89.775 140.756 C 89.104 141.186,88.555 141.716,88.555 141.934 C 88.555 142.152,88.864 142.051,89.242 141.709 C 89.619 141.368,90.107 141.088,90.327 141.088 C 90.547 141.088,90.824 140.835,90.942 140.525 C 91.212 139.823,91.241 139.817,89.775 140.756 M251.617 141.639 C 252.570 142.360,253.127 142.367,252.533 141.651 C 252.276 141.341,251.801 141.088,251.477 141.088 C 251.006 141.088,251.034 141.198,251.617 141.639 M253.868 142.765 C 254.821 143.486,255.379 143.493,254.784 142.777 C 254.527 142.467,254.052 142.214,253.728 142.214 C 253.257 142.214,253.285 142.324,253.868 142.765 M84.991 144.322 L 83.865 145.277 85.061 144.686 C 85.718 144.361,86.361 143.925,86.490 143.717 C 86.911 143.036,86.139 143.348,84.991 144.322 M256.120 143.891 C 257.073 144.611,257.630 144.619,257.036 143.902 C 256.779 143.593,256.304 143.340,255.980 143.340 C 255.509 143.340,255.537 143.449,256.120 143.891 M258.370 144.997 C 259.156 145.572,259.513 145.509,259.115 144.865 C 258.979 144.645,258.592 144.465,258.255 144.465 C 257.743 144.465,257.762 144.552,258.370 144.997 M262.498 147.249 C 263.284 147.824,263.640 147.760,263.242 147.117 C 263.106 146.897,262.720 146.717,262.383 146.717 C 261.871 146.717,261.889 146.804,262.498 147.249 M263.821 147.980 C 264.662 148.717,267.167 150.015,267.167 149.714 C 267.167 149.500,266.761 149.171,266.265 148.982 C 265.769 148.793,265.253 148.460,265.117 148.241 C 264.982 148.022,264.600 147.842,264.268 147.842 C 263.936 147.842,263.735 147.904,263.821 147.980 M77.262 149.751 C 76.766 150.182,75.220 151.292,73.827 152.219 C 72.434 153.146,71.295 154.060,71.295 154.250 C 71.295 154.441,71.067 154.597,70.789 154.597 C 70.511 154.597,69.936 154.892,69.511 155.253 C 69.086 155.614,68.365 156.163,67.909 156.473 C 66.437 157.473,63.608 159.613,63.415 159.872 C 63.311 160.011,62.863 160.238,62.417 160.376 C 61.972 160.515,61.516 160.867,61.405 161.158 C 61.271 161.508,61.387 161.617,61.745 161.479 C 62.044 161.364,62.289 161.120,62.289 160.935 C 62.289 160.751,62.464 160.600,62.677 160.600 C 62.995 160.600,68.356 156.790,70.059 155.354 C 70.308 155.144,70.589 154.972,70.682 154.972 C 70.821 154.972,74.750 152.157,78.236 149.560 C 78.649 149.253,78.802 148.994,78.575 148.985 C 78.349 148.976,77.758 149.321,77.262 149.751 M270.937 152.449 C 274.300 154.682,282.701 160.832,283.751 161.829 C 284.020 162.085,284.831 162.776,285.553 163.365 C 286.276 163.954,287.584 165.102,288.462 165.916 C 289.339 166.730,290.056 167.289,290.056 167.158 C 290.056 166.780,287.312 164.245,284.539 162.063 C 283.136 160.959,281.904 159.967,281.801 159.859 C 281.033 159.054,278.031 156.848,277.704 156.848 C 277.481 156.848,277.297 156.721,277.296 156.567 C 277.295 156.324,273.610 153.650,271.739 152.533 C 271.393 152.326,270.494 151.693,269.741 151.126 C 268.988 150.558,268.151 150.094,267.882 150.094 C 267.612 150.094,268.987 151.154,270.937 152.449 M59.975 162.008 C 59.906 162.162,59.132 162.776,58.255 163.372 C 57.378 163.967,56.660 164.606,56.660 164.791 C 56.660 164.976,57.589 164.426,58.724 163.569 C 59.859 162.712,60.788 161.947,60.788 161.869 C 60.788 161.606,60.102 161.723,59.975 162.008 M55.159 165.816 C 54.287 166.823,53.188 168.885,53.407 169.104 C 53.515 169.212,53.889 168.736,54.238 168.046 C 54.587 167.356,55.219 166.412,55.644 165.947 C 56.069 165.483,56.260 165.117,56.069 165.134 C 55.878 165.152,55.469 165.458,55.159 165.816 M290.432 167.414 C 290.432 167.649,291.550 168.830,293.556 170.712 C 295.073 172.135,295.448 172.121,294.061 170.693 C 292.425 169.008,290.432 167.207,290.432 167.414 M296.435 173.297 C 296.435 173.456,297.026 174.159,297.749 174.859 C 298.471 175.559,299.062 176.020,299.062 175.883 C 299.062 175.747,298.471 175.044,297.749 174.321 C 297.026 173.599,296.435 173.138,296.435 173.297 M53.290 175.307 C 53.276 175.881,54.887 178.236,55.290 178.231 C 55.578 178.227,55.592 178.133,55.333 177.949 C 55.118 177.798,54.572 177.083,54.119 176.360 C 53.667 175.638,53.293 175.164,53.290 175.307 M299.760 176.984 C 299.990 177.431,300.316 177.853,300.482 177.922 C 300.649 177.992,301.771 179.231,302.975 180.675 C 305.579 183.800,305.962 184.206,305.769 183.636 C 305.584 183.088,303.043 180.035,300.984 177.887 C 300.080 176.944,299.529 176.538,299.760 176.984 M60.038 181.923 C 60.038 182.109,60.755 182.749,61.632 183.344 C 62.509 183.939,63.344 184.590,63.488 184.791 C 63.632 184.992,63.850 185.055,63.974 184.931 C 64.098 184.807,63.474 184.185,62.588 183.549 C 61.701 182.912,60.765 182.210,60.507 181.988 C 60.249 181.766,60.038 181.736,60.038 181.923 M306.531 185.084 C 308.579 187.521,309.090 187.966,307.825 186.210 C 307.045 185.127,306.275 184.240,306.114 184.240 C 305.953 184.240,306.140 184.620,306.531 185.084 M64.746 185.466 C 64.998 186.123,66.319 186.714,66.695 186.338 C 66.817 186.216,66.691 186.116,66.415 186.116 C 66.139 186.116,65.597 185.830,65.210 185.481 C 64.569 184.900,64.529 184.899,64.746 185.466 M67.671 187.522 C 67.806 187.740,68.803 188.509,69.887 189.231 C 70.971 189.954,72.263 190.899,72.759 191.332 C 73.255 191.766,73.828 192.120,74.033 192.120 C 74.431 192.120,72.263 190.418,69.267 188.379 C 68.255 187.690,67.537 187.305,67.671 187.522 M311.224 191.252 C 311.549 191.910,311.985 192.553,312.192 192.681 C 312.874 193.102,312.562 192.330,311.588 191.182 L 310.633 190.056 311.224 191.252 M76.173 193.585 C 76.173 193.777,76.806 194.317,77.580 194.784 C 78.354 195.250,79.628 196.129,80.411 196.736 C 81.195 197.343,81.897 197.776,81.972 197.700 C 82.047 197.624,80.773 196.588,79.141 195.398 C 77.508 194.208,76.173 193.392,76.173 193.585 M313.696 195.030 C 313.696 195.236,313.949 195.616,314.259 195.872 C 314.573 196.133,314.822 196.174,314.822 195.964 C 314.822 195.758,314.568 195.379,314.259 195.122 C 313.945 194.861,313.696 194.821,313.696 195.030 M315.609 197.915 C 316.043 198.650,316.550 199.346,316.736 199.461 C 316.922 199.576,316.719 199.068,316.286 198.333 C 315.852 197.597,315.345 196.902,315.159 196.787 C 314.973 196.672,315.175 197.179,315.609 197.915 M88.368 202.395 C 89.516 203.369,90.288 203.680,89.867 202.999 C 89.739 202.791,89.095 202.355,88.438 202.031 L 87.242 201.440 88.368 202.395 M97.186 208.602 C 97.702 209.030,98.346 209.567,98.618 209.794 C 98.889 210.021,99.194 210.124,99.296 210.023 C 99.397 209.921,99.006 209.510,98.427 209.108 C 96.847 208.014,96.120 207.717,97.186 208.602 M321.657 208.068 C 322.616 210.531,323.827 212.322,323.827 211.279 C 323.827 211.061,323.659 210.882,323.452 210.882 C 323.246 210.882,323.076 210.671,323.074 210.413 C 323.073 210.155,322.721 209.437,322.291 208.818 C 321.862 208.199,321.577 207.861,321.657 208.068 M100.018 210.606 C 100.200 211.081,102.439 212.611,102.439 212.261 C 102.439 212.171,101.851 211.648,101.132 211.100 C 100.413 210.551,99.912 210.329,100.018 210.606 M323.871 212.431 C 323.847 212.766,324.081 213.252,324.390 213.508 C 324.779 213.831,324.953 213.845,324.953 213.554 C 324.953 213.323,324.797 213.133,324.605 213.133 C 324.414 213.133,324.180 212.838,324.086 212.477 C 323.941 211.923,323.908 211.915,323.871 212.431 M105.066 214.243 C 106.100 215.099,106.845 215.661,108.076 216.510 C 108.525 216.820,109.762 217.719,110.825 218.509 C 111.888 219.299,113.096 220.108,113.508 220.307 L 114.259 220.669 113.508 220.072 C 109.687 217.028,102.119 211.802,105.066 214.243 M324.958 214.535 C 324.955 214.790,325.438 215.972,326.030 217.161 C 327.313 219.740,328.025 221.307,328.374 222.326 C 328.606 223.006,328.634 223.012,328.668 222.384 C 328.689 222.003,328.474 221.244,328.191 220.696 C 327.908 220.148,327.066 218.433,326.320 216.886 C 325.574 215.338,324.961 214.280,324.958 214.535 M201.042 218.286 C 201.924 218.366,203.275 218.365,204.044 218.284 C 204.812 218.203,204.090 218.139,202.439 218.140 C 200.788 218.141,200.159 218.207,201.042 218.286 M206.173 218.733 C 206.311 218.955,207.201 219.137,208.152 219.137 C 210.287 219.137,210.141 218.941,207.746 218.593 C 206.480 218.409,206.000 218.452,206.173 218.733 M211.726 219.410 C 212.500 219.491,213.766 219.491,214.540 219.410 C 215.314 219.329,214.681 219.263,213.133 219.263 C 211.585 219.263,210.952 219.329,211.726 219.410 M216.323 219.887 C 216.450 220.094,217.009 220.251,217.564 220.236 C 218.466 220.213,218.494 220.175,217.824 219.887 C 216.781 219.439,216.046 219.439,216.323 219.887 M219.800 220.535 C 220.475 220.618,221.488 220.616,222.052 220.531 C 222.616 220.445,222.064 220.377,220.826 220.379 C 219.587 220.381,219.126 220.451,219.800 220.535 M114.447 220.990 C 114.447 221.209,114.603 221.388,114.795 221.388 C 114.987 221.388,115.371 221.599,115.649 221.857 C 116.412 222.565,118.512 224.015,118.773 224.015 C 119.129 224.015,118.173 223.197,116.224 221.834 C 115.246 221.151,114.447 220.771,114.447 220.990 M223.493 220.980 C 223.721 221.228,224.903 221.499,226.119 221.582 L 228.330 221.732 226.454 221.412 C 225.422 221.236,224.240 220.965,223.827 220.809 C 223.254 220.594,223.175 220.634,223.493 220.980 M228.893 222.125 C 228.893 222.531,232.003 223.056,232.716 222.770 C 232.987 222.662,232.670 222.560,232.013 222.544 C 231.356 222.527,230.385 222.349,229.856 222.148 C 229.291 221.933,228.893 221.924,228.893 222.125 M233.616 223.223 C 233.840 223.467,234.684 223.742,235.492 223.834 C 236.808 223.985,236.844 223.969,235.835 223.680 C 235.216 223.502,234.371 223.227,233.959 223.068 C 233.392 222.850,233.308 222.888,233.616 223.223 M329.006 223.715 C 329.253 223.962,329.456 224.497,329.456 224.903 C 329.456 225.309,329.561 225.536,329.689 225.408 C 330.059 225.038,329.488 223.265,328.998 223.265 C 328.662 223.265,328.663 223.373,329.006 223.715 M237.899 224.308 C 237.899 224.818,239.507 225.309,240.228 225.019 C 240.495 224.912,240.282 224.811,239.756 224.795 C 239.230 224.779,238.597 224.563,238.349 224.315 C 238.007 223.973,237.899 223.971,237.899 224.308 M120.263 225.284 C 121.411 226.258,122.183 226.570,121.762 225.889 C 121.633 225.681,120.990 225.245,120.333 224.920 L 119.137 224.329 120.263 225.284 M241.651 225.704 C 241.908 226.013,242.562 226.247,243.104 226.223 C 243.881 226.189,243.931 226.141,243.340 225.999 C 242.927 225.900,242.429 225.666,242.233 225.480 C 241.637 224.914,241.151 225.101,241.651 225.704 M329.831 226.244 C 329.831 226.438,330.000 226.702,330.206 226.829 C 330.413 226.957,330.582 227.417,330.582 227.852 C 330.582 228.287,330.682 228.542,330.805 228.420 C 331.131 228.094,330.583 225.891,330.177 225.891 C 329.987 225.891,329.831 226.050,329.831 226.244 M123.265 227.316 C 123.884 227.965,124.527 228.502,124.694 228.507 C 125.210 228.525,124.612 227.841,123.347 226.968 L 122.139 226.134 123.265 227.316 M245.028 226.829 C 245.285 227.139,245.939 227.373,246.481 227.349 C 247.258 227.314,247.308 227.267,246.717 227.125 C 246.304 227.025,245.806 226.792,245.610 226.605 C 245.015 226.040,244.528 226.227,245.028 226.829 M248.030 227.685 C 248.030 228.174,249.804 228.745,250.174 228.375 C 250.302 228.247,250.074 228.143,249.669 228.143 C 249.263 228.143,248.728 227.940,248.480 227.692 C 248.138 227.350,248.030 227.348,248.030 227.685 M251.032 229.081 C 251.289 229.390,251.858 229.642,252.297 229.641 C 252.989 229.639,252.952 229.564,252.021 229.078 C 250.666 228.372,250.444 228.372,251.032 229.081 M331.257 229.343 C 331.505 229.591,331.707 230.126,331.707 230.532 C 331.707 230.937,331.812 231.165,331.940 231.037 C 332.310 230.667,331.739 228.893,331.250 228.893 C 330.913 228.893,330.915 229.001,331.257 229.343 M253.659 230.029 C 253.659 230.355,255.115 230.939,255.348 230.706 C 255.421 230.633,255.070 230.380,254.569 230.144 C 254.068 229.908,253.659 229.856,253.659 230.029 M256.285 231.153 C 256.285 231.368,256.546 231.643,256.864 231.765 C 257.744 232.103,257.848 231.739,257.019 231.221 C 256.554 230.931,256.285 230.906,256.285 231.153 M332.083 232.149 C 332.083 232.340,332.235 232.656,332.421 232.852 C 332.608 233.048,332.841 233.546,332.941 233.959 C 333.083 234.550,333.130 234.500,333.165 233.723 C 333.189 233.181,332.955 232.527,332.645 232.270 C 332.336 232.013,332.083 231.959,332.083 232.149 M261.163 233.583 C 261.420 233.893,261.799 234.146,262.006 234.146 C 262.215 234.146,262.174 233.897,261.914 233.583 C 261.657 233.274,261.278 233.021,261.071 233.021 C 260.862 233.021,260.903 233.270,261.163 233.583 M333.220 234.948 C 333.214 235.079,333.455 235.754,333.756 236.448 C 334.161 237.380,334.308 237.508,334.319 236.939 C 334.332 236.269,333.252 234.312,333.220 234.948 M135.090 235.502 C 135.087 235.732,135.802 236.400,136.679 236.986 C 137.556 237.573,138.517 238.229,138.815 238.444 C 139.197 238.722,139.285 238.717,139.113 238.430 C 138.979 238.207,138.145 237.532,137.258 236.930 C 136.372 236.329,135.523 235.668,135.372 235.461 C 135.194 235.218,135.094 235.233,135.090 235.502 M267.167 236.598 C 267.167 236.798,270.062 238.649,270.376 238.649 C 270.498 238.649,270.367 238.438,270.085 238.180 C 269.463 237.611,267.167 236.367,267.167 236.598 M271.670 239.391 C 272.186 239.808,272.812 240.319,273.061 240.525 C 273.625 240.992,274.036 241.015,273.757 240.563 C 273.642 240.377,272.915 239.867,272.140 239.429 C 270.819 238.681,270.790 238.679,271.670 239.391 M334.334 238.903 C 334.334 239.094,334.486 239.410,334.673 239.606 C 334.859 239.802,335.093 240.300,335.192 240.713 C 335.334 241.304,335.382 241.254,335.416 240.477 C 335.440 239.935,335.206 239.281,334.897 239.024 C 334.587 238.767,334.334 238.713,334.334 238.903 M141.786 240.503 C 142.274 240.928,142.851 241.276,143.068 241.276 C 143.530 241.276,143.508 241.257,142.026 240.389 L 140.901 239.730 141.786 240.503 M275.047 241.622 C 275.563 242.051,276.207 242.587,276.479 242.814 C 276.750 243.042,277.055 243.145,277.157 243.043 C 277.258 242.942,276.867 242.530,276.288 242.129 C 274.708 241.034,273.982 240.738,275.047 241.622 M144.133 242.324 C 145.458 243.321,147.092 244.318,147.092 244.131 C 147.092 243.862,143.971 241.651,143.590 241.651 C 143.397 241.651,143.641 241.954,144.133 242.324 M335.705 242.777 C 335.943 243.086,336.216 243.762,336.311 244.278 L 336.483 245.216 336.534 244.230 C 336.562 243.686,336.291 243.013,335.929 242.729 C 335.357 242.281,335.328 242.287,335.705 242.777 M277.873 243.607 C 278.039 244.035,280.300 245.559,280.300 245.243 C 280.300 245.174,279.712 244.669,278.993 244.120 C 278.274 243.572,277.770 243.341,277.873 243.607 M281.989 246.728 C 282.814 247.499,283.905 248.403,284.412 248.737 C 285.853 249.684,288.326 251.958,293.364 256.966 C 295.920 259.508,298.077 261.523,298.156 261.443 C 298.325 261.274,290.269 253.274,287.805 251.164 C 286.876 250.369,285.947 249.534,285.741 249.308 C 285.535 249.082,284.268 248.093,282.927 247.112 C 280.765 245.529,280.658 245.486,281.989 246.728 M336.585 246.408 C 336.585 246.598,336.738 246.915,336.924 247.111 C 337.111 247.307,337.344 247.805,337.444 248.218 C 337.586 248.809,337.633 248.759,337.668 247.982 C 337.691 247.440,337.458 246.786,337.148 246.529 C 336.839 246.272,336.585 246.218,336.585 246.408 M152.533 248.218 C 154.929 250.115,158.365 252.533,158.667 252.533 C 158.861 252.533,159.116 252.786,159.235 253.096 C 159.354 253.405,159.624 253.659,159.834 253.659 C 160.045 253.659,159.929 253.321,159.575 252.908 C 159.222 252.495,158.794 252.158,158.625 252.158 C 158.456 252.158,158.113 251.984,157.864 251.771 C 156.771 250.839,153.217 248.315,152.533 247.985 L 151.782 247.623 152.533 248.218 M338.235 251.973 C 338.462 252.697,338.706 253.112,338.779 252.895 C 338.973 252.313,338.497 250.657,338.135 250.657 C 337.963 250.657,338.008 251.249,338.235 251.973 M160.600 253.989 C 160.600 254.220,160.744 254.409,160.920 254.409 C 161.095 254.409,162.374 255.269,163.762 256.319 C 165.150 257.370,166.367 258.148,166.466 258.049 C 166.566 257.950,165.845 257.327,164.864 256.665 C 163.884 256.003,162.523 255.036,161.841 254.516 C 161.159 253.995,160.600 253.758,160.600 253.989 M338.837 255.414 C 338.837 255.604,338.991 255.920,339.180 256.116 C 339.369 256.312,339.599 256.895,339.692 257.411 C 339.838 258.227,339.867 258.196,339.911 257.175 C 339.939 256.530,339.709 255.792,339.400 255.535 C 339.090 255.278,338.837 255.223,338.837 255.414 M339.962 260.454 C 339.962 260.761,340.117 261.174,340.306 261.370 C 340.495 261.566,340.725 262.148,340.818 262.664 C 340.969 263.505,340.990 263.486,341.025 262.477 C 341.047 261.857,340.816 261.023,340.513 260.622 C 340.101 260.077,339.962 260.034,339.962 260.454 M172.795 262.808 C 173.944 263.782,174.716 264.093,174.295 263.412 C 174.166 263.204,173.523 262.768,172.866 262.443 L 171.670 261.852 172.795 262.808 M199.173 265.103 C 199.038 265.722,198.820 266.567,198.689 266.979 C 198.558 267.392,198.726 267.256,199.061 266.676 C 199.397 266.097,199.614 265.253,199.545 264.800 C 199.439 264.107,199.380 264.154,199.173 265.103 M301.958 266.429 C 302.724 267.454,303.488 268.293,303.657 268.293 C 304.068 268.293,301.628 265.007,301.034 264.760 C 300.777 264.653,301.193 265.404,301.958 266.429 M341.296 266.604 C 341.444 267.017,341.691 267.946,341.846 268.668 L 342.128 269.981 342.171 268.646 C 342.194 267.911,341.947 266.983,341.620 266.582 C 341.035 265.864,341.031 265.864,341.296 266.604 M180.675 268.438 C 181.295 268.964,182.097 269.496,182.458 269.620 C 182.819 269.743,183.114 270.002,183.114 270.194 C 183.114 270.387,183.326 270.538,183.583 270.531 C 184.170 270.514,182.186 268.824,180.675 268.055 L 179.550 267.481 180.675 268.438 M196.686 269.811 C 195.792 270.833,195.197 271.670,195.363 271.670 C 195.726 271.670,198.498 268.601,198.499 268.199 C 198.499 267.759,198.412 267.837,196.686 269.811 M186.326 272.221 C 186.727 272.524,187.308 272.771,187.617 272.770 C 187.944 272.769,187.786 272.544,187.242 272.233 C 186.009 271.528,185.399 271.520,186.326 272.221 M193.246 272.233 C 192.702 272.544,192.544 272.769,192.871 272.770 C 193.180 272.771,193.761 272.524,194.162 272.221 C 195.089 271.520,194.479 271.528,193.246 272.233 M342.414 273.171 C 342.550 273.687,342.793 274.784,342.954 275.610 L 343.246 277.111 343.279 275.610 C 343.298 274.784,343.055 273.687,342.740 273.171 L 342.167 272.233 342.414 273.171 M189.400 273.060 C 189.864 273.150,190.624 273.150,191.088 273.060 C 191.553 272.971,191.173 272.898,190.244 272.898 C 189.315 272.898,188.935 272.971,189.400 273.060 M343.568 281.614 C 343.717 282.233,343.956 283.583,344.099 284.615 L 344.360 286.492 344.399 284.428 C 344.423 283.177,344.214 281.994,343.868 281.426 L 343.297 280.488 343.568 281.614 M315.208 285.929 C 315.209 286.576,315.835 287.683,316.052 287.419 C 316.132 287.322,315.974 286.820,315.702 286.304 C 315.430 285.787,315.208 285.618,315.208 285.929 M316.323 288.037 C 316.323 288.243,316.571 288.740,316.874 289.140 C 317.177 289.541,317.425 289.700,317.425 289.493 C 317.425 289.287,317.177 288.790,316.874 288.390 C 316.571 287.989,316.323 287.830,316.323 288.037 M344.699 292.683 C 344.832 293.405,345.060 295.432,345.206 297.186 L 345.472 300.375 345.515 296.998 C 345.543 294.719,345.379 293.255,345.008 292.495 L 344.458 291.370 344.699 292.683 M318.574 292.596 C 318.574 292.852,318.912 293.691,319.325 294.461 C 319.737 295.231,320.075 295.652,320.075 295.396 C 320.075 295.141,319.737 294.302,319.325 293.531 C 318.912 292.761,318.574 292.340,318.574 292.596 M321.213 298.893 C 321.206 299.110,321.353 299.447,321.540 299.644 C 321.726 299.840,321.960 300.338,322.059 300.750 C 322.235 301.483,322.240 301.482,322.283 300.728 C 322.307 300.303,322.079 299.628,321.776 299.227 C 321.473 298.827,321.219 298.676,321.213 298.893 M322.338 301.895 C 322.332 302.112,322.479 302.449,322.665 302.645 C 322.852 302.841,323.085 303.340,323.185 303.752 C 323.361 304.485,323.366 304.484,323.409 303.730 C 323.433 303.305,323.204 302.630,322.901 302.229 C 322.598 301.829,322.345 301.678,322.338 301.895 M323.452 305.170 C 323.452 305.525,323.621 305.816,323.827 305.816 C 324.034 305.816,324.226 306.280,324.254 306.848 C 324.297 307.724,324.329 307.753,324.467 307.041 C 324.556 306.580,324.364 305.825,324.040 305.363 C 323.559 304.675,323.452 304.640,323.452 305.170 M324.593 308.514 C 324.585 308.863,324.747 309.253,324.953 309.381 C 325.159 309.508,325.351 310.067,325.379 310.623 C 325.423 311.475,325.455 311.504,325.590 310.810 C 325.678 310.357,325.493 309.513,325.179 308.933 C 324.797 308.229,324.603 308.090,324.593 308.514 M325.706 312.777 C 325.705 313.200,325.856 313.706,326.042 313.902 C 326.229 314.098,326.462 314.597,326.562 315.009 C 326.732 315.719,326.745 315.716,326.786 314.958 C 326.810 314.518,326.577 313.673,326.269 313.082 C 325.802 312.188,325.708 312.136,325.706 312.777 M326.855 317.708 C 326.841 318.366,326.998 319.009,327.205 319.137 C 327.411 319.265,327.593 319.739,327.609 320.191 C 327.626 320.643,327.719 320.816,327.818 320.576 C 327.916 320.336,327.745 319.322,327.439 318.325 C 326.930 316.668,326.879 316.614,326.855 317.708 M344.917 322.344 C 344.627 322.808,344.602 323.077,344.849 323.077 C 345.064 323.077,345.339 322.816,345.462 322.498 C 345.799 321.618,345.435 321.514,344.917 322.344 M329.081 324.085 C 329.081 324.452,330.382 325.748,331.238 326.233 C 331.998 326.663,331.781 326.346,330.390 324.994 C 329.670 324.294,329.081 323.885,329.081 324.085 M342.944 325.186 C 342.233 325.933,341.989 326.339,342.402 326.088 C 343.079 325.676,344.688 323.827,344.369 323.827 C 344.296 323.827,343.655 324.439,342.944 325.186 M332.458 327.017 C 332.715 327.326,333.190 327.580,333.514 327.580 C 333.985 327.580,333.957 327.470,333.374 327.029 C 332.421 326.308,331.863 326.301,332.458 327.017 M340.172 327.029 C 339.589 327.470,339.561 327.580,340.032 327.580 C 340.356 327.580,340.831 327.326,341.088 327.017 C 341.682 326.301,341.125 326.308,340.172 327.029 M335.934 327.849 C 336.504 327.935,337.349 327.933,337.810 327.844 C 338.272 327.755,337.805 327.684,336.773 327.687 C 335.741 327.690,335.363 327.763,335.934 327.849 " stroke="none" fill="#cde8fc" fill-rule="evenodd"></path></g></svg>