<svg id="svg" version="1.1" xmlns="http://www.w3.org/2000/svg" xmlns:xlink="http://www.w3.org/1999/xlink" width="400" height="400" viewBox="0, 0, 400,400"><g id="svgg"><path id="path0" d="M304.800 60.800 C 304.800 61.020,304.485 61.204,304.100 61.209 C 303.715 61.214,302.950 61.570,302.400 62.000 C 301.850 62.430,301.175 62.786,300.900 62.791 C 300.625 62.796,300.400 62.980,300.400 63.200 C 300.400 63.420,300.122 63.600,299.783 63.600 C 299.444 63.600,298.949 63.783,298.683 64.007 C 296.735 65.651,296.029 66.123,294.137 67.048 C 292.962 67.623,292.000 68.253,292.000 68.447 C 292.000 68.641,291.728 68.800,291.396 68.800 C 291.064 68.800,290.228 69.340,289.537 70.000 C 288.846 70.660,288.104 71.200,287.888 71.200 C 287.671 71.200,287.203 71.533,286.847 71.941 C 286.491 72.348,285.643 72.968,284.963 73.319 C 284.282 73.669,283.292 74.504,282.763 75.174 C 282.233 75.844,281.576 76.394,281.303 76.396 C 281.029 76.398,279.708 77.480,278.368 78.800 C 277.027 80.120,275.751 81.200,275.533 81.200 C 274.999 81.200,260.823 95.430,259.594 97.200 C 259.060 97.970,257.802 99.410,256.799 100.400 C 255.796 101.390,254.441 102.920,253.789 103.800 C 253.136 104.680,252.107 105.877,251.501 106.460 C 250.896 107.044,250.400 107.697,250.400 107.912 C 250.400 108.127,249.680 109.045,248.800 109.952 C 247.920 110.859,247.200 111.742,247.200 111.915 C 247.200 112.088,246.485 113.032,245.611 114.014 C 244.738 114.997,244.018 115.912,244.011 116.050 C 244.005 116.187,243.370 116.987,242.600 117.828 C 241.830 118.669,241.200 119.503,241.200 119.682 C 241.200 119.861,240.660 120.572,240.000 121.263 C 239.340 121.954,238.800 122.670,238.800 122.855 C 238.800 123.175,237.986 124.272,236.900 125.416 C 236.625 125.706,236.400 126.130,236.400 126.358 C 236.400 126.586,235.866 127.364,235.214 128.087 C 232.907 130.641,232.001 131.805,232.000 132.212 C 232.000 132.438,231.640 132.883,231.200 133.200 C 230.760 133.517,230.400 134.007,230.400 134.288 C 230.400 134.570,230.220 134.800,230.000 134.800 C 229.780 134.800,229.600 135.120,229.600 135.512 C 229.600 135.903,229.240 136.483,228.800 136.800 C 228.360 137.117,228.000 137.580,228.000 137.829 C 228.000 138.078,227.460 138.846,226.800 139.537 C 226.140 140.228,225.600 141.021,225.600 141.300 C 225.600 141.579,225.246 142.029,224.813 142.299 C 224.380 142.570,223.723 143.378,223.353 144.096 C 222.984 144.813,222.348 145.691,221.941 146.047 C 221.533 146.403,221.200 146.948,221.200 147.259 C 221.200 147.569,220.840 148.083,220.400 148.400 C 219.960 148.717,219.600 149.231,219.600 149.541 C 219.600 149.852,219.284 150.397,218.897 150.753 C 218.511 151.109,217.940 151.895,217.630 152.500 C 217.319 153.105,216.915 153.600,216.732 153.600 C 216.550 153.600,216.400 153.870,216.400 154.200 C 216.400 154.530,216.220 154.800,216.000 154.800 C 215.780 154.800,215.600 155.062,215.600 155.382 C 215.600 155.702,215.195 156.398,214.700 156.929 C 213.352 158.374,212.011 160.159,212.005 160.517 C 212.002 160.691,211.640 161.220,211.200 161.692 C 210.760 162.164,210.400 162.787,210.400 163.075 C 210.400 163.364,210.220 163.600,210.000 163.600 C 209.780 163.600,209.600 163.870,209.600 164.200 C 209.600 164.530,209.420 164.800,209.200 164.800 C 208.980 164.800,208.800 165.078,208.800 165.417 C 208.800 165.756,208.440 166.420,208.000 166.892 C 207.560 167.364,207.200 167.987,207.200 168.275 C 207.200 168.564,207.020 168.800,206.800 168.800 C 206.580 168.800,206.400 169.025,206.400 169.300 C 206.399 169.733,205.888 170.457,204.008 172.683 C 203.784 172.949,203.600 173.354,203.600 173.583 C 203.600 173.812,203.420 174.000,203.200 174.000 C 202.980 174.000,202.800 174.360,202.800 174.800 C 202.800 175.240,202.620 175.600,202.400 175.600 C 202.180 175.600,202.000 175.836,202.000 176.125 C 202.000 176.413,201.640 177.036,201.200 177.508 C 200.760 177.980,200.400 178.562,200.400 178.800 C 200.400 179.038,200.040 179.620,199.600 180.092 C 199.160 180.564,198.800 181.187,198.800 181.475 C 198.800 181.764,198.620 182.000,198.400 182.000 C 198.180 182.000,198.000 182.360,198.000 182.800 C 198.000 183.240,197.820 183.600,197.600 183.600 C 197.380 183.600,197.200 183.870,197.200 184.200 C 197.200 184.530,197.020 184.800,196.800 184.800 C 196.580 184.800,196.400 185.160,196.400 185.600 C 196.400 186.040,196.220 186.400,196.000 186.400 C 195.780 186.400,195.600 186.717,195.600 187.104 C 195.600 187.491,195.281 188.007,194.890 188.251 C 194.500 188.495,193.825 189.436,193.390 190.343 C 192.956 191.249,192.465 191.993,192.300 191.995 C 192.135 191.998,192.000 192.360,192.000 192.800 C 192.000 193.240,191.854 193.600,191.675 193.600 C 191.496 193.600,191.102 194.230,190.800 195.000 C 190.498 195.770,190.104 196.400,189.925 196.400 C 189.746 196.400,189.600 196.760,189.600 197.200 C 189.600 197.640,189.420 198.000,189.200 198.000 C 188.980 198.000,188.800 198.278,188.800 198.617 C 188.800 198.956,188.440 199.620,188.000 200.092 C 187.560 200.564,187.200 201.187,187.200 201.475 C 187.200 201.764,187.020 202.000,186.800 202.000 C 186.580 202.000,186.400 202.360,186.400 202.800 C 186.400 203.240,186.220 203.600,186.000 203.600 C 185.780 203.600,185.600 204.031,185.600 204.557 C 185.600 205.084,185.330 205.618,185.000 205.745 C 184.670 205.871,184.400 206.251,184.400 206.587 C 184.400 206.924,184.220 207.200,184.000 207.200 C 183.780 207.200,183.600 207.560,183.600 208.000 C 183.600 208.440,183.448 208.800,183.263 208.800 C 183.077 208.800,182.492 209.655,181.963 210.700 C 181.433 211.745,180.865 212.660,180.700 212.733 C 180.535 212.807,180.400 213.201,180.400 213.610 C 180.400 214.018,180.220 214.464,180.000 214.600 C 179.780 214.736,179.600 215.197,179.600 215.624 C 179.600 216.051,179.420 216.400,179.200 216.400 C 178.980 216.400,178.800 216.636,178.800 216.925 C 178.800 217.213,178.440 217.836,178.000 218.308 C 177.560 218.780,177.200 219.444,177.200 219.783 C 177.200 220.122,177.020 220.400,176.800 220.400 C 176.580 220.400,176.400 220.760,176.400 221.200 C 176.400 221.640,176.220 222.000,176.000 222.000 C 175.780 222.000,175.600 222.341,175.600 222.757 C 175.600 223.174,175.330 223.618,175.000 223.745 C 174.670 223.871,174.400 224.326,174.400 224.754 C 174.400 225.183,174.265 225.593,174.100 225.667 C 173.724 225.834,172.425 227.964,172.129 228.900 C 172.007 229.285,171.748 229.600,171.553 229.600 C 171.359 229.600,171.200 229.960,171.200 230.400 C 171.200 230.840,171.020 231.200,170.800 231.200 C 170.580 231.200,170.400 231.560,170.400 232.000 C 170.400 232.440,170.220 232.800,170.000 232.800 C 169.780 232.800,169.600 233.070,169.600 233.400 C 169.600 233.730,169.420 234.000,169.200 234.000 C 168.980 234.000,168.800 234.360,168.800 234.800 C 168.800 235.240,168.620 235.600,168.400 235.600 C 168.180 235.600,168.000 235.960,168.000 236.400 C 168.000 236.840,167.820 237.200,167.600 237.200 C 167.380 237.200,167.200 237.560,167.200 238.000 C 167.200 238.440,167.020 238.800,166.800 238.800 C 166.580 238.800,166.400 239.036,166.400 239.325 C 166.400 239.613,166.065 240.209,165.655 240.648 C 164.954 241.401,163.194 244.305,162.233 246.297 C 161.995 246.790,161.665 247.195,161.500 247.197 C 161.335 247.199,161.200 247.560,161.200 248.000 C 161.200 248.440,161.050 248.800,160.868 248.800 C 160.685 248.800,160.280 249.295,159.968 249.900 C 158.985 251.804,158.389 252.243,158.130 251.252 C 158.007 250.784,157.748 250.400,157.553 250.400 C 157.359 250.400,157.200 250.122,157.200 249.783 C 157.200 249.150,156.863 248.646,155.300 246.944 C 154.805 246.405,154.400 245.702,154.400 245.382 C 154.400 245.062,154.220 244.800,154.000 244.800 C 153.780 244.800,153.600 244.530,153.600 244.200 C 153.600 243.870,153.420 243.600,153.200 243.600 C 152.980 243.600,152.800 243.280,152.800 242.888 C 152.800 242.497,152.440 241.917,152.000 241.600 C 151.560 241.283,151.200 240.743,151.200 240.400 C 151.200 240.057,150.840 239.517,150.400 239.200 C 149.960 238.883,149.600 238.369,149.600 238.059 C 149.600 237.748,149.268 237.203,148.863 236.847 C 148.457 236.491,147.888 235.750,147.598 235.200 C 146.967 234.004,145.091 231.638,143.300 229.777 C 142.585 229.034,142.000 228.223,142.000 227.974 C 142.000 227.725,141.495 227.044,140.879 226.460 C 140.262 225.877,139.203 224.590,138.526 223.600 C 137.849 222.610,136.283 220.875,135.047 219.745 C 133.811 218.614,132.800 217.525,132.800 217.323 C 132.800 217.121,132.215 216.302,131.500 215.501 C 130.785 214.701,129.390 213.117,128.400 211.982 C 127.410 210.846,125.565 208.836,124.300 207.516 C 123.035 206.195,122.000 204.886,122.000 204.606 C 122.000 204.326,121.280 203.355,120.400 202.448 C 119.520 201.541,118.800 200.648,118.800 200.463 C 118.800 200.278,117.994 199.244,117.008 198.164 C 116.023 197.084,114.853 195.801,114.408 195.314 C 113.964 194.827,113.600 194.314,113.600 194.175 C 113.600 194.035,113.060 193.417,112.400 192.800 C 111.740 192.183,111.200 191.500,111.200 191.281 C 111.200 190.911,109.625 189.200,102.765 182.120 C 99.846 179.108,94.564 174.262,93.127 173.279 C 92.617 172.930,91.909 172.320,91.553 171.922 C 91.197 171.525,90.652 171.200,90.341 171.200 C 90.031 171.200,89.517 170.840,89.200 170.400 C 88.883 169.960,88.303 169.600,87.912 169.600 C 87.520 169.600,87.200 169.420,87.200 169.200 C 87.200 168.980,86.930 168.800,86.600 168.800 C 86.270 168.800,86.000 168.620,86.000 168.400 C 86.000 168.180,85.640 168.000,85.200 168.000 C 84.760 168.000,84.400 167.820,84.400 167.600 C 84.400 167.380,84.040 167.200,83.600 167.200 C 83.160 167.200,82.800 167.020,82.800 166.800 C 82.800 166.580,82.440 166.400,82.000 166.400 C 81.560 166.400,81.200 166.220,81.200 166.000 C 81.200 165.425,76.952 165.506,75.925 166.100 C 74.455 166.950,73.600 167.755,73.600 168.289 C 73.600 168.570,73.420 168.800,73.200 168.800 C 72.980 168.800,72.800 169.329,72.800 169.976 C 72.800 170.623,72.620 171.264,72.400 171.400 C 72.180 171.536,72.000 172.166,72.000 172.800 C 72.000 173.434,71.820 174.064,71.600 174.200 C 71.380 174.336,71.200 175.067,71.200 175.824 C 71.200 176.581,71.020 177.200,70.800 177.200 C 70.580 177.200,70.400 177.740,70.400 178.400 C 70.400 179.060,70.220 179.600,70.000 179.600 C 69.780 179.600,69.600 180.129,69.600 180.776 C 69.600 181.423,69.420 182.064,69.200 182.200 C 68.980 182.336,68.800 183.056,68.800 183.800 C 68.800 184.544,68.620 185.264,68.400 185.400 C 68.180 185.536,68.000 186.177,68.000 186.824 C 68.000 187.471,67.820 188.000,67.600 188.000 C 67.380 188.000,67.200 188.540,67.200 189.200 C 67.200 189.860,67.020 190.400,66.800 190.400 C 66.580 190.400,66.400 190.940,66.400 191.600 C 66.400 192.260,66.220 192.800,66.000 192.800 C 65.780 192.800,65.600 193.353,65.600 194.029 C 65.600 194.704,65.330 195.527,65.000 195.857 C 64.670 196.187,64.400 196.984,64.400 197.629 C 64.400 198.273,64.220 198.800,64.000 198.800 C 63.780 198.800,63.600 199.329,63.600 199.976 C 63.600 200.623,63.420 201.264,63.200 201.400 C 62.980 201.536,62.800 202.357,62.800 203.224 C 62.800 204.091,62.620 204.800,62.400 204.800 C 62.180 204.800,62.000 205.419,62.000 206.176 C 62.000 206.933,61.820 207.664,61.600 207.800 C 61.380 207.936,61.200 208.566,61.200 209.200 C 61.200 209.834,61.020 210.464,60.800 210.600 C 60.580 210.736,60.400 211.737,60.400 212.824 C 60.400 213.911,60.220 214.800,60.000 214.800 C 59.780 214.800,59.600 215.520,59.600 216.400 C 59.600 217.280,59.420 218.000,59.200 218.000 C 58.978 218.000,58.800 219.067,58.800 220.400 C 58.800 221.733,58.622 222.800,58.400 222.800 C 58.180 222.800,58.000 223.610,58.000 224.600 C 58.000 225.590,57.820 226.400,57.600 226.400 C 57.025 226.400,57.104 231.234,57.700 232.517 C 57.975 233.109,58.449 233.595,58.753 233.597 C 59.057 233.599,59.597 233.920,59.953 234.312 C 60.309 234.703,61.723 235.738,63.097 236.612 C 64.470 237.485,65.595 238.335,65.597 238.500 C 65.598 238.665,65.872 238.800,66.204 238.800 C 66.536 238.800,67.372 239.340,68.063 240.000 C 68.754 240.660,69.490 241.200,69.699 241.200 C 69.908 241.200,70.583 241.740,71.200 242.400 C 71.817 243.060,72.519 243.600,72.760 243.600 C 73.002 243.600,73.200 243.780,73.200 244.000 C 73.200 244.220,73.365 244.400,73.567 244.400 C 73.857 244.400,81.340 251.440,84.913 255.075 C 88.886 259.117,93.200 263.778,93.200 264.029 C 93.200 264.200,94.100 265.250,95.200 266.362 C 96.300 267.473,97.200 268.548,97.200 268.751 C 97.200 268.953,98.100 270.038,99.200 271.161 C 100.300 272.285,101.200 273.391,101.200 273.620 C 101.200 273.849,101.605 274.446,102.100 274.946 C 102.595 275.446,103.360 276.363,103.800 276.983 C 104.240 277.603,105.365 278.890,106.300 279.844 C 107.235 280.798,108.000 281.781,108.000 282.029 C 108.000 282.277,108.543 282.986,109.206 283.606 C 109.870 284.226,110.659 285.207,110.959 285.787 C 111.550 286.924,113.643 289.460,116.200 292.136 C 117.080 293.056,118.067 294.324,118.393 294.953 C 118.719 295.581,119.619 296.754,120.393 297.558 C 121.167 298.362,122.250 299.689,122.800 300.507 C 123.350 301.325,123.917 301.996,124.060 301.997 C 124.567 302.003,127.200 304.889,127.200 305.440 C 127.200 305.748,127.380 306.000,127.600 306.000 C 127.820 306.000,128.000 306.194,128.000 306.431 C 128.000 306.669,128.681 307.524,129.513 308.331 C 130.345 309.139,131.462 310.430,131.994 311.200 C 133.016 312.677,134.795 314.399,135.300 314.400 C 135.465 314.400,135.600 314.588,135.600 314.818 C 135.600 315.048,136.005 315.656,136.500 316.168 C 137.710 317.420,138.800 318.765,138.800 319.005 C 138.800 319.113,140.375 320.799,142.300 322.752 C 145.858 326.361,147.200 327.854,147.200 328.204 C 147.200 328.741,166.013 347.200,166.561 347.200 C 166.913 347.200,167.200 347.380,167.200 347.600 C 167.200 348.553,171.288 347.570,172.400 346.349 C 172.730 345.987,173.510 345.047,174.132 344.260 C 174.755 343.473,175.880 342.158,176.632 341.337 C 177.385 340.516,178.000 339.649,178.000 339.410 C 178.000 339.172,178.360 338.717,178.800 338.400 C 179.240 338.083,179.600 337.595,179.600 337.316 C 179.600 336.847,180.279 335.870,181.500 334.584 C 181.775 334.294,182.000 333.814,182.000 333.517 C 182.000 333.220,182.360 332.717,182.800 332.400 C 183.240 332.083,183.600 331.503,183.600 331.112 C 183.600 330.720,183.780 330.400,184.000 330.400 C 184.220 330.400,184.400 330.083,184.400 329.696 C 184.400 329.309,184.742 328.779,185.160 328.518 C 185.845 328.090,186.360 327.292,187.752 324.503 C 187.999 324.010,188.335 323.605,188.500 323.603 C 188.665 323.601,188.800 323.240,188.800 322.800 C 188.800 322.360,188.980 322.000,189.200 322.000 C 189.420 322.000,189.600 321.764,189.600 321.475 C 189.600 321.187,189.960 320.564,190.400 320.092 C 190.840 319.620,191.200 318.956,191.200 318.617 C 191.200 318.278,191.380 318.000,191.600 318.000 C 191.820 318.000,192.000 317.640,192.000 317.200 C 192.000 316.760,192.180 316.400,192.400 316.400 C 192.620 316.400,192.800 315.990,192.800 315.488 C 192.800 314.987,193.160 314.317,193.600 314.000 C 194.040 313.683,194.400 313.103,194.400 312.712 C 194.400 312.320,194.551 312.000,194.736 312.000 C 194.920 312.000,195.415 311.282,195.836 310.405 C 196.256 309.527,196.735 308.807,196.900 308.805 C 197.065 308.802,197.200 308.440,197.200 308.000 C 197.200 307.560,197.346 307.200,197.525 307.200 C 197.704 307.200,198.098 306.570,198.400 305.800 C 198.702 305.030,199.096 304.400,199.275 304.400 C 199.454 304.400,199.600 304.040,199.600 303.600 C 199.600 303.160,199.780 302.800,200.000 302.800 C 200.220 302.800,200.400 302.440,200.400 302.000 C 200.400 301.560,200.580 301.200,200.800 301.200 C 201.020 301.200,201.200 300.840,201.200 300.400 C 201.200 299.960,201.380 299.600,201.600 299.600 C 201.820 299.600,202.004 299.375,202.009 299.100 C 202.014 298.825,202.370 298.150,202.800 297.600 C 203.230 297.050,203.586 296.285,203.591 295.900 C 203.596 295.515,203.780 295.200,204.000 295.200 C 204.220 295.200,204.400 294.859,204.400 294.443 C 204.400 294.026,204.670 293.582,205.000 293.455 C 205.330 293.329,205.600 292.964,205.600 292.646 C 205.600 292.327,205.735 292.007,205.900 291.933 C 206.276 291.766,207.575 289.636,207.871 288.700 C 207.993 288.315,208.252 288.000,208.447 288.000 C 208.641 288.000,208.800 287.640,208.800 287.200 C 208.800 286.760,208.980 286.400,209.200 286.400 C 209.420 286.400,209.600 286.130,209.600 285.800 C 209.600 285.470,209.780 285.200,210.000 285.200 C 210.220 285.200,210.400 284.840,210.400 284.400 C 210.400 283.960,210.580 283.600,210.800 283.600 C 211.020 283.600,211.200 283.280,211.200 282.888 C 211.200 282.497,211.560 281.917,212.000 281.600 C 212.440 281.283,212.800 280.786,212.800 280.495 C 212.800 280.204,213.160 279.580,213.600 279.108 C 214.040 278.636,214.400 278.013,214.400 277.725 C 214.400 277.436,214.539 277.200,214.709 277.200 C 214.879 277.200,215.357 276.570,215.772 275.800 C 216.187 275.030,216.678 274.400,216.863 274.400 C 217.048 274.400,217.200 274.080,217.200 273.688 C 217.200 273.297,217.560 272.717,218.000 272.400 C 218.440 272.083,218.800 271.543,218.800 271.200 C 218.800 270.857,219.160 270.317,219.600 270.000 C 220.040 269.683,220.400 269.143,220.400 268.800 C 220.400 268.457,220.760 267.917,221.200 267.600 C 221.640 267.283,222.000 266.703,222.000 266.312 C 222.000 265.920,222.180 265.600,222.400 265.600 C 222.620 265.600,222.800 265.330,222.800 265.000 C 222.800 264.670,222.950 264.400,223.132 264.400 C 223.315 264.400,223.720 263.905,224.032 263.300 C 224.345 262.695,225.005 261.872,225.500 261.471 C 225.995 261.070,226.400 260.551,226.400 260.318 C 226.400 260.085,226.716 259.603,227.103 259.247 C 227.489 258.891,228.060 258.105,228.370 257.500 C 228.681 256.895,229.085 256.400,229.268 256.400 C 229.450 256.400,229.600 256.130,229.600 255.800 C 229.600 255.470,229.780 255.200,230.000 255.200 C 230.220 255.200,230.400 254.957,230.400 254.659 C 230.400 254.362,230.940 253.554,231.600 252.863 C 232.260 252.172,232.800 251.461,232.800 251.282 C 232.800 251.103,233.415 250.284,234.168 249.463 C 234.920 248.642,236.045 247.322,236.668 246.530 C 237.290 245.737,238.025 244.857,238.300 244.573 C 238.575 244.289,238.800 243.896,238.800 243.699 C 238.800 243.503,239.700 242.378,240.800 241.200 C 241.900 240.022,242.800 238.915,242.800 238.739 C 242.800 238.563,243.700 237.475,244.800 236.322 C 245.900 235.169,246.800 234.088,246.800 233.921 C 246.800 233.754,247.790 232.627,249.000 231.417 C 250.210 230.207,251.200 229.055,251.200 228.857 C 251.200 228.659,251.920 227.755,252.800 226.848 C 253.680 225.941,254.400 225.019,254.400 224.800 C 254.400 224.580,254.545 224.400,254.722 224.400 C 255.220 224.400,257.670 221.996,259.205 220.000 C 259.966 219.010,261.267 217.539,262.095 216.731 C 262.923 215.924,263.600 215.111,263.600 214.926 C 263.600 214.741,264.083 214.232,264.674 213.795 C 265.984 212.825,272.800 206.121,272.800 205.802 C 272.800 205.510,275.501 202.800,275.792 202.800 C 276.087 202.800,283.600 195.272,283.600 194.977 C 283.600 194.686,284.667 193.600,284.952 193.600 C 285.212 193.600,289.793 189.382,297.010 182.500 C 297.760 181.785,298.538 181.200,298.738 181.200 C 298.939 181.200,299.845 180.480,300.752 179.600 C 301.659 178.720,302.589 178.000,302.819 178.000 C 303.048 178.000,303.652 177.595,304.159 177.100 C 305.700 175.598,307.189 174.400,307.515 174.400 C 307.684 174.400,308.083 174.040,308.400 173.600 C 308.717 173.160,309.180 172.800,309.429 172.800 C 309.678 172.800,310.446 172.260,311.137 171.600 C 311.828 170.940,312.598 170.400,312.849 170.400 C 313.101 170.400,313.597 170.074,313.953 169.675 C 314.309 169.276,315.500 168.340,316.600 167.594 C 318.969 165.988,319.600 165.406,319.600 164.829 C 319.600 164.593,319.884 164.400,320.231 164.400 C 320.579 164.400,321.554 163.680,322.400 162.800 C 323.246 161.920,324.129 161.200,324.364 161.200 C 324.853 161.200,325.694 160.539,328.440 158.000 C 329.510 157.010,331.570 155.120,333.017 153.800 C 334.464 152.480,336.623 150.455,337.815 149.300 C 339.007 148.145,340.257 147.200,340.591 147.200 C 340.926 147.200,341.200 147.020,341.200 146.800 C 341.200 146.580,341.430 146.400,341.711 146.400 C 342.455 146.400,343.600 144.925,343.600 143.967 C 343.600 143.186,344.444 142.000,345.000 142.000 C 345.565 142.000,346.400 140.808,346.400 140.002 C 346.400 139.532,346.580 138.810,346.801 138.398 C 347.069 137.897,347.069 137.566,346.801 137.401 C 346.580 137.264,346.400 136.700,346.400 136.146 C 346.400 135.022,344.428 132.800,343.431 132.800 C 343.084 132.800,342.800 132.620,342.800 132.400 C 342.800 132.180,341.900 132.000,340.800 132.000 C 339.067 132.000,338.800 131.893,338.800 131.200 C 338.800 130.760,338.620 130.400,338.400 130.400 C 338.180 130.400,338.000 130.040,338.000 129.600 C 338.000 129.160,337.820 128.800,337.600 128.800 C 337.380 128.800,337.200 128.440,337.200 128.000 C 337.200 127.560,337.020 127.200,336.800 127.200 C 336.580 127.200,336.400 126.840,336.400 126.400 C 336.400 125.960,336.220 125.600,336.000 125.600 C 335.780 125.600,335.600 125.234,335.600 124.787 C 335.600 124.341,335.330 123.871,335.000 123.745 C 334.658 123.613,334.400 123.017,334.400 122.357 C 334.400 121.721,334.220 121.200,334.000 121.200 C 333.780 121.200,333.600 120.840,333.600 120.400 C 333.600 119.960,333.420 119.600,333.200 119.600 C 332.980 119.600,332.800 119.060,332.800 118.400 C 332.800 117.740,332.620 117.200,332.400 117.200 C 332.180 117.200,332.000 116.660,332.000 116.000 C 332.000 115.340,331.820 114.800,331.600 114.800 C 331.380 114.800,331.200 114.170,331.200 113.400 C 331.200 112.630,331.020 112.000,330.800 112.000 C 330.580 112.000,330.400 111.460,330.400 110.800 C 330.400 110.140,330.220 109.600,330.000 109.600 C 329.780 109.600,329.600 108.981,329.600 108.224 C 329.600 107.467,329.420 106.736,329.200 106.600 C 328.980 106.464,328.800 105.834,328.800 105.200 C 328.800 104.566,328.620 103.936,328.400 103.800 C 328.180 103.664,328.000 102.944,328.000 102.200 C 328.000 101.456,327.840 100.748,327.644 100.627 C 327.449 100.506,327.179 99.776,327.044 99.004 C 326.910 98.232,326.690 96.970,326.556 96.200 C 326.422 95.430,326.152 94.800,325.956 94.800 C 325.760 94.800,325.600 94.294,325.600 93.676 C 325.600 93.059,325.336 92.204,325.013 91.776 C 324.690 91.349,324.420 90.505,324.413 89.900 C 324.406 89.295,324.220 88.800,324.000 88.800 C 323.780 88.800,323.600 88.181,323.600 87.424 C 323.600 86.667,323.420 85.936,323.200 85.800 C 322.980 85.664,322.800 85.034,322.800 84.400 C 322.800 83.766,322.620 83.136,322.400 83.000 C 322.180 82.864,322.000 82.401,322.000 81.971 C 322.000 81.541,321.820 80.832,321.600 80.395 C 321.380 79.958,321.020 79.242,320.800 78.805 C 320.580 78.368,320.400 77.648,320.400 77.205 C 320.400 76.762,320.220 76.400,320.000 76.400 C 319.780 76.400,319.600 76.038,319.600 75.595 C 319.600 74.817,319.458 74.431,318.462 72.505 C 318.208 72.013,318.000 71.338,318.000 71.005 C 318.000 70.672,317.820 70.400,317.600 70.400 C 317.380 70.400,317.200 70.040,317.200 69.600 C 317.200 69.160,317.065 68.798,316.900 68.795 C 316.735 68.793,316.256 68.073,315.836 67.195 C 315.415 66.318,314.920 65.600,314.736 65.600 C 314.551 65.600,314.400 65.330,314.400 65.000 C 314.400 64.670,314.220 64.400,314.000 64.400 C 313.780 64.400,313.600 64.040,313.600 63.600 C 313.600 63.160,313.420 62.800,313.200 62.800 C 312.980 62.800,312.800 62.604,312.800 62.364 C 312.800 61.145,310.995 60.427,307.900 60.413 C 306.091 60.406,304.800 60.567,304.800 60.800 M308.861 75.955 C 311.054 80.542,312.439 83.969,313.565 87.600 C 314.077 89.250,314.629 90.960,314.792 91.400 C 315.092 92.207,315.474 93.497,316.392 96.800 C 316.668 97.790,317.031 99.050,317.200 99.600 C 317.592 100.878,318.069 102.583,319.824 109.000 C 320.606 111.860,321.569 115.190,321.963 116.400 C 322.357 117.610,323.076 119.860,323.560 121.400 C 324.045 122.940,324.588 124.560,324.767 125.000 C 326.583 129.458,327.253 130.966,328.785 134.050 C 329.618 135.727,330.539 138.033,330.832 139.173 L 331.363 141.247 328.943 143.557 C 327.612 144.827,324.561 147.528,322.162 149.559 C 319.763 151.590,316.990 153.940,316.000 154.782 C 315.010 155.623,312.940 157.263,311.400 158.425 C 309.860 159.587,308.137 160.912,307.571 161.369 C 307.006 161.826,306.016 162.588,305.371 163.063 C 297.381 168.948,291.193 173.823,288.364 176.461 C 287.574 177.198,284.967 179.600,282.571 181.800 C 264.211 198.657,247.626 216.327,233.765 233.800 C 229.121 239.654,219.946 251.804,217.604 255.200 C 217.073 255.970,216.530 256.690,216.398 256.800 C 215.913 257.204,206.800 270.798,206.800 271.118 C 206.800 271.300,206.485 271.807,206.100 272.245 C 205.715 272.683,205.139 273.482,204.820 274.020 C 204.501 274.559,202.749 277.464,200.927 280.475 C 199.105 283.486,197.251 286.591,196.807 287.375 C 194.982 290.598,194.459 291.543,192.812 294.600 C 191.864 296.360,190.960 297.980,190.803 298.200 C 190.521 298.598,187.415 304.342,185.829 307.400 C 185.373 308.280,184.910 309.090,184.800 309.200 C 184.690 309.310,184.219 310.120,183.754 311.000 C 182.314 313.725,180.039 317.621,179.200 318.799 C 178.760 319.418,178.400 320.032,178.400 320.165 C 178.400 320.385,171.194 331.350,169.652 333.476 C 168.740 334.733,167.783 334.617,166.287 333.068 C 159.337 325.875,155.891 322.257,154.222 320.400 C 153.133 319.190,151.333 317.210,150.222 316.000 C 149.110 314.790,146.940 312.377,145.400 310.638 C 143.860 308.899,142.420 307.278,142.200 307.034 C 141.980 306.791,140.723 305.334,139.406 303.796 C 138.089 302.258,136.917 300.910,136.800 300.800 C 136.684 300.690,135.784 299.610,134.800 298.400 C 133.816 297.190,132.910 296.110,132.787 296.000 C 132.499 295.744,126.638 288.682,124.800 286.377 C 124.030 285.411,122.410 283.424,121.200 281.961 C 119.990 280.498,118.100 278.188,117.000 276.828 C 115.900 275.467,114.665 273.959,114.255 273.477 C 113.845 272.995,113.041 271.970,112.468 271.200 C 111.895 270.430,110.881 269.157,110.213 268.372 C 109.546 267.586,108.640 266.503,108.200 265.965 C 107.760 265.428,106.592 264.000,105.605 262.794 C 104.619 261.587,103.716 260.510,103.600 260.400 C 103.483 260.290,102.311 258.940,100.994 257.400 C 95.243 250.673,85.626 241.036,80.034 236.397 C 78.842 235.409,77.672 234.420,77.433 234.200 C 76.725 233.549,73.435 231.132,70.628 229.200 C 67.717 227.197,67.685 227.103,68.462 223.024 C 68.925 220.594,71.704 209.026,72.455 206.400 C 72.675 205.630,72.947 204.550,73.058 204.000 C 73.169 203.450,73.406 202.640,73.585 202.200 C 73.763 201.760,74.133 200.590,74.408 199.600 C 74.683 198.610,75.221 196.810,75.605 195.600 C 75.988 194.390,76.703 192.050,77.193 190.400 C 77.682 188.750,78.694 185.502,79.442 183.182 C 80.189 180.863,80.800 178.748,80.800 178.482 C 80.800 175.540,94.583 186.951,102.684 196.600 C 104.271 198.490,111.914 207.923,114.519 211.206 C 115.552 212.508,118.600 216.211,118.795 216.400 C 118.908 216.510,120.077 217.860,121.392 219.400 C 122.708 220.940,124.063 222.470,124.404 222.800 C 124.744 223.130,126.008 224.570,127.211 226.000 C 128.415 227.430,129.501 228.690,129.624 228.800 C 129.826 228.981,134.720 234.926,135.876 236.395 C 141.312 243.302,149.388 255.811,154.516 265.264 C 155.777 267.588,157.779 268.299,160.036 267.224 C 161.671 266.446,164.000 263.867,164.000 262.836 C 164.000 262.596,164.135 262.399,164.300 262.397 C 164.465 262.395,164.797 261.990,165.037 261.497 C 165.277 261.004,166.693 258.620,168.184 256.200 C 169.674 253.780,171.232 251.215,171.647 250.500 C 172.945 248.260,174.077 246.265,175.109 244.400 C 175.657 243.410,177.043 240.980,178.190 239.000 C 180.128 235.655,182.107 232.070,184.154 228.200 C 184.619 227.320,185.090 226.510,185.201 226.400 C 185.311 226.290,185.671 225.661,186.001 225.003 C 186.616 223.773,188.849 219.641,191.191 215.400 C 191.919 214.080,193.004 212.100,193.600 211.000 C 195.334 207.802,197.143 204.563,200.274 199.046 C 201.883 196.211,203.200 193.736,203.200 193.546 C 203.200 193.356,203.359 193.200,203.553 193.200 C 203.748 193.200,204.007 192.885,204.129 192.500 C 204.425 191.564,205.724 189.434,206.100 189.267 C 206.265 189.193,206.400 188.989,206.400 188.813 C 206.400 188.460,211.039 180.781,212.855 178.128 C 213.485 177.208,214.000 176.263,214.000 176.028 C 214.000 175.793,214.180 175.600,214.400 175.600 C 214.620 175.600,214.800 175.422,214.800 175.205 C 214.800 174.783,221.443 164.556,222.293 163.671 C 222.572 163.381,222.800 162.989,222.800 162.800 C 222.800 162.611,223.036 162.219,223.325 161.929 C 223.614 161.638,224.954 159.780,226.304 157.800 C 227.654 155.820,229.352 153.371,230.079 152.358 C 230.806 151.345,232.020 149.635,232.777 148.558 C 233.534 147.481,234.299 146.540,234.477 146.467 C 234.655 146.393,234.800 146.158,234.800 145.943 C 234.800 145.729,235.309 144.889,235.932 144.077 C 236.555 143.264,238.185 141.070,239.555 139.200 C 240.925 137.330,242.306 135.483,242.623 135.095 C 242.940 134.708,243.200 134.304,243.200 134.199 C 243.200 134.093,243.846 133.150,244.635 132.103 C 245.424 131.057,246.459 129.675,246.935 129.033 C 247.411 128.392,248.520 126.932,249.400 125.789 C 250.280 124.646,251.450 123.115,252.000 122.386 C 261.801 109.392,274.945 95.105,284.561 86.992 C 285.859 85.896,287.119 84.814,287.361 84.587 C 289.286 82.774,300.540 74.800,301.172 74.800 C 301.407 74.800,301.600 74.641,301.600 74.447 C 301.600 74.252,301.915 73.990,302.300 73.864 C 302.685 73.737,303.720 73.199,304.600 72.668 C 306.610 71.454,306.768 71.577,308.861 75.955 " stroke="none" fill="#040404" fill-rule="evenodd"></path><path id="path1" d="M304.500 73.340 C 304.005 73.587,303.600 73.927,303.600 74.095 C 303.600 74.263,303.413 74.400,303.185 74.400 C 302.474 74.400,292.534 81.302,288.800 84.388 C 288.030 85.025,286.774 86.053,286.009 86.673 C 279.954 91.578,268.260 103.527,261.612 111.600 C 260.254 113.250,258.840 114.962,258.471 115.405 C 256.856 117.344,255.732 118.748,254.800 119.992 C 254.250 120.726,253.614 121.523,253.387 121.763 C 253.160 122.004,252.538 122.830,252.006 123.600 C 251.474 124.370,250.937 125.090,250.814 125.200 C 250.690 125.310,249.511 126.839,248.194 128.599 C 246.877 130.358,245.581 132.029,245.314 132.313 C 245.047 132.597,244.513 133.363,244.128 134.015 C 243.743 134.667,243.286 135.200,243.114 135.200 C 242.941 135.200,242.800 135.436,242.800 135.725 C 242.800 136.013,242.482 136.598,242.094 137.025 C 241.705 137.451,240.501 139.060,239.418 140.600 C 238.335 142.140,237.334 143.490,237.194 143.600 C 237.054 143.710,236.157 144.970,235.200 146.400 C 234.243 147.830,233.347 149.090,233.208 149.200 C 233.069 149.310,231.534 151.470,229.796 154.000 C 228.058 156.530,226.493 158.660,226.318 158.733 C 226.143 158.807,226.000 159.107,226.000 159.400 C 226.000 159.693,225.840 159.993,225.644 160.067 C 225.448 160.140,223.349 163.170,220.980 166.800 C 218.610 170.430,216.565 173.490,216.436 173.600 C 216.050 173.927,214.768 176.146,214.529 176.900 C 214.407 177.285,214.148 177.600,213.953 177.600 C 213.759 177.600,213.600 177.870,213.600 178.200 C 213.600 178.530,213.420 178.800,213.200 178.800 C 212.980 178.800,212.800 178.993,212.800 179.228 C 212.800 179.463,212.260 180.441,211.600 181.400 C 210.940 182.359,210.400 183.240,210.400 183.358 C 210.400 183.476,209.410 185.107,208.200 186.982 C 206.990 188.858,206.000 190.559,206.000 190.763 C 206.000 190.967,205.865 191.193,205.700 191.267 C 205.324 191.434,204.025 193.564,203.729 194.500 C 203.607 194.885,203.348 195.200,203.153 195.200 C 202.959 195.200,202.800 195.560,202.800 196.000 C 202.800 196.440,202.620 196.800,202.400 196.800 C 202.180 196.800,202.000 196.957,202.000 197.149 C 202.000 197.446,199.749 201.533,196.685 206.800 C 196.237 207.570,195.205 209.460,194.393 211.000 C 191.175 217.098,189.488 220.218,189.204 220.600 C 188.860 221.061,187.019 224.405,185.350 227.600 C 184.717 228.810,184.108 229.890,183.995 230.000 C 183.882 230.110,183.344 231.100,182.800 232.200 C 182.256 233.300,181.718 234.290,181.605 234.400 C 181.491 234.510,181.129 235.140,180.799 235.800 C 180.470 236.460,179.435 238.310,178.500 239.912 C 177.565 241.513,176.800 242.998,176.800 243.212 C 176.800 243.425,176.665 243.601,176.500 243.603 C 176.335 243.605,176.002 244.010,175.760 244.503 C 174.929 246.195,173.400 249.000,173.199 249.200 C 173.089 249.310,172.729 249.936,172.399 250.592 C 171.613 252.156,167.004 259.740,165.545 261.872 C 164.915 262.792,164.400 263.737,164.400 263.972 C 164.400 264.207,164.220 264.400,164.000 264.400 C 163.780 264.400,163.600 264.636,163.600 264.925 C 163.600 265.214,163.105 265.912,162.500 266.476 C 159.263 269.495,155.712 269.161,153.954 265.671 C 153.435 264.642,152.908 263.710,152.782 263.600 C 152.656 263.490,151.860 262.140,151.013 260.600 C 150.166 259.060,148.962 257.048,148.337 256.128 C 147.712 255.208,147.200 254.341,147.200 254.200 C 147.200 254.059,146.660 253.159,146.000 252.200 C 145.340 251.241,144.800 250.278,144.800 250.061 C 144.800 249.844,144.642 249.607,144.449 249.533 C 144.256 249.460,143.394 248.306,142.533 246.969 C 141.117 244.767,138.554 241.143,137.323 239.600 C 137.060 239.270,135.985 237.830,134.935 236.400 C 133.885 234.970,132.744 233.530,132.399 233.200 C 132.054 232.870,131.358 232.060,130.853 231.400 C 130.348 230.740,129.364 229.570,128.666 228.800 C 127.969 228.030,126.883 226.770,126.254 226.000 C 125.625 225.230,123.736 223.091,122.055 221.246 C 120.375 219.401,118.735 217.511,118.412 217.046 C 118.088 216.581,117.426 215.799,116.939 215.309 C 116.453 214.819,115.547 213.739,114.927 212.909 C 114.307 212.080,113.479 211.045,113.087 210.611 C 112.695 210.177,111.345 208.466,110.087 206.811 C 108.829 205.155,107.440 203.426,107.000 202.969 C 106.560 202.512,105.750 201.539,105.200 200.806 C 104.650 200.073,104.020 199.275,103.800 199.032 C 103.580 198.789,102.143 197.152,100.608 195.395 C 97.961 192.366,91.445 185.767,89.693 184.338 C 82.861 178.772,81.200 177.929,81.200 180.029 C 81.200 180.459,81.038 181.123,80.841 181.505 C 80.643 181.887,79.817 184.360,79.005 187.000 C 78.192 189.640,77.364 192.113,77.164 192.495 C 76.964 192.877,76.800 193.631,76.800 194.171 C 76.800 194.711,76.620 195.264,76.400 195.400 C 76.180 195.536,76.000 196.076,76.000 196.600 C 76.000 197.124,75.820 197.664,75.600 197.800 C 75.380 197.936,75.200 198.566,75.200 199.200 C 75.200 199.834,75.020 200.464,74.800 200.600 C 74.580 200.736,74.400 201.366,74.400 202.000 C 74.400 202.634,74.220 203.264,74.000 203.400 C 73.780 203.536,73.600 204.166,73.600 204.800 C 73.600 205.434,73.440 206.052,73.244 206.173 C 73.049 206.294,72.792 206.979,72.673 207.696 C 72.555 208.413,72.265 209.765,72.029 210.700 C 71.093 214.410,70.742 215.867,70.415 217.400 C 69.765 220.452,69.143 223.808,68.928 225.427 L 68.712 227.055 72.456 229.718 C 74.515 231.183,76.671 232.790,77.247 233.290 C 77.822 233.791,78.889 234.650,79.618 235.200 C 84.075 238.565,95.745 250.235,102.200 257.783 C 103.300 259.069,104.381 260.319,104.602 260.561 C 104.823 260.802,105.813 261.987,106.802 263.194 C 108.729 265.546,109.532 266.509,110.676 267.847 C 111.074 268.312,111.850 269.281,112.400 270.000 C 112.950 270.719,113.670 271.622,114.000 272.008 C 114.330 272.394,115.140 273.395,115.800 274.232 C 116.460 275.069,118.046 277.024,119.325 278.577 C 121.848 281.640,121.931 281.743,124.000 284.401 C 124.770 285.391,125.788 286.650,126.261 287.200 C 126.735 287.750,128.236 289.550,129.596 291.200 C 132.149 294.297,134.696 297.340,135.406 298.142 C 135.629 298.394,137.041 300.040,138.544 301.800 C 142.065 305.923,147.517 312.087,150.400 315.203 C 150.950 315.797,153.020 318.050,155.000 320.209 C 158.801 324.354,159.767 325.381,164.921 330.759 L 168.140 334.119 169.074 332.959 C 170.820 330.791,176.400 322.470,176.400 322.034 C 176.400 321.795,176.559 321.600,176.753 321.600 C 176.948 321.600,177.213 321.285,177.342 320.900 C 177.600 320.135,178.348 318.821,180.256 315.781 C 181.483 313.826,183.715 309.849,184.564 308.103 C 184.804 307.610,185.135 307.205,185.300 307.203 C 185.465 307.201,185.600 306.855,185.600 306.433 C 185.600 306.012,185.735 305.607,185.900 305.533 C 186.065 305.460,186.650 304.500,187.200 303.400 C 187.750 302.300,189.145 299.720,190.300 297.667 C 191.455 295.613,192.400 293.768,192.400 293.567 C 192.400 293.365,192.538 293.200,192.706 293.200 C 192.874 293.200,193.322 292.525,193.701 291.700 C 194.080 290.875,194.935 289.300,195.600 288.200 C 196.265 287.100,197.120 285.525,197.499 284.700 C 197.878 283.875,198.326 283.200,198.494 283.200 C 198.662 283.200,198.800 283.031,198.800 282.825 C 198.800 282.496,202.657 276.055,203.486 275.000 C 203.659 274.780,204.055 274.105,204.368 273.500 C 204.680 272.895,205.085 272.400,205.268 272.400 C 205.450 272.400,205.600 272.219,205.600 271.998 C 205.600 271.331,213.344 259.743,215.826 256.695 C 216.142 256.308,216.400 255.847,216.400 255.671 C 216.400 255.495,216.718 255.002,217.106 254.575 C 217.495 254.149,218.699 252.540,219.782 251.000 C 220.865 249.460,221.861 248.110,221.995 248.000 C 222.129 247.890,222.671 247.170,223.200 246.400 C 223.729 245.630,224.269 244.910,224.400 244.800 C 224.531 244.690,225.077 243.970,225.614 243.200 C 226.150 242.430,226.808 241.530,227.076 241.200 C 227.602 240.552,230.660 236.686,232.600 234.216 C 233.260 233.376,233.986 232.489,234.213 232.244 C 234.440 232.000,235.062 231.170,235.594 230.400 C 236.126 229.630,236.660 228.910,236.781 228.800 C 236.901 228.690,237.683 227.749,238.519 226.710 C 239.354 225.670,240.254 224.590,240.519 224.309 C 240.783 224.029,241.720 222.902,242.600 221.806 C 249.365 213.378,274.071 188.175,283.846 179.731 C 284.311 179.329,286.201 177.621,288.046 175.935 C 291.053 173.187,292.946 171.631,297.208 168.400 C 297.933 167.850,298.755 167.175,299.035 166.900 C 299.314 166.625,299.659 166.400,299.800 166.400 C 299.941 166.400,300.285 166.175,300.563 165.900 C 300.841 165.625,301.572 165.040,302.187 164.600 C 303.427 163.714,311.053 157.876,312.000 157.088 C 312.330 156.813,313.230 156.150,314.000 155.613 C 314.770 155.077,315.670 154.355,316.000 154.009 C 316.330 153.663,317.680 152.484,319.000 151.390 C 320.320 150.295,321.490 149.305,321.600 149.190 C 321.710 149.074,322.958 147.994,324.373 146.790 C 328.444 143.326,330.400 141.380,330.400 140.797 C 330.400 139.855,329.534 137.506,327.894 134.000 C 326.382 130.766,326.008 129.909,325.100 127.600 C 324.884 127.050,324.548 126.287,324.353 125.905 C 324.159 125.523,324.000 124.936,324.000 124.600 C 324.000 124.264,323.825 123.677,323.611 123.295 C 323.202 122.565,320.861 115.475,320.013 112.400 C 319.740 111.410,319.355 110.187,319.158 109.681 C 318.961 109.176,318.800 108.331,318.800 107.805 C 318.800 107.278,318.620 106.736,318.400 106.600 C 318.180 106.464,318.000 105.834,318.000 105.200 C 318.000 104.566,317.840 103.948,317.644 103.827 C 317.308 103.619,317.185 103.124,316.567 99.496 C 316.427 98.669,316.151 97.894,315.956 97.773 C 315.760 97.652,315.600 97.034,315.600 96.400 C 315.600 95.766,315.420 95.136,315.200 95.000 C 314.980 94.864,314.800 94.234,314.800 93.600 C 314.800 92.966,314.620 92.336,314.400 92.200 C 314.180 92.064,314.000 91.524,314.000 91.000 C 314.000 90.476,313.820 89.936,313.600 89.800 C 313.380 89.664,313.200 89.238,313.200 88.854 C 313.200 87.829,309.999 79.874,307.800 75.434 C 306.554 72.919,306.019 72.580,304.500 73.340 " stroke="none" fill="#3bb37b" fill-rule="evenodd"></path><path id="path2" d="M269.375 102.100 L 268.200 103.400 269.500 102.225 C 270.215 101.579,270.800 100.994,270.800 100.925 C 270.800 100.616,270.470 100.888,269.375 102.100 M328.175 143.700 L 327.000 145.000 328.300 143.825 C 329.015 143.179,329.600 142.594,329.600 142.525 C 329.600 142.216,329.270 142.488,328.175 143.700 M283.578 180.300 L 282.200 181.800 283.700 180.422 C 285.096 179.138,285.384 178.800,285.078 178.800 C 285.012 178.800,284.337 179.475,283.578 180.300 M276.378 187.100 L 275.000 188.600 276.500 187.222 C 277.896 185.938,278.184 185.600,277.878 185.600 C 277.812 185.600,277.137 186.275,276.378 187.100 M98.400 192.600 C 99.146 193.370,99.847 194.000,99.957 194.000 C 100.067 194.000,99.546 193.370,98.800 192.600 C 98.054 191.830,97.353 191.200,97.243 191.200 C 97.133 191.200,97.654 191.830,98.400 192.600 M263.800 199.200 C 260.506 202.500,257.900 205.200,258.010 205.200 C 258.120 205.200,260.906 202.500,264.200 199.200 C 267.494 195.900,270.100 193.200,269.990 193.200 C 269.880 193.200,267.094 195.900,263.800 199.200 M92.800 248.200 C 93.995 249.410,95.063 250.400,95.173 250.400 C 95.283 250.400,94.395 249.410,93.200 248.200 C 92.005 246.990,90.937 246.000,90.827 246.000 C 90.717 246.000,91.605 246.990,92.800 248.200 " stroke="none" fill="#226f4c" fill-rule="evenodd"></path><path id="path3" d="M294.000 80.047 C 291.746 81.731,289.732 83.523,291.402 82.359 C 294.945 79.890,296.797 78.393,296.300 78.402 C 296.245 78.403,295.210 79.143,294.000 80.047 M281.575 90.308 L 279.800 92.199 281.594 90.600 C 282.580 89.720,283.465 88.955,283.561 88.900 C 283.656 88.845,283.647 88.714,283.542 88.608 C 283.436 88.503,282.551 89.268,281.575 90.308 M275.080 96.320 C 272.726 98.681,270.800 100.722,270.800 100.855 C 270.800 100.988,272.774 99.105,275.188 96.669 C 277.601 94.234,279.527 92.194,279.468 92.134 C 279.408 92.075,277.434 93.959,275.080 96.320 M268.000 103.800 C 267.254 104.570,266.813 105.187,267.022 105.171 C 267.382 105.144,269.854 102.400,269.518 102.400 C 269.429 102.400,268.746 103.030,268.000 103.800 M318.806 108.233 C 318.809 108.655,318.995 109.270,319.218 109.600 C 319.515 110.038,319.552 109.876,319.356 109.000 C 319.027 107.529,318.798 107.210,318.806 108.233 M261.189 111.700 C 260.017 113.075,258.699 114.605,258.259 115.100 C 257.820 115.595,257.627 115.995,257.830 115.990 C 258.034 115.984,258.650 115.370,259.200 114.624 C 259.750 113.879,260.982 112.353,261.937 111.234 C 262.893 110.115,263.595 109.200,263.497 109.200 C 263.400 109.200,262.361 110.325,261.189 111.700 M254.893 119.200 C 254.618 119.640,254.531 120.000,254.700 120.000 C 254.869 120.000,255.232 119.640,255.507 119.200 C 255.782 118.760,255.869 118.400,255.700 118.400 C 255.531 118.400,255.168 118.760,254.893 119.200 M249.200 126.800 C 248.730 127.460,248.436 128.000,248.546 128.000 C 248.656 128.000,249.130 127.460,249.600 126.800 C 250.070 126.140,250.364 125.600,250.254 125.600 C 250.144 125.600,249.670 126.140,249.200 126.800 M328.000 134.188 C 328.000 134.291,328.331 134.966,328.735 135.688 C 329.140 136.410,329.580 137.450,329.713 138.000 C 330.367 140.702,330.722 141.728,330.759 141.028 C 330.810 140.065,330.135 137.920,329.081 135.700 C 328.351 134.161,328.000 133.670,328.000 134.188 M239.600 139.800 C 238.919 140.790,238.452 141.600,238.562 141.600 C 238.672 141.600,239.319 140.790,240.000 139.800 C 240.681 138.810,241.148 138.000,241.038 138.000 C 240.928 138.000,240.281 138.810,239.600 139.800 M323.105 147.832 C 322.283 148.584,321.744 149.195,321.906 149.188 C 322.297 149.173,324.915 146.782,324.737 146.603 C 324.660 146.527,323.926 147.080,323.105 147.832 M319.000 151.449 L 317.000 153.281 319.100 151.603 C 320.918 150.151,321.495 149.576,321.100 149.608 C 321.045 149.613,320.100 150.441,319.000 151.449 M230.000 153.200 C 229.530 153.860,229.236 154.400,229.346 154.400 C 229.456 154.400,229.930 153.860,230.400 153.200 C 230.870 152.540,231.164 152.000,231.054 152.000 C 230.944 152.000,230.470 152.540,230.000 153.200 M310.385 158.429 L 309.000 159.658 310.500 158.581 C 311.826 157.630,312.257 157.200,311.885 157.200 C 311.822 157.200,311.147 157.753,310.385 158.429 M219.702 168.100 C 219.136 168.815,218.340 170.400,218.546 170.400 C 218.642 170.400,219.093 169.770,219.547 169.000 C 220.373 167.601,220.449 167.157,219.702 168.100 M291.564 172.900 C 290.566 173.835,290.211 174.226,290.775 173.768 C 291.339 173.310,292.319 172.545,292.954 172.068 C 293.589 171.591,293.944 171.200,293.743 171.200 C 293.542 171.200,292.562 171.965,291.564 172.900 M286.175 177.700 L 285.000 179.000 286.300 177.825 C 287.015 177.179,287.600 176.594,287.600 176.525 C 287.600 176.216,287.270 176.488,286.175 177.700 M81.362 178.862 C 81.187 179.145,81.252 179.215,81.530 179.043 C 82.120 178.679,83.220 179.274,86.400 181.679 C 88.188 183.031,88.501 183.192,87.401 182.195 C 84.213 179.303,81.884 178.017,81.362 178.862 M211.853 180.500 L 211.133 181.800 211.958 180.800 C 212.689 179.913,213.014 179.200,212.686 179.200 C 212.624 179.200,212.249 179.785,211.853 180.500 M281.385 182.100 L 279.400 184.200 281.500 182.215 C 283.451 180.371,283.783 180.000,283.485 180.000 C 283.422 180.000,282.477 180.945,281.385 182.100 M79.699 183.590 C 78.996 185.842,79.113 186.558,79.843 184.473 C 80.176 183.523,80.392 182.576,80.323 182.369 C 80.254 182.161,79.973 182.711,79.699 183.590 M208.899 185.228 C 208.185 186.307,207.600 187.325,207.600 187.490 C 207.600 187.655,208.245 186.832,209.033 185.661 C 209.821 184.491,210.406 183.473,210.332 183.399 C 210.258 183.325,209.613 184.148,208.899 185.228 M272.786 190.300 L 270.600 192.600 272.900 190.414 C 274.165 189.211,275.200 188.176,275.200 188.114 C 275.200 187.817,274.818 188.163,272.786 190.300 M99.200 193.800 C 99.946 194.570,100.647 195.200,100.757 195.200 C 100.867 195.200,100.346 194.570,99.600 193.800 C 98.854 193.030,98.153 192.400,98.043 192.400 C 97.933 192.400,98.454 193.030,99.200 193.800 M263.394 199.300 L 258.200 204.600 263.500 199.406 C 266.415 196.549,268.800 194.164,268.800 194.106 C 268.800 193.819,268.219 194.377,263.394 199.300 M100.800 195.725 C 100.800 195.794,101.385 196.379,102.100 197.025 L 103.400 198.200 102.225 196.900 C 101.130 195.688,100.800 195.416,100.800 195.725 M198.200 203.600 C 197.859 204.260,197.669 204.800,197.779 204.800 C 197.889 204.800,198.259 204.260,198.600 203.600 C 198.941 202.940,199.131 202.400,199.021 202.400 C 198.911 202.400,198.541 202.940,198.200 203.600 M110.406 207.033 C 110.409 207.235,111.056 208.120,111.844 209.000 L 113.276 210.600 111.961 208.800 C 111.237 207.810,110.590 206.925,110.523 206.833 C 110.455 206.742,110.403 206.832,110.406 207.033 M253.800 209.200 C 252.494 210.520,251.599 211.580,251.813 211.555 C 252.195 211.510,256.691 206.800,256.351 206.800 C 256.254 206.800,255.106 207.880,253.800 209.200 M71.646 210.867 C 71.621 211.234,71.496 211.864,71.370 212.267 C 71.152 212.962,71.163 212.963,71.597 212.287 C 71.848 211.896,71.973 211.266,71.873 210.887 C 71.711 210.268,71.688 210.266,71.646 210.867 M192.586 213.700 L 191.952 215.000 192.767 214.000 C 193.552 213.037,193.808 212.400,193.410 212.400 C 193.306 212.400,192.935 212.985,192.586 213.700 M115.670 213.978 C 116.181 214.626,116.749 215.166,116.930 215.178 C 117.112 215.190,116.842 214.670,116.330 214.022 C 115.819 213.374,115.251 212.834,115.070 212.822 C 114.888 212.810,115.158 213.330,115.670 213.978 M70.854 213.867 C 70.825 214.344,70.696 215.064,70.570 215.467 C 70.352 216.161,70.364 216.162,70.796 215.488 C 71.047 215.097,71.175 214.377,71.081 213.888 C 70.909 213.001,70.909 213.001,70.854 213.867 M248.575 214.900 L 247.400 216.200 248.700 215.025 C 249.912 213.930,250.184 213.600,249.875 213.600 C 249.806 213.600,249.221 214.185,248.575 214.900 M118.734 217.500 C 119.167 218.105,120.023 219.050,120.635 219.600 C 121.269 220.169,121.000 219.695,120.012 218.500 C 118.151 216.251,117.440 215.694,118.734 217.500 M69.449 219.815 C 69.312 220.173,69.223 221.036,69.250 221.733 C 69.292 222.787,69.350 222.698,69.599 221.200 C 69.917 219.286,69.859 218.748,69.449 219.815 M189.014 220.235 C 188.641 220.804,188.405 221.338,188.489 221.422 C 188.573 221.507,188.958 221.041,189.344 220.388 C 190.206 218.928,189.948 218.809,189.014 220.235 M239.429 225.562 L 238.258 227.000 239.609 225.713 C 240.351 225.005,240.878 224.358,240.779 224.275 C 240.681 224.192,240.073 224.771,239.429 225.562 M68.460 225.851 C 68.423 226.623,68.668 227.312,69.100 227.651 C 69.709 228.129,69.740 228.122,69.335 227.600 C 69.080 227.270,68.792 226.460,68.695 225.800 L 68.520 224.600 68.460 225.851 M126.434 226.247 C 126.965 226.933,127.480 227.423,127.579 227.335 C 127.677 227.247,127.243 226.686,126.613 226.088 L 125.469 225.000 126.434 226.247 M129.408 229.559 C 130.072 230.351,130.923 231.439,131.299 231.976 C 131.674 232.513,132.068 232.865,132.174 232.759 C 132.280 232.654,131.429 231.566,130.283 230.342 C 129.137 229.119,128.744 228.766,129.408 229.559 M71.200 228.946 C 71.200 229.056,71.740 229.530,72.400 230.000 C 73.060 230.470,73.600 230.764,73.600 230.654 C 73.600 230.544,73.060 230.070,72.400 229.600 C 71.740 229.130,71.200 228.836,71.200 228.946 M179.246 238.004 C 178.752 238.882,178.433 239.600,178.535 239.600 C 178.806 239.600,180.459 236.726,180.287 236.554 C 180.208 236.474,179.739 237.127,179.246 238.004 M83.200 238.600 C 83.946 239.370,84.647 240.000,84.757 240.000 C 84.867 240.000,84.346 239.370,83.600 238.600 C 82.854 237.830,82.153 237.200,82.043 237.200 C 81.933 237.200,82.454 237.830,83.200 238.600 M136.468 238.552 C 136.981 239.343,137.547 239.992,137.727 239.995 C 138.099 240.001,136.582 237.759,135.949 237.369 C 135.722 237.228,135.955 237.760,136.468 238.552 M228.744 239.100 C 227.593 240.489,227.106 241.200,227.304 241.200 C 227.414 241.200,227.986 240.570,228.573 239.800 C 229.663 238.371,229.795 237.832,228.744 239.100 M138.800 241.600 C 139.270 242.260,139.744 242.800,139.854 242.800 C 139.964 242.800,139.670 242.260,139.200 241.600 C 138.730 240.940,138.256 240.400,138.146 240.400 C 138.036 240.400,138.330 240.940,138.800 241.600 M86.044 241.300 C 86.142 241.355,87.567 242.660,89.211 244.200 L 92.200 247.000 89.411 244.100 C 87.877 242.505,86.452 241.200,86.244 241.200 C 86.036 241.200,85.947 241.245,86.044 241.300 M219.600 251.200 C 219.130 251.860,218.836 252.400,218.946 252.400 C 219.056 252.400,219.530 251.860,220.000 251.200 C 220.470 250.540,220.764 250.000,220.654 250.000 C 220.544 250.000,220.070 250.540,219.600 251.200 M171.497 251.473 C 171.397 251.653,170.821 252.655,170.219 253.700 C 169.617 254.745,169.204 255.600,169.302 255.600 C 169.602 255.600,172.043 251.510,171.855 251.322 C 171.759 251.226,171.598 251.294,171.497 251.473 M96.800 252.125 C 96.800 252.194,97.385 252.779,98.100 253.425 L 99.400 254.600 98.225 253.300 C 97.130 252.088,96.800 251.816,96.800 252.125 M147.200 254.120 C 147.200 254.504,149.245 257.600,149.499 257.600 C 149.678 257.600,149.041 256.519,147.739 254.611 C 147.442 254.177,147.200 253.956,147.200 254.120 M168.308 256.900 C 167.433 258.249,166.648 259.856,167.087 259.400 C 167.648 258.817,169.298 256.000,169.079 256.000 C 168.976 256.000,168.629 256.405,168.308 256.900 M102.400 258.264 C 102.400 258.482,102.895 259.097,103.500 259.630 L 104.600 260.600 103.600 259.400 C 103.050 258.740,102.555 258.125,102.500 258.033 C 102.445 257.942,102.400 258.045,102.400 258.264 M150.360 259.400 C 151.034 260.705,151.588 261.428,151.585 261.000 C 151.583 260.780,151.214 260.150,150.764 259.600 C 150.221 258.936,150.085 258.869,150.360 259.400 M212.829 260.654 C 212.373 261.234,212.000 261.894,212.000 262.121 C 212.000 262.591,211.960 262.633,213.157 260.900 C 214.233 259.342,213.999 259.166,212.829 260.654 M210.346 264.300 C 208.839 266.723,208.688 267.060,209.582 266.000 C 210.490 264.923,211.730 262.800,211.450 262.800 C 211.356 262.800,210.859 263.475,210.346 264.300 M162.229 266.362 L 161.058 267.800 162.409 266.513 C 163.151 265.805,163.678 265.158,163.579 265.075 C 163.481 264.992,162.873 265.571,162.229 266.362 M154.025 265.800 C 154.025 266.447,154.925 267.433,156.000 267.962 L 157.000 268.454 156.112 267.727 C 155.623 267.327,154.954 266.640,154.625 266.200 C 154.295 265.760,154.025 265.580,154.025 265.800 M115.600 274.183 C 115.600 274.343,115.960 274.931,116.400 275.491 C 116.840 276.050,117.200 276.377,117.200 276.217 C 117.200 276.057,116.840 275.469,116.400 274.909 C 115.960 274.350,115.600 274.023,115.600 274.183 M120.383 280.300 C 121.126 281.235,121.806 282.000,121.894 282.000 C 122.177 282.000,120.463 279.749,119.735 279.164 C 119.348 278.854,119.640 279.365,120.383 280.300 M199.695 281.023 C 199.203 281.774,198.800 282.523,198.800 282.687 C 198.800 282.851,199.266 282.300,199.836 281.462 C 200.405 280.624,200.808 279.875,200.731 279.798 C 200.654 279.720,200.188 280.272,199.695 281.023 M122.400 282.583 C 122.400 282.743,122.760 283.331,123.200 283.891 C 123.640 284.450,124.000 284.777,124.000 284.617 C 124.000 284.457,123.640 283.869,123.200 283.309 C 122.760 282.750,122.400 282.423,122.400 282.583 M128.434 290.247 C 128.965 290.933,129.480 291.423,129.579 291.335 C 129.677 291.247,129.243 290.686,128.613 290.088 L 127.469 289.000 128.434 290.247 M131.200 293.600 C 131.897 294.480,132.557 295.200,132.667 295.200 C 132.777 295.200,132.297 294.480,131.600 293.600 C 130.903 292.720,130.243 292.000,130.133 292.000 C 130.023 292.000,130.503 292.720,131.200 293.600 M189.267 299.467 C 188.558 300.701,188.038 301.771,188.111 301.844 C 188.184 301.918,188.824 300.968,189.533 299.733 C 190.242 298.499,190.762 297.429,190.689 297.356 C 190.616 297.282,189.976 298.232,189.267 299.467 M136.000 299.325 C 136.000 299.394,136.585 299.979,137.300 300.625 L 138.600 301.800 137.425 300.500 C 136.330 299.288,136.000 299.016,136.000 299.325 M138.400 302.125 C 138.400 302.194,138.985 302.779,139.700 303.425 L 141.000 304.600 139.825 303.300 C 138.730 302.088,138.400 301.816,138.400 302.125 M143.600 308.125 C 143.600 308.194,144.173 308.779,144.874 309.425 L 146.149 310.600 145.174 309.322 C 144.347 308.237,143.600 307.669,143.600 308.125 M148.025 313.031 C 148.781 313.928,149.481 314.597,149.580 314.517 C 149.679 314.438,149.060 313.704,148.205 312.887 L 146.650 311.400 148.025 313.031 M179.695 316.623 C 179.203 317.374,178.800 318.123,178.800 318.287 C 178.800 318.451,179.266 317.900,179.836 317.062 C 180.405 316.224,180.808 315.475,180.731 315.398 C 180.654 315.320,180.188 315.872,179.695 316.623 M150.800 315.850 C 150.800 316.061,151.655 317.036,152.700 318.017 L 154.600 319.800 152.800 317.807 C 151.810 316.712,150.955 315.737,150.900 315.641 C 150.845 315.545,150.800 315.639,150.800 315.850 M156.437 322.315 C 157.626 323.588,158.674 324.579,158.763 324.518 C 159.000 324.357,155.069 320.094,154.637 320.043 C 154.437 320.019,155.247 321.042,156.437 322.315 M160.800 326.643 C 160.800 326.851,162.195 328.366,163.900 330.010 L 167.000 333.000 164.000 329.811 C 162.350 328.058,160.955 326.543,160.900 326.445 C 160.845 326.347,160.800 326.436,160.800 326.643 M171.184 330.023 C 170.705 330.696,170.379 331.313,170.461 331.394 C 170.543 331.476,171.014 330.926,171.508 330.171 C 172.623 328.471,172.371 328.356,171.184 330.023 " stroke="none" fill="#2c8960" fill-rule="evenodd"></path><path id="path4" d="M305.778 72.036 C 305.592 72.336,305.643 72.421,305.911 72.255 C 306.150 72.107,306.628 72.390,306.973 72.882 C 307.318 73.375,307.600 73.586,307.600 73.351 C 307.600 72.565,306.114 71.492,305.778 72.036 M298.646 76.196 C 295.654 78.266,295.460 78.737,298.400 76.794 C 301.476 74.761,301.434 74.794,300.967 74.822 C 300.765 74.834,299.721 75.452,298.646 76.196 M310.033 78.845 C 310.015 78.980,310.504 80.330,311.119 81.845 C 311.735 83.360,312.484 85.366,312.784 86.302 C 313.084 87.238,313.407 87.927,313.501 87.832 C 313.596 87.737,313.271 86.521,312.780 85.130 C 311.818 82.406,310.086 78.444,310.033 78.845 M292.400 80.646 C 291.410 81.419,290.330 82.338,290.000 82.688 C 289.670 83.038,290.525 82.476,291.900 81.439 C 293.275 80.402,294.400 79.474,294.400 79.377 C 294.400 79.099,294.306 79.159,292.400 80.646 M288.175 83.900 C 287.749 84.286,286.801 85.096,286.069 85.700 C 285.337 86.305,284.887 86.796,285.069 86.792 C 285.448 86.782,289.517 83.239,289.175 83.215 C 289.052 83.207,288.602 83.515,288.175 83.900 M279.975 91.100 C 275.473 95.326,268.392 102.552,266.552 104.800 C 265.921 105.570,268.374 103.157,272.003 99.439 C 275.631 95.720,279.996 91.445,281.703 89.939 C 283.409 88.432,284.653 87.200,284.468 87.200 C 284.283 87.200,282.261 88.955,279.975 91.100 M317.612 102.400 C 317.612 102.730,317.787 103.270,318.000 103.600 C 318.345 104.133,318.388 104.133,318.388 103.600 C 318.388 103.270,318.213 102.730,318.000 102.400 C 317.655 101.867,317.612 101.867,317.612 102.400 M263.600 107.987 C 263.270 108.404,260.764 111.502,258.032 114.873 C 252.119 122.166,252.247 122.000,252.510 122.000 C 252.625 122.000,254.250 120.065,256.121 117.700 C 260.464 112.214,261.451 111.014,263.351 108.914 C 264.204 107.971,264.744 107.207,264.551 107.215 C 264.358 107.223,263.930 107.571,263.600 107.987 M320.006 111.033 C 320.009 111.455,320.195 112.070,320.418 112.400 C 320.715 112.838,320.752 112.676,320.556 111.800 C 320.227 110.329,319.998 110.010,320.006 111.033 M321.624 116.000 C 321.617 116.330,321.871 117.320,322.188 118.200 C 322.505 119.080,322.770 119.530,322.776 119.200 C 322.783 118.870,322.529 117.880,322.212 117.000 C 321.895 116.120,321.630 115.670,321.624 116.000 M249.159 126.100 C 248.440 127.035,247.750 127.989,247.626 128.219 C 247.307 128.810,249.079 126.821,250.048 125.500 C 251.348 123.727,250.592 124.238,249.159 126.100 M245.692 130.629 C 245.197 131.383,244.872 132.000,244.969 132.000 C 245.247 132.000,246.904 129.571,246.739 129.406 C 246.657 129.324,246.186 129.874,245.692 130.629 M243.798 133.202 C 243.398 133.644,243.166 134.099,243.282 134.215 C 243.397 134.330,243.790 133.969,244.155 133.412 C 244.952 132.196,244.793 132.102,243.798 133.202 M330.006 137.433 C 330.009 137.855,330.195 138.470,330.418 138.800 C 330.715 139.238,330.752 139.076,330.556 138.200 C 330.227 136.729,329.998 136.410,330.006 137.433 M238.743 140.300 C 237.818 141.565,236.552 143.264,235.930 144.077 C 235.309 144.889,234.800 145.678,234.800 145.830 C 234.800 146.177,235.881 144.808,238.624 140.984 C 239.802 139.343,240.689 138.000,240.596 138.000 C 240.502 138.000,239.669 139.035,238.743 140.300 M329.829 142.362 L 328.658 143.800 330.009 142.513 C 330.751 141.805,331.278 141.158,331.179 141.075 C 331.081 140.992,330.473 141.571,329.829 142.362 M326.598 145.203 C 326.461 145.425,325.096 146.685,323.564 148.003 C 322.033 149.322,320.899 150.400,321.045 150.400 C 321.192 150.400,322.501 149.366,323.956 148.102 C 327.503 145.019,327.722 144.800,327.252 144.800 C 327.029 144.800,326.735 144.982,326.598 145.203 M233.292 147.829 C 232.797 148.583,232.472 149.200,232.569 149.200 C 232.847 149.200,234.504 146.771,234.339 146.606 C 234.257 146.524,233.786 147.074,233.292 147.829 M231.556 150.300 C 230.327 151.814,229.115 153.700,229.541 153.437 C 230.018 153.142,232.548 149.600,232.281 149.600 C 232.195 149.600,231.868 149.915,231.556 150.300 M318.600 152.260 C 317.395 153.336,317.305 153.485,318.236 152.863 C 319.341 152.124,320.732 150.776,320.349 150.815 C 320.267 150.823,319.480 151.473,318.600 152.260 M227.200 156.400 C 226.304 157.720,225.660 158.800,225.770 158.800 C 225.880 158.800,226.704 157.720,227.600 156.400 C 228.496 155.080,229.140 154.000,229.030 154.000 C 228.920 154.000,228.096 155.080,227.200 156.400 M314.200 155.876 C 313.100 156.887,312.740 157.340,313.400 156.881 C 315.129 155.678,316.986 153.997,316.562 154.018 C 316.363 154.028,315.300 154.864,314.200 155.876 M306.600 161.835 L 305.400 162.866 306.700 162.006 C 307.415 161.533,308.000 161.068,308.000 160.973 C 308.000 160.673,307.831 160.778,306.600 161.835 M222.873 162.600 C 222.622 163.150,222.483 163.600,222.563 163.600 C 222.643 163.600,223.003 163.150,223.363 162.600 C 223.724 162.050,223.863 161.600,223.673 161.600 C 223.484 161.600,223.123 162.050,222.873 162.600 M303.400 164.235 L 302.200 165.266 303.600 164.363 C 305.396 163.204,305.401 163.200,304.967 163.202 C 304.765 163.203,304.060 163.668,303.400 164.235 M218.280 169.467 C 216.344 172.452,214.814 174.946,214.880 175.010 C 214.946 175.073,216.666 172.622,218.701 169.563 C 220.737 166.503,222.267 164.009,222.101 164.021 C 221.936 164.032,220.216 166.483,218.280 169.467 M300.400 166.449 C 299.006 167.671,299.005 167.672,300.288 166.819 C 300.996 166.348,301.682 165.791,301.812 165.581 C 302.197 164.957,301.877 165.154,300.400 166.449 M289.775 174.900 L 288.600 176.200 289.900 175.025 C 290.615 174.379,291.200 173.794,291.200 173.725 C 291.200 173.416,290.870 173.688,289.775 174.900 M282.779 181.340 C 280.237 183.793,278.965 185.080,279.952 184.200 C 280.939 183.320,281.958 182.420,282.217 182.200 C 283.702 180.937,287.621 177.088,287.520 176.993 C 287.454 176.931,285.320 178.887,282.779 181.340 M80.800 178.363 C 80.800 178.562,81.147 178.634,81.571 178.523 C 82.038 178.401,83.064 178.819,84.171 179.580 C 85.177 180.272,86.000 180.748,86.000 180.638 C 86.000 180.528,85.203 179.890,84.228 179.219 C 82.518 178.043,80.800 177.613,80.800 178.363 M210.752 181.300 C 210.490 181.795,210.015 182.650,209.696 183.200 C 209.139 184.159,209.143 184.167,209.788 183.400 C 210.586 182.452,211.705 180.400,211.424 180.400 C 211.316 180.400,211.014 180.805,210.752 181.300 M89.288 183.413 C 89.886 184.043,90.447 184.477,90.535 184.379 C 90.623 184.280,90.133 183.765,89.447 183.234 L 88.200 182.269 89.288 183.413 M78.293 186.693 C 77.920 187.933,77.681 189.014,77.763 189.096 C 77.845 189.178,78.227 188.241,78.613 187.013 C 78.999 185.786,79.238 184.705,79.144 184.611 C 79.050 184.516,78.667 185.454,78.293 186.693 M95.400 189.200 C 97.812 191.620,99.876 193.600,99.986 193.600 C 100.096 193.600,98.212 191.620,95.800 189.200 C 93.388 186.780,91.324 184.800,91.214 184.800 C 91.104 184.800,92.988 186.780,95.400 189.200 M207.295 187.023 C 206.803 187.774,206.400 188.523,206.400 188.687 C 206.400 188.851,206.866 188.300,207.436 187.462 C 208.005 186.624,208.408 185.875,208.331 185.798 C 208.254 185.720,207.788 186.272,207.295 187.023 M264.482 198.918 C 259.157 204.246,254.800 208.699,254.800 208.812 C 254.800 208.925,259.205 204.614,264.588 199.230 C 269.971 193.847,274.328 189.395,274.270 189.336 C 274.211 189.278,269.807 193.590,264.482 198.918 M76.899 191.190 C 76.196 193.442,76.313 194.158,77.043 192.073 C 77.376 191.123,77.592 190.176,77.523 189.969 C 77.454 189.761,77.173 190.311,76.899 191.190 M204.614 191.435 C 204.241 192.004,204.005 192.538,204.089 192.622 C 204.173 192.707,204.558 192.241,204.944 191.588 C 205.806 190.128,205.548 190.009,204.614 191.435 M102.886 197.456 C 106.985 202.317,108.952 204.382,106.070 200.800 C 101.242 194.798,100.595 194.038,100.286 194.019 C 100.113 194.009,101.283 195.555,102.886 197.456 M202.200 195.600 C 201.859 196.260,201.669 196.800,201.779 196.800 C 201.889 196.800,202.259 196.260,202.600 195.600 C 202.941 194.940,203.131 194.400,203.021 194.400 C 202.911 194.400,202.541 194.940,202.200 195.600 M75.049 197.015 C 74.912 197.373,74.815 197.966,74.834 198.333 C 74.853 198.700,75.027 198.469,75.221 197.820 C 75.598 196.558,75.465 195.933,75.049 197.015 M200.600 198.400 C 200.259 199.060,200.069 199.600,200.179 199.600 C 200.289 199.600,200.659 199.060,201.000 198.400 C 201.341 197.740,201.531 197.200,201.421 197.200 C 201.311 197.200,200.941 197.740,200.600 198.400 M198.986 201.300 L 198.352 202.600 199.167 201.600 C 199.952 200.637,200.208 200.000,199.810 200.000 C 199.706 200.000,199.335 200.585,198.986 201.300 M197.453 204.100 L 196.733 205.400 197.558 204.400 C 198.289 203.513,198.614 202.800,198.286 202.800 C 198.224 202.800,197.849 203.385,197.453 204.100 M112.014 208.500 C 113.147 209.985,114.159 211.200,114.264 211.200 C 114.554 211.200,113.048 209.191,111.415 207.400 C 110.493 206.389,110.714 206.794,112.014 208.500 M194.614 209.035 C 194.241 209.604,194.005 210.138,194.089 210.222 C 194.173 210.307,194.558 209.841,194.944 209.188 C 195.806 207.728,195.548 207.609,194.614 209.035 M251.186 212.700 L 249.000 215.000 251.300 212.814 C 253.437 210.782,253.783 210.400,253.486 210.400 C 253.424 210.400,252.389 211.435,251.186 212.700 M114.800 211.844 C 114.800 212.052,115.627 213.117,116.637 214.211 L 118.475 216.200 116.757 214.000 C 115.812 212.790,114.985 211.725,114.919 211.633 C 114.854 211.542,114.800 211.637,114.800 211.844 M70.229 214.629 C 70.081 215.215,70.038 215.772,70.132 215.866 C 70.227 215.960,70.424 215.558,70.571 214.971 C 70.719 214.385,70.762 213.828,70.668 213.734 C 70.573 213.640,70.376 214.042,70.229 214.629 M190.600 216.400 C 190.259 217.060,190.069 217.600,190.179 217.600 C 190.289 217.600,190.659 217.060,191.000 216.400 C 191.341 215.740,191.531 215.200,191.421 215.200 C 191.311 215.200,190.941 215.740,190.600 216.400 M247.606 216.594 C 246.863 217.361,246.332 218.050,246.427 218.125 C 246.522 218.200,247.206 217.573,247.946 216.731 C 249.629 214.818,249.412 214.731,247.606 216.594 M69.450 218.050 C 69.117 219.717,69.440 220.040,69.800 218.400 C 69.952 217.709,69.993 217.059,69.891 216.958 C 69.789 216.856,69.591 217.347,69.450 218.050 M120.018 218.185 C 121.270 219.834,123.600 222.393,123.584 222.101 C 123.576 221.936,122.631 220.803,121.484 219.585 C 120.338 218.366,119.678 217.736,120.018 218.185 M188.640 219.998 C 188.040 221.099,187.636 222.000,187.741 222.000 C 188.008 222.000,190.043 218.310,189.871 218.137 C 189.793 218.060,189.239 218.897,188.640 219.998 M244.558 220.100 C 242.661 222.156,238.137 227.724,232.692 234.700 C 232.478 234.975,232.384 235.200,232.483 235.200 C 232.583 235.200,234.266 233.175,236.223 230.700 C 238.180 228.225,241.188 224.535,242.907 222.500 C 246.023 218.811,246.833 217.634,244.558 220.100 M68.893 221.200 C 68.893 221.970,68.975 222.285,69.076 221.900 C 69.176 221.515,69.176 220.885,69.076 220.500 C 68.975 220.115,68.893 220.430,68.893 221.200 M124.016 222.638 C 124.024 222.837,125.216 224.260,126.664 225.800 C 128.397 227.644,128.741 227.917,127.671 226.600 C 125.121 223.462,123.999 222.245,124.016 222.638 M68.109 226.000 C 68.109 226.990,68.187 227.395,68.282 226.900 C 68.378 226.405,68.378 225.595,68.282 225.100 C 68.187 224.605,68.109 225.010,68.109 226.000 M68.800 227.743 C 68.800 227.843,69.719 228.585,70.842 229.392 C 71.965 230.199,72.765 230.668,72.621 230.434 C 72.320 229.948,68.800 227.468,68.800 227.743 M183.014 230.235 C 182.641 230.804,182.427 231.361,182.539 231.472 C 182.650 231.583,183.029 231.118,183.381 230.437 C 184.159 228.933,183.944 228.815,183.014 230.235 M132.400 232.600 C 133.748 234.250,134.941 235.600,135.051 235.600 C 135.161 235.600,134.148 234.250,132.800 232.600 C 131.452 230.950,130.259 229.600,130.149 229.600 C 130.039 229.600,131.052 230.950,132.400 232.600 M74.400 231.746 C 74.400 231.856,74.940 232.330,75.600 232.800 C 76.260 233.270,76.800 233.564,76.800 233.454 C 76.800 233.344,76.260 232.870,75.600 232.400 C 74.940 231.930,74.400 231.636,74.400 231.746 M181.400 233.200 C 181.059 233.860,180.869 234.400,180.979 234.400 C 181.089 234.400,181.459 233.860,181.800 233.200 C 182.141 232.540,182.331 232.000,182.221 232.000 C 182.111 232.000,181.741 232.540,181.400 233.200 M77.233 234.100 C 77.325 234.155,77.940 234.650,78.600 235.200 L 79.800 236.200 78.830 235.100 C 78.297 234.495,77.682 234.000,77.464 234.000 C 77.245 234.000,77.142 234.045,77.233 234.100 M136.227 237.400 C 137.600 239.200,137.868 239.203,136.704 237.405 C 136.207 236.638,135.656 236.008,135.480 236.005 C 135.303 236.002,135.640 236.630,136.227 237.400 M80.033 236.500 C 80.125 236.555,80.740 237.050,81.400 237.600 L 82.600 238.600 81.630 237.500 C 81.097 236.895,80.482 236.400,80.264 236.400 C 80.045 236.400,79.942 236.445,80.033 236.500 M179.152 237.300 C 178.890 237.795,178.415 238.650,178.096 239.200 C 177.539 240.159,177.543 240.167,178.188 239.400 C 178.986 238.452,180.105 236.400,179.824 236.400 C 179.716 236.400,179.414 236.805,179.152 237.300 M85.188 240.901 C 86.612 242.385,87.930 243.600,88.117 243.600 C 88.304 243.600,88.206 243.375,87.900 243.100 C 87.594 242.825,86.276 241.610,84.972 240.401 L 82.600 238.201 85.188 240.901 M138.391 240.388 C 138.857 241.041,139.442 241.702,139.691 241.856 C 139.941 242.011,139.641 241.476,139.025 240.668 C 137.688 238.915,137.184 238.692,138.391 240.388 M176.067 242.667 C 175.358 243.901,174.838 244.971,174.911 245.044 C 174.984 245.118,175.624 244.168,176.333 242.933 C 177.042 241.699,177.562 240.629,177.489 240.556 C 177.416 240.482,176.776 241.432,176.067 242.667 M226.175 243.068 C 225.559 243.876,225.259 244.411,225.509 244.256 C 226.021 243.940,227.753 241.600,227.475 241.600 C 227.376 241.600,226.791 242.261,226.175 243.068 M143.646 247.900 C 147.395 253.572,148.082 254.521,147.191 252.800 C 146.447 251.363,140.420 242.400,140.198 242.400 C 140.095 242.400,141.647 244.875,143.646 247.900 M223.748 246.300 C 222.067 248.426,220.712 250.400,220.935 250.400 C 221.040 250.400,221.817 249.456,222.662 248.302 C 223.508 247.149,224.435 245.889,224.723 245.502 C 225.723 244.158,224.926 244.810,223.748 246.300 M173.814 246.635 C 173.441 247.204,173.205 247.738,173.289 247.822 C 173.373 247.907,173.758 247.441,174.144 246.788 C 175.006 245.328,174.748 245.209,173.814 246.635 M96.017 251.815 C 97.217 253.143,98.282 254.171,98.381 254.100 C 98.481 254.029,97.498 252.943,96.198 251.686 L 93.833 249.400 96.017 251.815 M219.944 251.500 C 218.793 252.889,218.306 253.600,218.504 253.600 C 218.614 253.600,219.186 252.970,219.773 252.200 C 220.863 250.771,220.995 250.232,219.944 251.500 M168.367 255.900 C 167.232 257.825,165.965 259.878,165.552 260.462 C 165.138 261.046,164.800 261.671,164.800 261.851 C 164.800 262.283,165.546 261.198,167.998 257.204 C 170.433 253.236,170.891 252.400,170.630 252.400 C 170.520 252.400,169.502 253.975,168.367 255.900 M217.184 255.223 C 216.705 255.896,216.379 256.513,216.461 256.594 C 216.543 256.676,217.014 256.126,217.508 255.371 C 218.623 253.671,218.371 253.556,217.184 255.223 M149.215 256.600 C 149.217 256.820,149.586 257.450,150.036 258.000 C 150.579 258.664,150.715 258.731,150.440 258.200 C 149.766 256.895,149.212 256.172,149.215 256.600 M102.001 258.596 C 102.770 259.473,103.445 260.268,103.500 260.362 C 103.555 260.456,103.687 260.447,103.793 260.341 C 103.899 260.235,103.224 259.440,102.293 258.574 L 100.601 257.000 102.001 258.596 M152.008 261.400 C 152.731 262.720,153.576 264.291,153.887 264.892 C 154.197 265.493,154.624 266.091,154.835 266.222 C 155.047 266.352,154.830 265.771,154.353 264.930 C 153.877 264.088,153.040 262.590,152.494 261.600 C 151.948 260.610,151.319 259.620,151.097 259.400 C 150.874 259.180,151.284 260.080,152.008 261.400 M211.600 263.200 C 210.269 265.180,209.269 266.800,209.379 266.800 C 209.489 266.800,210.669 265.180,212.000 263.200 C 213.331 261.220,214.331 259.600,214.221 259.600 C 214.111 259.600,212.931 261.220,211.600 263.200 M105.640 262.800 C 106.587 264.010,107.415 265.075,107.481 265.167 C 107.546 265.258,107.596 265.168,107.592 264.967 C 107.587 264.765,106.759 263.700,105.751 262.600 L 103.919 260.600 105.640 262.800 M162.084 265.790 C 160.583 267.515,158.460 268.171,156.850 267.407 C 156.108 267.054,155.431 266.835,155.346 266.920 C 155.261 267.005,155.885 267.387,156.732 267.769 C 158.541 268.585,161.373 267.616,162.584 265.768 C 163.401 264.522,163.178 264.531,162.084 265.790 M109.200 267.325 C 109.200 267.394,109.785 267.979,110.500 268.625 L 111.800 269.800 110.625 268.500 C 109.530 267.288,109.200 267.016,109.200 267.325 M112.342 271.000 C 113.791 273.057,114.386 273.748,114.555 273.571 C 114.645 273.477,113.994 272.590,113.108 271.600 C 112.222 270.610,111.878 270.340,112.342 271.000 M203.699 275.228 C 202.985 276.307,202.400 277.325,202.400 277.490 C 202.400 277.655,203.045 276.832,203.833 275.661 C 204.621 274.491,205.206 273.473,205.132 273.399 C 205.058 273.325,204.413 274.148,203.699 275.228 M115.554 275.136 C 115.999 275.760,116.679 276.525,117.065 276.836 C 117.452 277.146,117.160 276.635,116.417 275.700 C 114.891 273.780,114.325 273.410,115.554 275.136 M118.000 277.844 C 118.000 278.052,118.827 279.117,119.837 280.211 L 121.675 282.200 119.957 280.000 C 119.012 278.790,118.185 277.725,118.119 277.633 C 118.054 277.542,118.000 277.637,118.000 277.844 M201.117 279.500 C 199.885 281.369,199.117 282.800,199.346 282.800 C 199.442 282.800,199.875 282.199,200.308 281.465 C 200.741 280.731,201.410 279.651,201.794 279.065 C 202.178 278.479,202.405 278.000,202.299 278.000 C 202.193 278.000,201.661 278.675,201.117 279.500 M198.200 284.400 C 197.859 285.060,197.669 285.600,197.779 285.600 C 197.889 285.600,198.259 285.060,198.600 284.400 C 198.941 283.740,199.131 283.200,199.021 283.200 C 198.911 283.200,198.541 283.740,198.200 284.400 M126.007 287.800 C 127.117 289.365,132.090 295.200,132.313 295.200 C 132.438 295.200,132.176 294.795,131.731 294.300 C 131.286 293.805,129.881 292.140,128.609 290.600 C 126.196 287.680,125.033 286.429,126.007 287.800 M190.614 297.835 C 190.241 298.404,190.005 298.938,190.089 299.022 C 190.173 299.107,190.558 298.641,190.944 297.988 C 191.806 296.528,191.548 296.409,190.614 297.835 M135.634 299.447 C 136.165 300.133,136.680 300.623,136.779 300.535 C 136.877 300.447,136.443 299.886,135.813 299.288 L 134.669 298.200 135.634 299.447 M189.000 300.800 C 188.659 301.460,188.469 302.000,188.579 302.000 C 188.689 302.000,189.059 301.460,189.400 300.800 C 189.741 300.140,189.931 299.600,189.821 299.600 C 189.711 299.600,189.341 300.140,189.000 300.800 M137.216 301.099 C 137.224 301.264,138.169 302.397,139.316 303.615 C 141.511 305.949,141.183 305.371,138.682 302.499 C 137.867 301.563,137.207 300.933,137.216 301.099 M143.601 308.596 C 144.370 309.473,145.045 310.268,145.100 310.362 C 145.155 310.456,145.287 310.447,145.393 310.341 C 145.499 310.235,144.824 309.440,143.893 308.574 L 142.201 307.000 143.601 308.596 M182.495 312.623 C 182.003 313.374,181.600 314.123,181.600 314.287 C 181.600 314.451,182.066 313.900,182.636 313.062 C 183.205 312.224,183.608 311.475,183.531 311.398 C 183.454 311.320,182.988 311.872,182.495 312.623 M150.200 316.000 C 151.283 317.100,152.260 318.000,152.370 318.000 C 152.480 318.000,151.683 317.100,150.600 316.000 C 149.517 314.900,148.540 314.000,148.430 314.000 C 148.320 314.000,149.117 314.900,150.200 316.000 M180.600 316.000 C 180.259 316.660,180.069 317.200,180.179 317.200 C 180.289 317.200,180.659 316.660,181.000 316.000 C 181.341 315.340,181.531 314.800,181.421 314.800 C 181.311 314.800,180.941 315.340,180.600 316.000 M154.987 321.200 C 157.703 324.258,166.079 332.857,166.204 332.716 C 166.260 332.652,163.320 329.540,159.670 325.800 C 156.020 322.060,153.913 319.990,154.987 321.200 M170.832 331.200 C 169.906 332.520,169.234 333.600,169.337 333.600 C 169.507 333.600,171.808 330.516,172.544 329.300 C 173.403 327.883,172.303 329.103,170.832 331.200 " stroke="none" fill="#1c543c" fill-rule="evenodd"></path></g></svg>