<?xml version="1.0" encoding="UTF-8"?>
<!DOCTYPE svg PUBLIC "-//W3C//DTD SVG 1.1//EN" "http://www.w3.org/Graphics/SVG/1.1/DTD/svg11.dtd">
<svg xmlns="http://www.w3.org/2000/svg" version="1.1" width="200px" height="174px" style="shape-rendering:geometricPrecision; text-rendering:geometricPrecision; image-rendering:optimizeQuality; fill-rule:evenodd; clip-rule:evenodd" xmlns:xlink="http://www.w3.org/1999/xlink">
<g><path style="opacity:1" fill="#fefefe" d="M -0.5,-0.5 C 66.1667,-0.5 132.833,-0.5 199.5,-0.5C 199.5,57.5 199.5,115.5 199.5,173.5C 132.833,173.5 66.1667,173.5 -0.5,173.5C -0.5,115.5 -0.5,57.5 -0.5,-0.5 Z"/></g>
<g><path style="opacity:1" fill="#070707" d="M 139.5,35.5 C 140.873,35.3433 142.207,35.51 143.5,36C 165.431,59.9998 170.264,87.1665 158,117.5C 155.839,122.492 153.172,127.159 150,131.5C 148.219,134.452 145.719,136.452 142.5,137.5C 137.312,136.131 135.479,132.797 137,127.5C 152.034,108.931 155.701,88.2645 148,65.5C 144.491,57.1798 139.991,49.5132 134.5,42.5C 135.06,39.288 136.727,36.9547 139.5,35.5 Z"/></g>
<g><path style="opacity:1" fill="#020202" d="M 92.5,42.5 C 95.6516,41.9586 98.1516,42.9586 100,45.5C 100.667,72.8333 100.667,100.167 100,127.5C 97.6227,132.969 94.1227,133.803 89.5,130C 80.1667,122 70.8333,114 61.5,106C 54.2718,104.737 46.9385,104.07 39.5,104C 38.6667,103.167 37.8333,102.333 37,101.5C 36.3333,92.1667 36.3333,82.8333 37,73.5C 37.3742,72.5838 37.8742,71.7504 38.5,71C 45.7282,69.7365 53.0615,69.0699 60.5,69C 71.0528,59.9095 81.7195,51.0762 92.5,42.5 Z"/></g>
<g><path style="opacity:1" fill="#090909" d="M 119.5,55.5 C 124.531,56.0166 128.031,58.6833 130,63.5C 139.026,80.9674 138.193,97.9674 127.5,114.5C 121.723,119.114 118.056,117.781 116.5,110.5C 119.141,105.085 121.308,99.4185 123,93.5C 123.667,88.8333 123.667,84.1667 123,79.5C 120.802,73.4821 117.969,67.8154 114.5,62.5C 115.06,59.288 116.727,56.9547 119.5,55.5 Z"/></g>
</svg>
