<?xml version="1.0" encoding="UTF-8"?>
<!DOCTYPE svg PUBLIC "-//W3C//DTD SVG 1.1//EN" "http://www.w3.org/Graphics/SVG/1.1/DTD/svg11.dtd">
<svg xmlns="http://www.w3.org/2000/svg" version="1.1" width="518px" height="521px" style="shape-rendering:geometricPrecision; text-rendering:geometricPrecision; image-rendering:optimizeQuality; fill-rule:evenodd; clip-rule:evenodd" xmlns:xlink="http://www.w3.org/1999/xlink">
<g><path style="opacity:1" fill="#f6f6f6" d="M -0.5,-0.5 C 172.167,-0.5 344.833,-0.5 517.5,-0.5C 517.5,173.167 517.5,346.833 517.5,520.5C 344.833,520.5 172.167,520.5 -0.5,520.5C -0.5,346.833 -0.5,173.167 -0.5,-0.5 Z"/></g>
<g><path style="opacity:1" fill="#000000" d="M 332.5,56.5 C 337.984,57.8041 343.651,58.8041 349.5,59.5C 397.821,71.1593 429.821,100.493 445.5,147.5C 446.057,152.165 447.39,156.498 449.5,160.5C 458.103,206.173 447.269,246.507 417,281.5C 402.691,292.441 393.691,306.775 390,324.5C 388.533,331.777 388.199,339.111 389,346.5C 391.808,356.872 393.974,367.372 395.5,378C 395.309,394.727 387.309,405.727 371.5,411C 349.531,412.559 327.531,413.726 305.5,414.5C 294.624,414.242 283.958,414.909 273.5,416.5C 245.632,419.799 230.465,407.466 228,379.5C 224.858,372.061 219.358,369.561 211.5,372C 199.997,375.036 188.331,376.37 176.5,376C 160.527,368.556 155.027,356.389 160,339.5C 162.849,334.657 165.683,329.823 168.5,325C 165.627,321.789 163.127,318.289 161,314.5C 160.333,311.833 160.333,309.167 161,306.5C 163.444,302.388 166.278,298.554 169.5,295C 164.572,291.068 160.739,286.235 158,280.5C 156.906,275.017 158.406,270.35 162.5,266.5C 156.132,263.114 149.465,260.281 142.5,258C 134.527,252.537 131.693,245.037 134,235.5C 144.425,221.652 155.092,207.986 166,194.5C 167.637,191.283 168.97,187.95 170,184.5C 169.53,136.263 189.363,99.0961 229.5,73C 244.439,64.4649 260.439,59.1316 277.5,57C 295.83,56.5001 314.164,56.3334 332.5,56.5 Z"/></g>
<g><path style="opacity:1" fill="#868686" d="M 332.5,56.5 C 337.536,56.5878 342.536,57.0878 347.5,58C 348.416,58.2784 349.082,58.7784 349.5,59.5C 343.651,58.8041 337.984,57.8041 332.5,56.5 Z"/></g>
<g><path style="opacity:1" fill="#454545" d="M 445.5,147.5 C 447.61,151.502 448.943,155.835 449.5,160.5C 447.39,156.498 446.057,152.165 445.5,147.5 Z"/></g>
<g><path style="opacity:1" fill="#080808" d="M 63.5,276.5 C 64.9238,274.485 65.5905,272.152 65.5,269.5C 70.0195,255.628 77.6862,243.794 88.5,234C 95.6667,233.167 98.8333,236.333 98,243.5C 70.8251,273.057 67.1584,305.39 87,340.5C 90.6667,344.833 94.3333,349.167 98,353.5C 98.8333,360.667 95.6667,363.833 88.5,363C 64.854,338.609 56.5206,309.776 63.5,276.5 Z"/></g>
<g><path style="opacity:1" fill="#0a0a0a" d="M 101.5,281.5 C 100.4,283.277 99.5662,285.277 99,287.5C 98.1808,293.681 98.3475,299.681 99.5,305.5C 99.8413,310.373 101.008,315.04 103,319.5C 106.831,326.308 110.998,332.808 115.5,339C 114.581,344.792 111.248,347.126 105.5,346C 89.1207,329.531 82.2874,309.698 85,286.5C 88.0505,272.457 94.8838,260.624 105.5,251C 112.222,250.061 115.389,252.894 115,259.5C 113.093,263.41 110.427,266.744 107,269.5C 104.881,273.402 103.048,277.402 101.5,281.5 Z"/></g>
<g><path style="opacity:1" fill="#090909" d="M 122.5,268.5 C 134.812,269.527 136.645,274.527 128,283.5C 121.126,296.351 122.793,308.017 133,318.5C 133.645,326.356 130.145,329.356 122.5,327.5C 105.222,307.769 105.222,288.102 122.5,268.5 Z"/></g>
<g><path style="opacity:1" fill="#555555" d="M 65.5,269.5 C 65.5905,272.152 64.9238,274.485 63.5,276.5C 63.4095,273.848 64.0762,271.515 65.5,269.5 Z"/></g>
<g><path style="opacity:1" fill="#9a9a9a" d="M 101.5,281.5 C 99.7808,289.381 99.1141,297.381 99.5,305.5C 98.3475,299.681 98.1808,293.681 99,287.5C 99.5662,285.277 100.4,283.277 101.5,281.5 Z"/></g>
<g><path style="opacity:1" fill="#909090" d="M 305.5,414.5 C 295.03,415.901 284.364,416.567 273.5,416.5C 283.958,414.909 294.624,414.242 305.5,414.5 Z"/></g>
</svg>
