<svg id="svg" version="1.1" xmlns="http://www.w3.org/2000/svg" xmlns:xlink="http://www.w3.org/1999/xlink" width="400" height="417.50547045951856" viewBox="0, 0, 400,417.50547045951856"><g id="svgg"><path id="path0" d="M251.200 27.065 C 249.660 27.562,248.902 28.151,248.294 29.327 C 247.505 30.847,245.200 35.954,245.200 36.178 C 245.200 36.265,244.210 38.411,243.000 40.947 C 241.790 43.483,240.800 45.635,240.800 45.729 C 240.800 45.824,239.838 47.948,238.661 50.450 C 237.485 52.953,236.241 55.630,235.896 56.400 C 234.866 58.703,232.990 62.797,231.406 66.200 C 230.587 67.960,229.465 70.390,228.915 71.600 C 227.996 73.618,227.138 75.468,224.001 82.200 C 223.386 83.520,222.480 85.500,221.988 86.600 C 221.496 87.700,219.948 91.008,218.547 93.952 C 217.146 96.896,216.000 99.365,216.000 99.440 C 216.000 99.607,214.402 103.163,212.514 107.200 C 210.634 111.220,209.098 114.539,207.886 117.200 C 207.335 118.410,206.214 120.840,205.396 122.600 C 202.782 128.223,200.400 133.597,200.400 133.871 C 200.400 135.834,198.993 135.427,197.721 133.096 C 196.436 130.739,190.071 117.829,188.702 114.800 C 188.354 114.030,187.584 112.320,186.991 111.000 C 186.398 109.680,185.392 107.462,184.756 106.072 C 184.120 104.682,183.600 103.485,183.600 103.412 C 183.600 103.339,182.868 101.687,181.974 99.740 C 181.079 97.793,180.066 95.570,179.721 94.800 C 178.710 92.540,172.876 80.778,171.686 78.600 C 162.029 60.931,150.577 48.120,137.240 40.063 C 134.998 38.708,133.086 37.600,132.991 37.600 C 132.897 37.600,131.691 37.086,130.310 36.458 C 127.588 35.219,120.137 32.630,118.200 32.251 C 117.540 32.122,115.740 31.742,114.200 31.407 C 110.452 30.593,103.950 30.001,98.742 30.000 C 92.520 30.000,86.778 30.619,80.200 31.999 C 79.320 32.184,77.520 32.553,76.200 32.819 C 74.880 33.085,71.460 33.980,68.600 34.808 C 58.886 37.621,58.174 38.588,61.150 44.908 C 62.705 48.209,64.040 51.158,64.996 53.400 C 65.277 54.060,65.888 55.453,66.353 56.496 C 66.819 57.538,67.200 58.478,67.200 58.585 C 67.200 58.691,67.672 59.818,68.248 61.089 C 68.824 62.360,69.525 63.940,69.804 64.600 C 70.832 67.027,72.935 71.856,73.810 73.800 C 74.305 74.900,75.115 76.700,75.610 77.800 C 77.422 81.827,81.216 89.507,83.415 93.600 C 84.656 95.910,86.753 99.870,88.075 102.400 C 89.397 104.930,90.618 107.180,90.789 107.400 C 90.960 107.620,92.045 109.600,93.201 111.800 C 94.356 114.000,96.601 118.050,98.189 120.800 C 99.777 123.550,101.532 126.610,102.089 127.600 C 103.100 129.397,105.474 133.531,106.798 135.800 C 107.184 136.460,109.071 139.700,110.992 143.000 C 112.913 146.300,115.790 151.160,117.384 153.800 C 118.979 156.440,122.132 161.750,124.391 165.600 C 126.650 169.450,128.926 173.271,129.449 174.091 C 129.972 174.912,130.400 175.654,130.400 175.740 C 130.400 175.826,131.570 177.827,133.000 180.185 C 134.430 182.543,135.600 184.544,135.600 184.632 C 135.600 184.720,136.410 186.055,137.400 187.600 C 138.390 189.145,139.200 190.486,139.200 190.581 C 139.200 190.676,140.370 192.755,141.800 195.200 L 144.400 199.646 144.400 202.877 C 144.400 204.653,144.220 206.803,144.000 207.654 C 143.780 208.504,143.406 209.965,143.168 210.900 C 142.931 211.835,142.111 214.400,141.346 216.600 C 139.945 220.627,139.785 221.045,138.671 223.600 C 138.335 224.370,137.657 226.080,137.165 227.400 C 135.841 230.947,126.167 249.956,122.142 256.921 C 121.404 258.198,120.800 259.313,120.800 259.398 C 120.800 259.484,119.630 261.555,118.200 264.000 C 116.770 266.445,115.600 268.543,115.600 268.661 C 115.600 268.780,115.266 269.354,114.857 269.938 C 114.449 270.522,113.663 271.810,113.112 272.800 C 112.560 273.790,110.890 276.670,109.400 279.200 C 107.911 281.730,106.379 284.340,105.997 285.000 C 105.132 286.494,100.587 293.971,97.000 299.800 C 95.510 302.220,93.477 305.550,92.482 307.200 C 91.486 308.850,90.161 310.952,89.536 311.872 C 88.911 312.792,88.400 313.639,88.400 313.756 C 88.400 313.872,87.168 315.909,85.663 318.284 C 81.751 324.451,78.789 329.211,77.998 330.600 C 77.622 331.260,75.823 334.230,74.000 337.200 C 72.177 340.170,70.361 343.173,69.965 343.874 C 69.568 344.575,68.774 345.891,68.200 346.800 C 67.040 348.638,66.065 350.331,64.283 353.600 C 63.624 354.810,62.955 355.980,62.795 356.200 C 61.542 357.933,56.000 368.963,56.000 369.725 C 56.000 370.070,55.820 370.464,55.600 370.600 C 55.006 370.967,55.116 373.477,55.782 374.766 C 56.780 376.696,58.588 377.260,62.252 376.784 C 72.257 375.485,78.692 375.216,100.000 375.209 C 137.927 375.195,147.549 373.259,151.905 364.765 C 152.403 363.794,153.801 361.200,155.011 359.000 C 157.202 355.019,165.198 339.030,166.714 335.600 C 167.151 334.610,167.871 332.990,168.313 332.000 C 168.755 331.010,169.603 329.030,170.197 327.600 C 171.256 325.050,171.831 323.700,172.969 321.100 C 173.282 320.385,173.917 318.810,174.380 317.600 C 175.186 315.495,175.354 315.077,176.315 312.800 C 176.698 311.892,179.359 304.815,181.202 299.800 C 181.607 298.700,182.493 296.317,183.172 294.505 C 183.851 292.693,184.684 290.353,185.023 289.305 C 185.363 288.257,185.803 287.040,186.002 286.600 C 186.201 286.160,186.933 284.180,187.628 282.200 C 188.324 280.220,189.758 276.170,190.814 273.200 C 191.871 270.230,193.329 266.090,194.055 264.000 C 194.780 261.910,195.399 260.151,195.430 260.091 C 195.819 259.326,196.864 261.235,197.954 264.705 C 199.233 268.775,201.574 275.674,203.003 279.586 C 203.362 280.569,204.093 282.329,204.628 283.498 C 205.163 284.667,205.600 285.878,205.600 286.188 C 205.600 286.499,205.760 286.852,205.956 286.973 C 206.151 287.094,206.426 287.649,206.566 288.207 C 206.706 288.765,207.244 290.162,207.761 291.311 C 208.278 292.460,209.425 295.111,210.310 297.202 C 211.195 299.293,212.478 302.223,213.160 303.712 C 213.842 305.201,214.400 306.505,214.400 306.608 C 214.400 306.712,215.049 308.192,215.842 309.898 C 217.276 312.983,218.333 315.288,220.152 319.300 C 225.461 331.004,235.079 350.179,239.934 358.736 C 240.850 360.351,241.600 361.768,241.600 361.885 C 241.600 362.002,243.468 364.918,245.751 368.364 C 251.038 376.343,252.509 377.474,256.685 376.776 C 269.541 374.626,292.526 374.341,317.600 376.020 C 320.790 376.234,327.580 376.519,332.690 376.654 L 341.980 376.900 343.390 375.490 C 345.619 373.261,345.416 371.785,342.198 366.827 C 340.767 364.621,339.259 362.228,338.847 361.508 C 338.435 360.789,337.424 359.030,336.600 357.600 C 335.776 356.170,334.649 354.190,334.097 353.200 C 333.545 352.210,332.963 351.220,332.804 351.000 C 332.645 350.780,331.975 349.610,331.316 348.400 C 329.158 344.441,327.898 342.207,327.596 341.800 C 327.432 341.580,326.587 340.050,325.719 338.400 C 324.850 336.750,323.658 334.639,323.070 333.708 C 322.481 332.777,322.000 331.945,322.000 331.859 C 322.000 331.773,320.650 329.316,319.000 326.400 C 317.350 323.484,316.000 321.040,316.000 320.970 C 316.000 320.900,315.396 319.798,314.658 318.521 C 313.920 317.245,312.776 315.210,312.117 314.000 C 311.457 312.790,310.562 311.170,310.128 310.400 C 309.693 309.630,308.374 307.200,307.197 305.000 C 306.019 302.800,304.548 300.137,303.928 299.082 C 303.308 298.028,302.800 297.106,302.800 297.034 C 302.800 296.962,301.810 295.154,300.600 293.018 C 299.390 290.881,298.400 289.068,298.400 288.988 C 298.400 288.908,297.796 287.798,297.058 286.521 C 296.320 285.245,295.037 282.940,294.206 281.400 C 293.374 279.860,292.204 277.700,291.606 276.600 C 291.007 275.500,289.745 273.160,288.802 271.400 C 287.859 269.640,286.960 268.020,286.804 267.800 C 286.648 267.580,285.297 265.060,283.802 262.200 C 282.307 259.340,280.596 256.100,279.998 255.000 C 273.753 243.503,270.249 236.728,263.036 222.200 C 255.779 207.585,253.531 202.880,252.526 200.200 C 252.196 199.320,251.735 198.200,251.501 197.712 C 250.498 195.611,250.913 193.513,253.268 188.769 C 267.120 160.871,274.082 147.073,278.683 138.400 C 279.558 136.750,281.500 133.060,282.997 130.200 C 284.495 127.340,285.849 124.820,286.007 124.600 C 286.165 124.380,287.157 122.580,288.211 120.600 C 289.266 118.620,290.820 115.769,291.664 114.264 C 292.509 112.759,293.200 111.462,293.200 111.382 C 293.200 111.301,293.708 110.372,294.328 109.318 C 294.948 108.263,296.414 105.600,297.585 103.400 C 298.756 101.200,299.847 99.220,300.009 99.000 C 300.170 98.780,301.344 96.624,302.616 94.208 C 303.888 91.793,305.440 88.950,306.065 87.890 C 306.689 86.831,307.200 85.891,307.200 85.800 C 307.200 85.709,307.708 84.772,308.328 83.718 C 308.948 82.663,310.414 80.000,311.585 77.800 C 312.756 75.600,313.841 73.620,313.996 73.400 C 314.261 73.024,315.714 70.307,320.202 61.800 C 321.246 59.820,322.236 58.020,322.401 57.800 C 322.566 57.580,325.179 52.540,328.206 46.600 C 331.234 40.660,333.891 35.571,334.111 35.292 C 335.176 33.940,334.640 30.347,333.188 29.107 L 331.800 27.922 327.400 28.191 C 324.980 28.340,321.470 28.612,319.600 28.796 C 299.235 30.802,264.905 30.161,254.800 27.585 C 252.242 26.933,251.805 26.870,251.200 27.065 M262.200 38.009 C 269.734 39.163,302.618 39.492,317.900 38.567 C 322.501 38.289,322.638 37.156,316.707 48.400 C 315.604 50.490,313.619 54.270,312.295 56.800 C 310.971 59.330,309.757 61.580,309.598 61.800 C 309.439 62.020,308.268 64.180,306.995 66.600 C 305.722 69.020,304.077 72.045,303.340 73.321 C 302.603 74.598,302.000 75.700,302.000 75.770 C 302.000 75.840,301.010 77.646,299.800 79.782 C 298.590 81.919,297.600 83.734,297.600 83.816 C 297.600 83.898,297.091 84.828,296.470 85.882 C 295.848 86.937,294.291 89.780,293.010 92.200 C 291.729 94.620,290.077 97.645,289.340 98.921 C 288.603 100.198,288.000 101.327,288.000 101.429 C 288.000 101.532,287.582 102.287,287.071 103.108 C 286.559 103.929,285.187 106.400,284.021 108.600 C 282.855 110.800,281.767 112.780,281.604 113.000 C 281.441 113.220,280.270 115.380,279.002 117.800 C 277.734 120.220,276.205 123.100,275.604 124.200 C 275.003 125.300,273.202 128.720,271.601 131.800 C 270.001 134.880,267.513 139.650,266.073 142.400 C 262.904 148.448,246.842 180.592,245.585 183.400 C 245.092 184.500,244.011 186.788,243.183 188.484 C 240.989 192.973,240.874 197.219,242.848 200.798 C 243.031 201.129,243.655 202.570,244.235 204.000 C 244.815 205.430,245.990 208.103,246.845 209.940 C 247.700 211.777,248.400 213.367,248.400 213.474 C 248.400 213.745,259.646 236.207,263.183 243.000 C 269.688 255.494,270.927 257.852,271.592 259.000 C 271.974 259.660,273.186 261.910,274.286 264.000 C 279.854 274.588,280.943 276.632,281.207 277.000 C 281.365 277.220,282.619 279.542,283.994 282.161 C 285.368 284.780,287.012 287.803,287.646 288.879 C 288.281 289.955,288.800 290.909,288.800 291.000 C 288.800 291.091,289.308 292.028,289.928 293.082 C 290.548 294.137,292.014 296.800,293.185 299.000 C 294.356 301.200,295.446 303.180,295.607 303.400 C 295.768 303.620,296.709 305.330,297.698 307.200 C 298.687 309.070,300.060 311.553,300.748 312.718 C 301.437 313.882,302.000 314.909,302.000 315.000 C 302.000 315.091,302.563 316.118,303.251 317.282 C 303.940 318.447,305.221 320.750,306.099 322.400 C 308.810 327.493,310.083 329.757,310.857 330.862 C 311.265 331.446,311.600 332.015,311.600 332.126 C 311.600 332.237,312.294 333.559,313.141 335.064 C 313.989 336.569,315.275 338.880,316.000 340.200 C 319.577 346.717,327.885 361.337,329.482 363.924 C 330.474 365.532,331.172 366.961,331.033 367.100 C 330.664 367.469,324.947 367.261,311.400 366.385 C 291.745 365.114,272.479 365.393,259.073 367.144 C 257.577 367.340,256.561 367.297,256.230 367.024 C 255.592 366.499,252.000 361.402,252.000 361.021 C 252.000 360.869,251.460 359.959,250.800 359.000 C 250.140 358.041,249.600 357.168,249.600 357.061 C 249.600 356.954,248.795 355.505,247.811 353.840 C 246.058 350.876,234.538 327.924,232.230 322.799 C 231.586 321.369,230.139 318.310,229.013 316.000 C 227.887 313.690,226.545 310.810,226.030 309.600 C 225.515 308.390,224.688 306.500,224.193 305.400 C 221.967 300.459,221.446 299.289,220.719 297.601 C 219.949 295.815,219.621 295.062,218.105 291.600 C 214.283 282.875,209.371 269.939,207.018 262.400 C 206.228 259.870,205.406 257.395,205.191 256.900 C 204.976 256.405,204.641 255.595,204.447 255.100 C 201.375 247.262,198.502 243.829,195.015 243.829 C 192.615 243.829,191.229 244.715,190.463 246.740 C 188.024 253.181,187.280 255.184,185.987 258.800 C 185.160 261.110,183.913 264.620,183.215 266.600 C 182.518 268.580,181.791 270.560,181.600 271.000 C 181.409 271.440,180.681 273.420,179.982 275.400 C 175.821 287.183,174.747 290.196,173.422 293.800 C 172.613 296.000,171.670 298.610,171.326 299.600 C 170.657 301.526,163.903 318.598,163.018 320.600 C 162.726 321.260,161.903 323.150,161.189 324.800 C 160.475 326.450,159.485 328.700,158.990 329.800 C 158.495 330.900,157.686 332.700,157.193 333.800 C 155.936 336.601,150.911 346.671,148.506 351.205 C 142.383 362.753,143.008 361.817,140.810 362.736 C 138.831 363.565,133.577 364.532,127.523 365.183 C 125.367 365.415,114.766 365.600,103.632 365.600 C 86.470 365.600,76.279 365.892,69.900 366.565 C 68.372 366.727,67.754 365.659,68.751 364.580 C 68.944 364.371,69.925 362.662,70.931 360.783 C 73.390 356.188,88.976 330.413,91.614 326.580 C 92.266 325.632,92.800 324.759,92.800 324.641 C 92.800 324.430,94.639 321.430,99.264 314.097 C 100.549 312.060,101.600 310.316,101.600 310.220 C 101.600 310.125,102.654 308.371,103.942 306.324 C 105.230 304.276,107.326 300.890,108.601 298.800 C 109.875 296.710,111.596 293.920,112.425 292.600 C 113.253 291.280,114.307 289.525,114.766 288.700 C 115.225 287.875,115.938 286.615,116.351 285.900 C 119.411 280.603,120.248 279.140,121.324 277.200 C 121.996 275.990,123.503 273.402,124.673 271.449 C 125.843 269.496,126.800 267.827,126.800 267.741 C 126.800 267.655,127.220 266.913,127.734 266.092 C 128.248 265.271,129.444 263.160,130.393 261.400 C 132.369 257.731,134.034 254.668,135.611 251.800 C 138.310 246.888,143.973 235.218,145.801 230.800 C 146.392 229.370,147.147 227.570,147.479 226.800 C 147.810 226.030,148.243 224.995,148.441 224.500 C 148.638 224.005,148.968 223.195,149.174 222.700 C 151.673 216.685,153.992 206.884,153.978 202.400 C 153.965 198.163,153.206 196.139,148.799 188.600 C 148.413 187.940,147.424 186.230,146.600 184.800 C 144.450 181.067,143.926 180.174,141.794 176.600 C 140.744 174.840,139.570 172.860,139.185 172.200 C 138.799 171.540,136.485 167.686,134.042 163.635 C 131.599 159.584,129.600 156.191,129.600 156.096 C 129.600 156.001,129.266 155.446,128.857 154.862 C 128.449 154.278,127.663 152.990,127.112 152.000 C 126.560 151.010,124.890 148.130,123.400 145.600 C 119.966 139.768,120.191 140.153,114.418 130.231 C 109.232 121.318,108.179 119.475,106.284 116.000 C 105.625 114.790,104.955 113.620,104.796 113.400 C 104.491 112.978,103.075 110.457,101.089 106.800 C 100.431 105.590,99.578 104.060,99.193 103.400 C 96.540 98.858,84.800 76.035,84.800 75.421 C 84.800 75.230,83.966 73.341,81.556 68.072 C 80.920 66.682,80.400 65.472,80.400 65.384 C 80.400 65.296,79.972 64.273,79.448 63.112 C 78.925 61.950,77.647 59.020,76.607 56.600 C 75.568 54.180,74.478 51.660,74.185 51.000 C 73.891 50.340,73.097 48.552,72.418 47.028 C 71.052 43.958,71.054 43.953,73.600 43.223 C 74.590 42.939,75.850 42.569,76.400 42.400 C 85.515 39.600,98.520 38.513,107.944 39.764 C 135.846 43.467,154.916 61.552,172.091 100.600 C 172.672 101.920,173.898 104.710,174.817 106.800 C 175.736 108.890,177.156 112.040,177.974 113.800 C 178.792 115.560,179.807 117.808,180.230 118.797 C 182.823 124.848,190.380 139.354,193.049 143.400 C 197.243 149.759,198.669 150.921,201.425 150.229 C 202.638 149.925,204.800 147.830,204.800 146.960 C 204.800 146.426,206.758 141.909,210.043 134.860 C 210.899 133.023,211.600 131.467,211.600 131.401 C 211.600 131.336,212.590 129.183,213.800 126.618 C 215.010 124.052,216.000 121.894,216.000 121.822 C 216.000 121.750,216.823 119.915,217.829 117.745 C 218.835 115.575,219.943 113.170,220.291 112.400 C 220.639 111.630,221.976 108.786,223.262 106.080 C 224.548 103.374,225.600 101.089,225.600 101.003 C 225.600 100.918,226.336 99.262,227.235 97.324 C 228.135 95.386,229.237 92.990,229.684 92.000 C 230.130 91.010,231.374 88.344,232.448 86.076 C 233.522 83.808,234.400 81.892,234.400 81.817 C 234.400 81.743,235.390 79.583,236.600 77.018 C 237.810 74.452,238.800 72.286,238.800 72.204 C 238.800 72.121,240.060 69.420,241.600 66.200 C 243.140 62.980,244.400 60.284,244.400 60.209 C 244.400 60.133,245.011 58.750,245.759 57.136 C 246.506 55.521,247.567 53.210,248.116 52.000 C 248.666 50.790,249.674 48.585,250.358 47.100 C 251.041 45.615,252.152 43.185,252.827 41.700 C 255.111 36.674,254.656 36.854,262.200 38.009 " stroke="none" fill="#080606" fill-rule="evenodd"></path><path id="path1" d="M254.638 38.098 C 254.317 38.594,253.502 40.215,252.827 41.700 C 252.152 43.185,251.041 45.615,250.358 47.100 C 249.674 48.585,248.666 50.790,248.116 52.000 C 247.567 53.210,246.506 55.521,245.759 57.136 C 245.011 58.750,244.400 60.133,244.400 60.209 C 244.400 60.284,243.140 62.980,241.600 66.200 C 240.060 69.420,238.800 72.121,238.800 72.204 C 238.800 72.286,237.810 74.452,236.600 77.018 C 235.390 79.583,234.400 81.743,234.400 81.817 C 234.400 81.892,233.522 83.808,232.448 86.076 C 231.374 88.344,230.130 91.010,229.684 92.000 C 229.237 92.990,228.135 95.386,227.235 97.324 C 226.336 99.262,225.600 100.918,225.600 101.003 C 225.600 101.089,224.548 103.374,223.262 106.080 C 221.976 108.786,220.639 111.630,220.291 112.400 C 219.943 113.170,218.835 115.575,217.829 117.745 C 216.823 119.915,216.000 121.750,216.000 121.822 C 216.000 121.894,215.010 124.052,213.800 126.618 C 212.590 129.183,211.600 131.336,211.600 131.401 C 211.600 131.467,210.899 133.023,210.043 134.860 C 206.758 141.909,204.800 146.426,204.800 146.960 C 204.800 147.830,202.638 149.925,201.425 150.229 C 198.669 150.921,197.243 149.759,193.049 143.400 C 190.380 139.354,182.823 124.848,180.230 118.797 C 179.807 117.808,178.792 115.560,177.974 113.800 C 177.156 112.040,175.736 108.890,174.817 106.800 C 173.898 104.710,172.672 101.920,172.091 100.600 C 154.916 61.552,135.846 43.467,107.944 39.764 C 98.520 38.513,85.515 39.600,76.400 42.400 C 75.850 42.569,74.590 42.939,73.600 43.223 C 71.054 43.953,71.052 43.958,72.418 47.028 C 73.097 48.552,73.891 50.340,74.185 51.000 C 74.478 51.660,75.568 54.180,76.607 56.600 C 77.647 59.020,78.925 61.950,79.448 63.112 C 79.972 64.273,80.400 65.296,80.400 65.384 C 80.400 65.472,80.920 66.682,81.556 68.072 C 83.966 73.341,84.800 75.230,84.800 75.421 C 84.800 76.035,96.540 98.858,99.193 103.400 C 99.578 104.060,100.431 105.590,101.089 106.800 C 103.075 110.457,104.491 112.978,104.796 113.400 C 104.955 113.620,105.625 114.790,106.284 116.000 C 108.179 119.475,109.232 121.318,114.418 130.231 C 120.191 140.153,119.966 139.768,123.400 145.600 C 124.890 148.130,126.560 151.010,127.112 152.000 C 127.663 152.990,128.449 154.278,128.857 154.862 C 129.266 155.446,129.600 156.001,129.600 156.096 C 129.600 156.191,131.599 159.584,134.042 163.635 C 136.485 167.686,138.799 171.540,139.185 172.200 C 139.570 172.860,140.744 174.840,141.794 176.600 C 143.926 180.174,144.450 181.067,146.600 184.800 C 147.424 186.230,148.413 187.940,148.799 188.600 C 153.206 196.139,153.965 198.163,153.978 202.400 C 153.992 206.884,151.673 216.685,149.174 222.700 C 148.968 223.195,148.638 224.005,148.441 224.500 C 148.243 224.995,147.810 226.030,147.479 226.800 C 147.147 227.570,146.392 229.370,145.801 230.800 C 143.973 235.218,138.310 246.888,135.611 251.800 C 134.034 254.668,132.369 257.731,130.393 261.400 C 129.444 263.160,128.248 265.271,127.734 266.092 C 127.220 266.913,126.800 267.655,126.800 267.741 C 126.800 267.827,125.843 269.496,124.673 271.449 C 123.503 273.402,121.996 275.990,121.324 277.200 C 120.248 279.140,119.411 280.603,116.351 285.900 C 115.938 286.615,115.225 287.875,114.766 288.700 C 114.307 289.525,113.253 291.280,112.425 292.600 C 111.596 293.920,109.875 296.710,108.601 298.800 C 107.326 300.890,105.230 304.276,103.942 306.324 C 102.654 308.371,101.600 310.125,101.600 310.220 C 101.600 310.316,100.549 312.060,99.264 314.097 C 94.639 321.430,92.800 324.430,92.800 324.641 C 92.800 324.759,92.266 325.632,91.614 326.580 C 88.976 330.413,73.390 356.188,70.931 360.783 C 69.925 362.662,68.944 364.371,68.751 364.580 C 67.754 365.659,68.372 366.727,69.900 366.565 C 76.279 365.892,86.470 365.600,103.632 365.600 C 114.766 365.600,125.367 365.415,127.523 365.183 C 133.577 364.532,138.831 363.565,140.810 362.736 C 142.735 361.931,142.963 361.658,145.115 357.600 C 145.874 356.170,147.400 353.292,148.506 351.205 C 150.911 346.671,155.936 336.601,157.193 333.800 C 157.686 332.700,158.495 330.900,158.990 329.800 C 159.485 328.700,160.475 326.450,161.189 324.800 C 161.903 323.150,162.726 321.260,163.018 320.600 C 163.903 318.598,170.657 301.526,171.326 299.600 C 171.670 298.610,172.613 296.000,173.422 293.800 C 174.747 290.196,175.821 287.183,179.982 275.400 C 180.681 273.420,181.409 271.440,181.600 271.000 C 181.791 270.560,182.518 268.580,183.215 266.600 C 183.913 264.620,185.160 261.110,185.987 258.800 C 187.280 255.184,188.024 253.181,190.463 246.740 C 191.229 244.715,192.615 243.829,195.015 243.829 C 198.502 243.829,201.375 247.262,204.447 255.100 C 204.641 255.595,204.976 256.405,205.191 256.900 C 205.406 257.395,206.228 259.870,207.018 262.400 C 209.371 269.939,214.283 282.875,218.105 291.600 C 219.621 295.062,219.949 295.815,220.719 297.601 C 221.446 299.289,221.967 300.459,224.193 305.400 C 224.688 306.500,225.515 308.390,226.030 309.600 C 226.545 310.810,227.887 313.690,229.013 316.000 C 230.139 318.310,231.586 321.369,232.230 322.799 C 234.538 327.924,246.058 350.876,247.811 353.840 C 248.795 355.505,249.600 356.954,249.600 357.061 C 249.600 357.168,250.140 358.041,250.800 359.000 C 251.460 359.959,252.000 360.869,252.000 361.021 C 252.000 361.402,255.592 366.499,256.230 367.024 C 256.561 367.297,257.577 367.340,259.073 367.144 C 272.479 365.393,291.745 365.114,311.400 366.385 C 324.947 367.261,330.664 367.469,331.033 367.100 C 331.172 366.961,330.474 365.532,329.482 363.924 C 327.885 361.337,319.577 346.717,316.000 340.200 C 315.275 338.880,313.989 336.569,313.141 335.064 C 312.294 333.559,311.600 332.237,311.600 332.126 C 311.600 332.015,311.265 331.446,310.857 330.862 C 310.083 329.757,308.810 327.493,306.099 322.400 C 305.221 320.750,303.940 318.447,303.251 317.282 C 302.563 316.118,302.000 315.091,302.000 315.000 C 302.000 314.909,301.437 313.882,300.748 312.718 C 300.060 311.553,298.687 309.070,297.698 307.200 C 296.709 305.330,295.768 303.620,295.607 303.400 C 295.446 303.180,294.356 301.200,293.185 299.000 C 292.014 296.800,290.548 294.137,289.928 293.082 C 289.308 292.028,288.800 291.091,288.800 291.000 C 288.800 290.909,288.281 289.955,287.646 288.879 C 287.012 287.803,285.368 284.780,283.994 282.161 C 282.619 279.542,281.365 277.220,281.207 277.000 C 280.943 276.632,279.854 274.588,274.286 264.000 C 273.186 261.910,271.974 259.660,271.592 259.000 C 270.927 257.852,269.688 255.494,263.183 243.000 C 259.646 236.207,248.400 213.745,248.400 213.474 C 248.400 213.367,247.700 211.777,246.845 209.940 C 245.990 208.103,244.815 205.430,244.235 204.000 C 243.655 202.570,243.031 201.129,242.848 200.798 C 240.874 197.219,240.989 192.973,243.183 188.484 C 244.011 186.788,245.092 184.500,245.585 183.400 C 246.842 180.592,262.904 148.448,266.073 142.400 C 267.513 139.650,270.001 134.880,271.601 131.800 C 273.202 128.720,275.003 125.300,275.604 124.200 C 276.205 123.100,277.734 120.220,279.002 117.800 C 280.270 115.380,281.441 113.220,281.604 113.000 C 281.767 112.780,282.855 110.800,284.021 108.600 C 285.187 106.400,286.559 103.929,287.071 103.108 C 287.582 102.287,288.000 101.532,288.000 101.429 C 288.000 101.327,288.603 100.198,289.340 98.921 C 290.077 97.645,291.729 94.620,293.010 92.200 C 294.291 89.780,295.848 86.937,296.470 85.882 C 297.091 84.828,297.600 83.898,297.600 83.816 C 297.600 83.734,298.590 81.919,299.800 79.782 C 301.010 77.646,302.000 75.840,302.000 75.770 C 302.000 75.700,302.603 74.598,303.340 73.321 C 304.077 72.045,305.722 69.020,306.995 66.600 C 308.268 64.180,309.439 62.020,309.598 61.800 C 309.757 61.580,310.971 59.330,312.295 56.800 C 313.619 54.270,315.604 50.490,316.707 48.400 C 322.638 37.156,322.501 38.289,317.900 38.567 C 302.618 39.492,269.734 39.163,262.200 38.009 C 256.329 37.110,255.269 37.122,254.638 38.098 " stroke="none" fill="#fa0404" fill-rule="evenodd"></path></g></svg>